font.ufo
<glyph name="exclam" format="1">
  <advance width="232"/>
  <unicode hex="0021"/>
  <outline>
    <contour>
      <point x="145" y="229" type="line"/>
      <point x="150" y="722" type="line"/>
      <point x="82" y="722" type="line"/>
      <point x="87" y="229" type="line"/>
    </contour>
    <contour>
      <point x="150" y="26" type="curve"/>
      <point x="150" y="48"/>
      <point x="136" y="59"/>
      <point x="116" y="59" type="curve"/>
      <point x="96" y="59"/>
      <point x="83" y="46"/>
      <point x="83" y="26" type="curve"/>
      <point x="150" y="26"/>
      <point x="83" y="26"/>
      <point x="150" y="26" type="curve"/>
      <point x="150" y="4"/>
      <point x="136" y="-6"/>
      <point x="116" y="-6" type="curve"/>
      <point x="95" y="-6"/>
      <point x="83" y="5"/>
      <point x="83" y="26" type="curve"/>
      <point x="150" y="26"/>
      <point x="83" y="26"/>
    </contour>
  </outline>
</glyph>
<glyph name="quotedbl" format="1">
  <advance width="368"/>
  <unicode hex="0022"/>
  <outline>
    <contour>
      <point x="137" y="561" type="line"/>
      <point x="142" y="757" type="line"/>
      <point x="80" y="757" type="line"/>
      <point x="85" y="561" type="line"/>
    </contour>
    <contour>
      <point x="284" y="561" type="line"/>
      <point x="289" y="757" type="line"/>
      <point x="227" y="757" type="line"/>
      <point x="232" y="561" type="line"/>
    </contour>
  </outline>
</glyph>
<glyph name="numbersign" format="1">
  <advance width="526"/>
  <unicode hex="0023"/>
  <outline>
    <contour>
      <point x="46" y="239" type="line"/>
      <point x="418" y="239" type="line"/>
      <point x="429" y="286" type="line"/>
      <point x="58" y="286" type="line"/>
    </contour>
    <contour>
      <point x="96" y="474" type="line"/>
      <point x="468" y="474" type="line"/>
      <point x="480" y="521" type="line"/>
      <point x="107" y="521" type="line"/>
    </contour>
    <contour>
      <point x="310" y="39" type="line"/>
      <point x="465" y="722" type="line"/>
      <point x="407" y="722" type="line"/>
      <point x="252" y="39" type="line"/>
    </contour>
    <contour>
      <point x="124" y="46" type="line"/>
      <point x="276" y="722" type="line"/>
      <point x="219" y="722" type="line"/>
      <point x="68" y="46" type="line"/>
    </contour>
  </outline>
</glyph>
<glyph name="dollar" format="1">
  <advance width="446"/>
  <unicode hex="0024"/>
  <outline>
    <contour>
      <point x="108" y="97" type="curve"/>
      <point x="108" y="217"/>
      <point x="108" y="97"/>
      <point x="108" y="217" type="curve"/>
      <point x="61" y="217"/>
      <point x="108" y="217"/>
      <point x="61" y="217" type="curve"/>
      <point x="61" y="97"/>
      <point x="61" y="217"/>
      <point x="61" y="97" type="curve"/>
      <point x="108" y="97"/>
      <point x="61" y="97"/>
    </contour>
    <contour>
      <point x="324" y="632" type="curve"/>
      <point x="324" y="512"/>
      <point x="324" y="632"/>
      <point x="324" y="512" type="curve"/>
      <point x="372" y="512"/>
      <point x="324" y="512"/>
      <point x="372" y="512" type="curve"/>
      <point x="372" y="632"/>
      <point x="372" y="512"/>
      <point x="372" y="632" type="curve"/>
      <point x="324" y="632"/>
      <point x="372" y="632"/>
    </contour>
    <contour>
      <point x="240" y="-43" type="curve"/>
      <point x="240" y="-10"/>
      <point x="240" y="37"/>
      <point x="240" y="70" type="curve"/>
      <point x="183" y="70"/>
      <point x="240" y="70"/>
      <point x="183" y="70" type="curve"/>
      <point x="183" y="37"/>
      <point x="183" y="-10"/>
      <point x="183" y="-43" type="curve"/>
      <point x="240" y="-43"/>
      <point x="183" y="-43"/>
    </contour>
    <contour>
      <point x="249" y="660" type="curve"/>
      <point x="249" y="693"/>
      <point x="249" y="740"/>
      <point x="249" y="773" type="curve"/>
      <point x="191" y="773"/>
      <point x="249" y="773"/>
      <point x="191" y="773" type="curve"/>
      <point x="191" y="740"/>
      <point x="191" y="693"/>
      <point x="191" y="660" type="curve"/>
      <point x="249" y="660"/>
      <point x="191" y="660"/>
    </contour>
    <contour>
      <point x="61" y="97" type="curve"/>
      <point x="100" y="70"/>
      <point x="150" y="46"/>
      <point x="209" y="46" type="curve"/>
      <point x="318" y="46"/>
      <point x="394" y="111"/>
      <point x="394" y="205" type="curve"/>
      <point x="394" y="291"/>
      <point x="324" y="347"/>
      <point x="239" y="396" type="curve"/>
      <point x="173" y="434"/>
      <point x="127" y="470"/>
      <point x="127" y="536" type="curve"/>
      <point x="127" y="593"/>
      <point x="162" y="638"/>
      <point x="223" y="638" type="curve"/>
      <point x="272" y="638"/>
      <point x="304" y="621"/>
      <point x="343" y="593" type="curve"/>
      <point x="372" y="632"/>
      <point x="343" y="593"/>
      <point x="372" y="632" type="curve"/>
      <point x="325" y="666"/>
      <point x="284" y="684"/>
      <point x="225" y="684" type="curve"/>
      <point x="129" y="684"/>
      <point x="68" y="622"/>
      <point x="68" y="536" type="curve"/>
      <point x="68" y="452"/>
      <point x="123" y="400"/>
      <point x="205" y="353" type="curve"/>
      <point x="275" y="314"/>
      <point x="336" y="273"/>
      <point x="336" y="202" type="curve"/>
      <point x="336" y="138"/>
      <point x="287" y="92"/>
      <point x="214" y="92" type="curve"/>
      <point x="165" y="92"/>
      <point x="125" y="117"/>
      <point x="92" y="138" type="curve"/>
      <point x="61" y="97"/>
      <point x="92" y="138"/>
    </contour>
  </outline>
</glyph>
<glyph name="quotesingle" format="1">
  <advance width="222"/>
  <unicode hex="0027"/>
  <outline>
    <contour>
      <point x="137" y="561" type="line"/>
      <point x="142" y="757" type="line"/>
      <point x="80" y="757" type="line"/>
      <point x="85" y="561" type="line"/>
    </contour>
  </outline>
</glyph>
<glyph name="parenleft" format="1">
  <advance width="284"/>
  <unicode hex="0028"/>
  <outline>
    <contour>
      <point x="272" y="-228" type="curve"/>
      <point x="142" y="-49"/>
      <point x="109" y="107"/>
      <point x="109" y="326" type="curve"/>
      <point x="109" y="545"/>
      <point x="144" y="701"/>
      <point x="271" y="882" type="curve"/>
      <point x="236" y="911"/>
      <point x="271" y="882"/>
      <point x="236" y="911" type="curve"/>
      <point x="99" y="723"/>
      <point x="52" y="560"/>
      <point x="52" y="326" type="curve"/>
      <point x="52" y="92"/>
      <point x="100" y="-70"/>
      <point x="236" y="-260" type="curve"/>
      <point x="272" y="-228"/>
      <point x="236" y="-260"/>
    </contour>
  </outline>
</glyph>
<glyph name="hyphen" format="1">
  <advance width="367"/>
  <unicode hex="002D"/>
  <outline>
    <contour>
      <point x="80" y="250" type="curve"/>
      <point x="149" y="250"/>
      <point x="219" y="250"/>
      <point x="287" y="250" type="curve"/>
      <point x="287" y="301"/>
      <point x="287" y="250"/>
      <point x="287" y="301" type="curve"/>
      <point x="219" y="301"/>
      <point x="149" y="301"/>
      <point x="80" y="301" type="curve"/>
      <point x="80" y="250"/>
      <point x="80" y="301"/>
    </contour>
  </outline>
</glyph>
<glyph name="slash" format="1">
  <advance width="431"/>
  <unicode hex="002F"/>
  <outline>
    <contour>
      <point x="92" y="-52" type="curve"/>
      <point x="193" y="241"/>
      <point x="294" y="533"/>
      <point x="396" y="826" type="curve"/>
      <point x="338" y="826"/>
      <point x="396" y="826"/>
      <point x="338" y="826" type="curve"/>
      <point x="237" y="533"/>
      <point x="135" y="241"/>
      <point x="34" y="-52" type="curve"/>
      <point x="92" y="-52"/>
      <point x="34" y="-52"/>
    </contour>
  </outline>
</glyph>
<glyph name="zero" format="1">
  <advance width="565"/>
  <unicode hex="0030"/>
  <outline>
    <contour>
      <point x="120" y="360" type="curve"/>
      <point x="120" y="532"/>
      <point x="137" y="678"/>
      <point x="281" y="678" type="curve"/>
      <point x="426" y="678"/>
      <point x="445" y="534"/>
      <point x="445" y="363" type="curve"/>
      <point x="445" y="192"/>
      <point x="426" y="44"/>
      <point x="286" y="44" type="curve"/>
      <point x="146" y="44"/>
      <point x="120" y="189"/>
      <point x="120" y="360" type="curve"/>
      <point x="64" y="360"/>
      <point x="118" y="360"/>
      <point x="63" y="360" type="curve"/>
      <point x="63" y="157"/>
      <point x="105" y="-5"/>
      <point x="283" y="-5" type="curve"/>
      <point x="462" y="-5"/>
      <point x="502" y="159"/>
      <point x="502" y="363" type="curve"/>
      <point x="502" y="565"/>
      <point x="462" y="727"/>
      <point x="286" y="727" type="curve"/>
      <point x="106" y="727"/>
      <point x="63" y="564"/>
      <point x="63" y="360" type="curve"/>
      <point x="118" y="360"/>
      <point x="64" y="360"/>
    </contour>
  </outline>
</glyph>
<glyph name="four" format="1">
  <advance width="474"/>
  <unicode hex="0034"/>
  <outline>
    <contour>
      <point x="289" y="47" type="line"/>
      <point x="172" y="47" type="line"/>
      <point x="172" y="0" type="line"/>
      <point x="289" y="0" type="line"/>
    </contour>
    <contour>
      <point x="289" y="0" type="line"/>
      <point x="399" y="0" type="line"/>
      <point x="399" y="47" type="line"/>
      <point x="289" y="47" type="line"/>
    </contour>
    <contour>
      <point x="62" y="269" type="line"/>
      <point x="311" y="714" type="line"/>
      <point x="260" y="715" type="line"/>
      <point x="31" y="304" type="line"/>
    </contour>
    <contour>
      <point x="428" y="304" type="line"/>
      <point x="31" y="304" type="line"/>
      <point x="32" y="254" type="line"/>
      <point x="428" y="254" type="line"/>
    </contour>
    <contour>
      <point x="318" y="13" type="line"/>
      <point x="318" y="715" type="line"/>
      <point x="261" y="715" type="line"/>
      <point x="261" y="13" type="line"/>
    </contour>
  </outline>
</glyph>
<glyph name="five" format="1">
  <advance width="422"/>
  <unicode hex="0035"/>
  <outline>
    <contour>
      <point x="80" y="722" type="curve"/>
      <point x="80" y="621"/>
      <point x="80" y="516"/>
      <point x="80" y="398" type="curve"/>
      <point x="135" y="379"/>
      <point x="80" y="398"/>
      <point x="135" y="379" type="curve"/>
      <point x="135" y="477"/>
      <point x="135" y="577"/>
      <point x="135" y="675" type="curve"/>
      <point x="80" y="722"/>
      <point x="135" y="675"/>
    </contour>
    <contour>
      <point x="135" y="379" type="curve"/>
      <point x="149" y="392"/>
      <point x="176" y="407"/>
      <point x="201" y="407" type="curve"/>
      <point x="283" y="407"/>
      <point x="309" y="324"/>
      <point x="309" y="230" type="curve"/>
      <point x="309" y="133"/>
      <point x="273" y="44"/>
      <point x="188" y="44" type="curve"/>
      <point x="145" y="44"/>
      <point x="119" y="59"/>
      <point x="82" y="85" type="curve"/>
      <point x="52" y="44"/>
      <point x="82" y="85"/>
      <point x="52" y="44" type="curve"/>
      <point x="93" y="12"/>
      <point x="133" y="-5"/>
      <point x="186" y="-5" type="curve"/>
      <point x="304" y="-5"/>
      <point x="367" y="101"/>
      <point x="367" y="229" type="curve"/>
      <point x="367" y="353"/>
      <point x="319" y="456"/>
      <point x="208" y="456" type="curve"/>
      <point x="162" y="456"/>
      <point x="115" y="440"/>
      <point x="80" y="398" type="curve"/>
      <point x="135" y="379"/>
      <point x="80" y="398"/>
    </contour>
    <contour>
      <point x="347" y="722" type="curve"/>
      <point x="259" y="722"/>
      <point x="168" y="722"/>
      <point x="80" y="722" type="curve"/>
      <point x="135" y="675"/>
      <point x="80" y="722"/>
      <point x="135" y="675" type="curve"/>
      <point x="205" y="675"/>
      <point x="277" y="675"/>
      <point x="347" y="675" type="curve"/>
      <point x="347" y="722"/>
      <point x="347" y="675"/>
    </contour>
  </outline>
</glyph>
<glyph name="six" format="1">
  <advance width="468"/>
  <unicode hex="0036"/>
  <outline>
    <contour>
      <point x="105" y="224" type="curve"/>
      <point x="118" y="295"/>
      <point x="161" y="372"/>
      <point x="239" y="372" type="curve"/>
      <point x="322" y="372"/>
      <point x="350" y="302"/>
      <point x="350" y="209" type="curve"/>
      <point x="350" y="127"/>
      <point x="321" y="47"/>
      <point x="243" y="47" type="curve"/>
      <point x="146" y="47"/>
      <point x="113" y="136"/>
      <point x="113" y="247" type="curve"/>
      <point x="113" y="459"/>
      <point x="211" y="613"/>
      <point x="404" y="689" type="curve"/>
      <point x="386" y="732"/>
      <point x="404" y="689"/>
      <point x="386" y="732" type="curve"/>
      <point x="173" y="652"/>
      <point x="57" y="486"/>
      <point x="57" y="245" type="curve"/>
      <point x="57" y="101"/>
      <point x="111" y="-7"/>
      <point x="242" y="-7" type="curve"/>
      <point x="356" y="-7"/>
      <point x="408" y="85"/>
      <point x="408" y="210" type="curve"/>
      <point x="408" y="332"/>
      <point x="358" y="421"/>
      <point x="248" y="421" type="curve"/>
      <point x="143" y="421"/>
      <point x="87" y="328"/>
      <point x="73" y="240" type="curve"/>
      <point x="103" y="224"/>
      <point x="74" y="240"/>
    </contour>
  </outline>
</glyph>
<glyph name="seven" format="1">
  <advance width="425"/>
  <unicode hex="0037"/>
  <outline>
    <contour>
      <point x="100" y="581" type="line"/>
      <point x="100" y="691" type="line"/>
      <point x="53" y="691" type="line"/>
      <point x="53" y="581" type="line"/>
    </contour>
    <contour>
      <point x="53" y="675" type="line"/>
      <point x="406" y="675" type="line"/>
      <point x="406" y="722" type="line"/>
      <point x="53" y="722" type="line"/>
    </contour>
    <contour>
      <point x="372" y="722" type="line"/>
      <point x="74" y="0" type="line"/>
      <point x="133" y="0" type="line"/>
      <point x="406" y="675" type="line"/>
    </contour>
  </outline>
</glyph>
<glyph name="colon" format="1">
  <advance width="227"/>
  <unicode hex="003A"/>
  <outline>
    <contour>
      <point x="147" y="395" type="curve"/>
      <point x="147" y="417"/>
      <point x="133" y="428"/>
      <point x="113" y="428" type="curve"/>
      <point x="92" y="428"/>
      <point x="80" y="416"/>
      <point x="80" y="395" type="curve"/>
      <point x="147" y="395"/>
      <point x="80" y="395"/>
      <point x="147" y="395" type="curve"/>
      <point x="147" y="374"/>
      <point x="133" y="363"/>
      <point x="113" y="363" type="curve"/>
      <point x="92" y="363"/>
      <point x="80" y="374"/>
      <point x="80" y="395" type="curve"/>
      <point x="147" y="395"/>
      <point x="80" y="395"/>
    </contour>
    <contour>
      <point x="147" y="28" type="curve"/>
      <point x="147" y="49"/>
      <point x="133" y="61"/>
      <point x="113" y="61" type="curve"/>
      <point x="92" y="61"/>
      <point x="80" y="48"/>
      <point x="80" y="28" type="curve"/>
      <point x="147" y="28"/>
      <point x="80" y="28"/>
      <point x="147" y="28" type="curve"/>
      <point x="147" y="6"/>
      <point x="133" y="-4"/>
      <point x="113" y="-4" type="curve"/>
      <point x="92" y="-4"/>
      <point x="80" y="7"/>
      <point x="80" y="28" type="curve"/>
      <point x="147" y="28"/>
      <point x="80" y="28"/>
    </contour>
  </outline>
</glyph>
<glyph name="semicolon" format="1">
  <advance width="259"/>
  <unicode hex="003B"/>
  <outline>
    <contour>
      <point x="85" y="-134" type="line"/>
      <point x="132" y="-117"/>
      <point x="165" y="-78"/>
      <point x="165" y="-14" type="curve"/>
      <point x="165" y="26"/>
      <point x="152" y="51"/>
      <point x="125" y="51" type="curve"/>
      <point x="102" y="51"/>
      <point x="88" y="39"/>
      <point x="88" y="18" type="curve"/>
      <point x="88" y="0"/>
      <point x="97" y="-13"/>
      <point x="118" y="-17" type="curve"/>
      <point x="118" y="-39"/>
      <point x="110" y="-80"/>
      <point x="73" y="-100" type="curve"/>
    </contour>
    <contour>
      <point x="164" y="413" type="curve"/>
      <point x="164" y="435"/>
      <point x="150" y="446"/>
      <point x="130" y="446" type="curve"/>
      <point x="109" y="446"/>
      <point x="97" y="433"/>
      <point x="97" y="413" type="curve"/>
      <point x="164" y="413"/>
      <point x="97" y="413"/>
      <point x="164" y="413" type="curve"/>
      <point x="164" y="392"/>
      <point x="150" y="381"/>
      <point x="130" y="381" type="curve"/>
      <point x="109" y="381"/>
      <point x="97" y="392"/>
      <point x="97" y="413" type="curve"/>
      <point x="164" y="413"/>
      <point x="97" y="413"/>
    </contour>
  </outline>
</glyph>
<glyph name="less" format="1">
  <advance width="539"/>
  <unicode hex="003C"/>
  <outline>
    <contour>
      <point x="474" y="596" type="curve"/>
      <point x="329" y="506"/>
      <point x="184" y="416"/>
      <point x="39" y="326" type="curve"/>
      <point x="39" y="274"/>
      <point x="39" y="326"/>
      <point x="39" y="274" type="curve"/>
      <point x="184" y="364"/>
      <point x="329" y="454"/>
      <point x="474" y="544" type="curve"/>
      <point x="474" y="596"/>
      <point x="474" y="544"/>
    </contour>
    <contour>
      <point x="481" y="62" type="curve"/>
      <point x="333" y="150"/>
      <point x="186" y="238"/>
      <point x="39" y="326" type="curve"/>
      <point x="39" y="274"/>
      <point x="39" y="326"/>
      <point x="39" y="274" type="curve"/>
      <point x="186" y="186"/>
      <point x="333" y="98"/>
      <point x="481" y="10" type="curve"/>
      <point x="481" y="62"/>
      <point x="481" y="10"/>
    </contour>
  </outline>
</glyph>
<glyph name="equal" format="1">
  <advance width="613"/>
  <unicode hex="003D"/>
  <outline>
    <contour>
      <point x="82" y="193" type="curve"/>
      <point x="231" y="193"/>
      <point x="381" y="193"/>
      <point x="531" y="193" type="curve"/>
      <point x="531" y="242"/>
      <point x="531" y="193"/>
      <point x="531" y="242" type="curve"/>
      <point x="381" y="242"/>
      <point x="231" y="242"/>
      <point x="82" y="242" type="curve"/>
      <point x="82" y="193"/>
      <point x="82" y="242"/>
    </contour>
    <contour>
      <point x="82" y="415" type="curve"/>
      <point x="231" y="415"/>
      <point x="381" y="415"/>
      <point x="531" y="415" type="curve"/>
      <point x="531" y="464"/>
      <point x="531" y="415"/>
      <point x="531" y="464" type="curve"/>
      <point x="381" y="464"/>
      <point x="231" y="464"/>
      <point x="82" y="464" type="curve"/>
      <point x="82" y="415"/>
      <point x="82" y="464"/>
    </contour>
  </outline>
</glyph>
<glyph name="question" format="1">
  <advance width="422"/>
  <unicode hex="003F"/>
  <outline>
    <contour>
      <point x="169" y="347" type="curve"/>
      <point x="169" y="310"/>
      <point x="169" y="258"/>
      <point x="169" y="221" type="curve"/>
      <point x="223" y="221"/>
      <point x="169" y="221"/>
      <point x="223" y="221" type="curve"/>
      <point x="223" y="258"/>
      <point x="223" y="310"/>
      <point x="223" y="347" type="curve"/>
      <point x="169" y="347"/>
      <point x="223" y="347"/>
    </contour>
    <contour>
      <point x="89" y="610" type="line"/>
      <point x="111" y="645"/>
      <point x="142" y="672"/>
      <point x="191" y="672" type="curve"/>
      <point x="272" y="672"/>
      <point x="307" y="604"/>
      <point x="307" y="519" type="curve"/>
      <point x="307" y="423"/>
      <point x="265" y="347"/>
      <point x="177" y="347" type="curve"/>
      <point x="177" y="319"/>
      <point x="177" y="328"/>
      <point x="177" y="301" type="curve"/>
      <point x="298" y="301"/>
      <point x="363" y="394"/>
      <point x="363" y="519" type="curve"/>
      <point x="363" y="635"/>
      <point x="303" y="722"/>
      <point x="194" y="722" type="curve"/>
      <point x="125" y="722"/>
      <point x="84" y="690"/>
      <point x="54" y="644" type="curve"/>
    </contour>
    <contour>
      <point x="230" y="26" type="curve"/>
      <point x="230" y="48"/>
      <point x="216" y="59"/>
      <point x="196" y="59" type="curve"/>
      <point x="175" y="59"/>
      <point x="163" y="46"/>
      <point x="163" y="26" type="curve"/>
      <point x="230" y="26"/>
      <point x="163" y="26"/>
      <point x="230" y="26" type="curve"/>
      <point x="230" y="4"/>
      <point x="216" y="-6"/>
      <point x="196" y="-6" type="curve"/>
      <point x="175" y="-6"/>
      <point x="163" y="5"/>
      <point x="163" y="26" type="curve"/>
      <point x="230" y="26"/>
      <point x="163" y="26"/>
    </contour>
  </outline>
</glyph>
<glyph name="F" format="1">
  <advance width="493"/>
  <unicode hex="0046"/>
  <outline>
    <contour>
      <point x="165" y="0" type="curve"/>
      <point x="210" y="0"/>
      <point x="165" y="0"/>
      <point x="299" y="0" type="curve"/>
      <point x="299" y="47"/>
      <point x="299" y="0"/>
      <point x="299" y="47" type="curve"/>
      <point x="165" y="47"/>
      <point x="299" y="47"/>
      <point x="165" y="47" type="curve"/>
      <point x="165" y="0"/>
      <point x="165" y="47"/>
    </contour>
    <contour>
      <point x="165" y="722" type="curve"/>
      <point x="121" y="722"/>
      <point x="91" y="722"/>
      <point x="46" y="722" type="curve"/>
      <point x="46" y="675"/>
      <point x="46" y="722"/>
      <point x="46" y="675" type="curve"/>
      <point x="180" y="675"/>
      <point x="32" y="675"/>
      <point x="165" y="675" type="curve"/>
      <point x="165" y="722"/>
      <point x="165" y="675"/>
    </contour>
    <contour>
      <point x="165" y="47" type="curve"/>
      <point x="32" y="47"/>
      <point x="180" y="47"/>
      <point x="46" y="47" type="curve"/>
      <point x="46" y="0"/>
      <point x="46" y="47"/>
      <point x="46" y="0" type="curve"/>
      <point x="91" y="0"/>
      <point x="121" y="0"/>
      <point x="165" y="0" type="curve"/>
      <point x="165" y="47"/>
      <point x="165" y="0"/>
    </contour>
    <contour>
      <point x="403" y="699" type="curve"/>
      <point x="403" y="579"/>
      <point x="403" y="706"/>
      <point x="403" y="586" type="curve"/>
      <point x="450" y="586"/>
      <point x="403" y="586"/>
      <point x="450" y="586" type="curve"/>
      <point x="450" y="706"/>
      <point x="450" y="579"/>
      <point x="450" y="699" type="curve"/>
      <point x="403" y="699"/>
      <point x="450" y="699"/>
    </contour>
    <contour>
      <point x="168" y="350" type="curve"/>
      <point x="245" y="350"/>
      <point x="321" y="350"/>
      <point x="398" y="350" type="curve"/>
      <point x="398" y="397"/>
      <point x="398" y="350"/>
      <point x="398" y="397" type="curve"/>
      <point x="321" y="397"/>
      <point x="245" y="397"/>
      <point x="168" y="397" type="curve"/>
      <point x="168" y="350"/>
      <point x="168" y="397"/>
    </contour>
    <contour>
      <point x="194" y="0" type="curve"/>
      <point x="194" y="722" type="line"/>
      <point x="137" y="722"/>
      <point x="194" y="722"/>
      <point x="137" y="722" type="curve"/>
      <point x="137" y="481"/>
      <point x="137" y="241"/>
      <point x="137" y="0" type="curve"/>
      <point x="194" y="0"/>
      <point x="137" y="0"/>
    </contour>
    <contour>
      <point x="157" y="675" type="curve"/>
      <point x="255" y="675"/>
      <point x="352" y="675"/>
      <point x="450" y="675" type="curve"/>
      <point x="450" y="722"/>
      <point x="450" y="675"/>
      <point x="450" y="722" type="curve"/>
      <point x="352" y="722"/>
      <point x="255" y="722"/>
      <point x="157" y="722" type="curve"/>
      <point x="157" y="675"/>
      <point x="157" y="722"/>
    </contour>
  </outline>
</glyph>
<glyph name="G" format="1">
  <advance width="601"/>
  <unicode hex="0047"/>
  <outline>
    <contour>
      <point x="312" y="812" type="move" name="top"/>
    </contour>
    <contour>
      <point x="333" y="-57" type="move" name="bottom"/>
    </contour>
    <contour>
      <point x="475" y="643" type="curve"/>
      <point x="475" y="517"/>
      <point x="475" y="650"/>
      <point x="475" y="524" type="curve"/>
      <point x="523" y="524"/>
      <point x="475" y="524"/>
      <point x="523" y="524" type="curve"/>
      <point x="523" y="650"/>
      <point x="523" y="517"/>
      <point x="523" y="643" type="curve"/>
      <point x="475" y="643"/>
      <point x="523" y="643"/>
    </contour>
    <contour>
      <point x="518" y="333" type="curve"/>
      <point x="466" y="333"/>
      <point x="413" y="333"/>
      <point x="361" y="333" type="curve"/>
      <point x="361" y="287"/>
      <point x="361" y="333"/>
      <point x="361" y="287" type="curve"/>
      <point x="413" y="287"/>
      <point x="466" y="287"/>
      <point x="518" y="287" type="curve"/>
      <point x="518" y="333"/>
      <point x="518" y="287"/>
    </contour>
    <contour>
      <point x="535" y="78" type="curve"/>
      <point x="535" y="163"/>
      <point x="535" y="248"/>
      <point x="535" y="333" type="curve"/>
      <point x="482" y="333"/>
      <point x="535" y="333"/>
      <point x="482" y="333" type="curve"/>
      <point x="482" y="248"/>
      <point x="482" y="163"/>
      <point x="482" y="78" type="curve"/>
      <point x="535" y="78"/>
      <point x="482" y="78"/>
    </contour>
    <contour>
      <point x="523" y="643" type="curve"/>
      <point x="460" y="698"/>
      <point x="397" y="727"/>
      <point x="314" y="727" type="curve"/>
      <point x="128" y="727"/>
      <point x="59" y="573"/>
      <point x="59" y="364" type="curve"/>
      <point x="59" y="150"/>
      <point x="132" y="-5"/>
      <point x="322" y="-5" type="curve"/>
      <point x="411" y="-5"/>
      <point x="465" y="24"/>
      <point x="535" y="78" type="curve"/>
      <point x="504" y="115"/>
      <point x="535" y="78"/>
      <point x="504" y="115" type="curve"/>
      <point x="456" y="75"/>
      <point x="397" y="45"/>
      <point x="322" y="45" type="curve"/>
      <point x="163" y="45"/>
      <point x="118" y="185"/>
      <point x="118" y="368" type="curve"/>
      <point x="118" y="541"/>
      <point x="163" y="677"/>
      <point x="314" y="677" type="curve"/>
      <point x="386" y="677"/>
      <point x="439" y="651"/>
      <point x="494" y="603" type="curve"/>
      <point x="523" y="643"/>
      <point x="494" y="603"/>
    </contour>
  </outline>
</glyph>
<glyph name="H" format="1">
  <advance width="675"/>
  <unicode hex="0048"/>
  <outline>
    <contour>
      <point x="517" y="675" type="curve"/>
      <point x="650" y="675"/>
      <point x="503" y="675"/>
      <point x="636" y="675" type="curve"/>
      <point x="636" y="722"/>
      <point x="636" y="675"/>
      <point x="636" y="722" type="curve"/>
      <point x="592" y="722"/>
      <point x="561" y="722"/>
      <point x="517" y="722" type="curve"/>
      <point x="517" y="675"/>
      <point x="517" y="722"/>
    </contour>
    <contour>
      <point x="517" y="0" type="curve"/>
      <point x="561" y="0"/>
      <point x="592" y="0"/>
      <point x="636" y="0" type="curve"/>
      <point x="636" y="47"/>
      <point x="636" y="0"/>
      <point x="636" y="47" type="curve"/>
      <point x="503" y="47"/>
      <point x="650" y="47"/>
      <point x="517" y="47" type="curve"/>
      <point x="517" y="0"/>
      <point x="517" y="47"/>
    </contour>
    <contour>
      <point x="517" y="47" type="curve"/>
      <point x="384" y="47"/>
      <point x="531" y="47"/>
      <point x="398" y="47" type="curve"/>
      <point x="398" y="0"/>
      <point x="398" y="47"/>
      <point x="398" y="0" type="curve"/>
      <point x="442" y="0"/>
      <point x="472" y="0"/>
      <point x="517" y="0" type="curve"/>
      <point x="517" y="47"/>
      <point x="517" y="0"/>
    </contour>
    <contour>
      <point x="517" y="722" type="curve"/>
      <point x="472" y="722"/>
      <point x="442" y="722"/>
      <point x="398" y="722" type="curve"/>
      <point x="398" y="675"/>
      <point x="398" y="722"/>
      <point x="398" y="675" type="curve"/>
      <point x="531" y="675"/>
      <point x="384" y="675"/>
      <point x="517" y="675" type="curve"/>
      <point x="517" y="722"/>
      <point x="517" y="675"/>
    </contour>
    <contour>
      <point x="159" y="675" type="curve"/>
      <point x="292" y="675"/>
      <point x="144" y="675"/>
      <point x="278" y="675" type="curve"/>
      <point x="278" y="722"/>
      <point x="278" y="675"/>
      <point x="278" y="722" type="curve"/>
      <point x="233" y="722"/>
      <point x="203" y="722"/>
      <point x="159" y="722" type="curve"/>
      <point x="159" y="675"/>
      <point x="159" y="722"/>
    </contour>
    <contour>
      <point x="159" y="722" type="curve"/>
      <point x="114" y="722"/>
      <point x="84" y="722"/>
      <point x="39" y="722" type="curve"/>
      <point x="39" y="675"/>
      <point x="39" y="722"/>
      <point x="39" y="675" type="curve"/>
      <point x="173" y="675"/>
      <point x="25" y="675"/>
      <point x="159" y="675" type="curve"/>
      <point x="159" y="722"/>
      <point x="159" y="675"/>
    </contour>
    <contour>
      <point x="159" y="0" type="curve"/>
      <point x="203" y="0"/>
      <point x="144" y="0"/>
      <point x="278" y="0" type="curve"/>
      <point x="278" y="47"/>
      <point x="278" y="0"/>
      <point x="278" y="47" type="curve"/>
      <point x="144" y="47"/>
      <point x="292" y="47"/>
      <point x="159" y="47" type="curve"/>
      <point x="159" y="0"/>
      <point x="159" y="47"/>
    </contour>
    <contour>
      <point x="159" y="47" type="curve"/>
      <point x="25" y="47"/>
      <point x="173" y="47"/>
      <point x="39" y="47" type="curve"/>
      <point x="39" y="0"/>
      <point x="39" y="47"/>
      <point x="39" y="0" type="curve"/>
      <point x="84" y="0"/>
      <point x="114" y="0"/>
      <point x="159" y="0" type="curve"/>
      <point x="159" y="47"/>
      <point x="159" y="0"/>
    </contour>
    <contour>
      <point x="187" y="0" type="curve"/>
      <point x="187" y="722" type="line"/>
      <point x="130" y="722"/>
      <point x="187" y="722"/>
      <point x="130" y="722" type="curve"/>
      <point x="130" y="481"/>
      <point x="130" y="241"/>
      <point x="130" y="0" type="curve"/>
      <point x="187" y="0"/>
      <point x="130" y="0"/>
    </contour>
    <contour>
      <point x="515" y="386" type="curve"/>
      <point x="396" y="386"/>
      <point x="277" y="386"/>
      <point x="159" y="386" type="curve"/>
      <point x="159" y="339"/>
      <point x="159" y="386"/>
      <point x="159" y="339" type="curve"/>
      <point x="277" y="339"/>
      <point x="396" y="339"/>
      <point x="515" y="339" type="curve"/>
      <point x="515" y="386"/>
      <point x="515" y="339"/>
    </contour>
    <contour>
      <point x="545" y="14" type="curve"/>
      <point x="545" y="245"/>
      <point x="545" y="477"/>
      <point x="545" y="708" type="curve"/>
      <point x="487" y="708"/>
      <point x="545" y="708"/>
      <point x="487" y="708" type="curve"/>
      <point x="487" y="14" type="line"/>
      <point x="545" y="14"/>
      <point x="487" y="14"/>
    </contour>
  </outline>
</glyph>
<glyph name="Q" format="1">
  <advance width="590"/>
  <unicode hex="0051"/>
  <outline>
    <contour>
      <point x="279" y="11" type="curve"/>
      <point x="343" y="-148"/>
      <point x="428" y="-232"/>
      <point x="587" y="-232" type="curve"/>
      <point x="587" y="-182"/>
      <point x="587" y="-232"/>
      <point x="587" y="-182" type="curve"/>
      <point x="451" y="-182"/>
      <point x="384" y="-104"/>
      <point x="328" y="34" type="curve"/>
      <point x="279" y="11"/>
      <point x="328" y="34"/>
    </contour>
    <contour>
      <point x="119" y="360" type="curve"/>
      <point x="119" y="529"/>
      <point x="149" y="676"/>
      <point x="295" y="676" type="curve"/>
      <point x="441" y="676"/>
      <point x="475" y="531"/>
      <point x="475" y="362" type="curve"/>
      <point x="475" y="193"/>
      <point x="446" y="45"/>
      <point x="300" y="45" type="curve"/>
      <point x="152" y="45"/>
      <point x="119" y="190"/>
      <point x="119" y="360" type="curve"/>
      <point x="61" y="360"/>
      <point x="119" y="360"/>
      <point x="61" y="360" type="curve"/>
      <point x="61" y="159"/>
      <point x="119" y="-5"/>
      <point x="297" y="-5" type="curve"/>
      <point x="477" y="-5"/>
      <point x="533" y="162"/>
      <point x="533" y="365" type="curve"/>
      <point x="533" y="565"/>
      <point x="477" y="728"/>
      <point x="300" y="728" type="curve"/>
      <point x="121" y="728"/>
      <point x="61" y="562"/>
      <point x="61" y="360" type="curve"/>
      <point x="119" y="360"/>
      <point x="61" y="360"/>
    </contour>
  </outline>
</glyph>
<glyph name="R" format="1">
  <advance width="611"/>
  <unicode hex="0052"/>
  <outline>
    <contour>
      <point x="258" y="812" type="move" name="top"/>
    </contour>
    <contour>
      <point x="335" y="-58" type="move" name="bottom"/>
    </contour>
    <contour>
      <point x="486" y="0" type="curve"/>
      <point x="526" y="0"/>
      <point x="552" y="0"/>
      <point x="593" y="0" type="curve"/>
      <point x="593" y="47"/>
      <point x="593" y="0"/>
      <point x="593" y="47" type="curve"/>
      <point x="471" y="47"/>
      <point x="607" y="47"/>
      <point x="486" y="47" type="curve"/>
      <point x="486" y="0"/>
      <point x="486" y="47"/>
    </contour>
    <contour>
      <point x="164" y="722" type="curve"/>
      <point x="119" y="722"/>
      <point x="90" y="722"/>
      <point x="46" y="722" type="curve"/>
      <point x="46" y="675"/>
      <point x="46" y="722"/>
      <point x="46" y="675" type="curve"/>
      <point x="178" y="675"/>
      <point x="31" y="675"/>
      <point x="164" y="675" type="curve"/>
      <point x="164" y="722"/>
      <point x="164" y="675"/>
    </contour>
    <contour>
      <point x="164" y="47" type="curve"/>
      <point x="31" y="47"/>
      <point x="178" y="47"/>
      <point x="46" y="47" type="curve"/>
      <point x="46" y="0"/>
      <point x="46" y="47"/>
      <point x="46" y="0" type="curve"/>
      <point x="90" y="0"/>
      <point x="119" y="0"/>
      <point x="164" y="0" type="curve"/>
      <point x="164" y="47"/>
      <point x="164" y="0"/>
    </contour>
    <contour>
      <point x="164" y="0" type="curve"/>
      <point x="208" y="0"/>
      <point x="150" y="0"/>
      <point x="282" y="0" type="curve"/>
      <point x="282" y="47"/>
      <point x="282" y="0"/>
      <point x="282" y="47" type="curve"/>
      <point x="150" y="47"/>
      <point x="297" y="47"/>
      <point x="164" y="47" type="curve"/>
      <point x="164" y="0"/>
      <point x="164" y="47"/>
    </contour>
    <contour>
      <point x="281" y="354" type="curve"/>
      <point x="342" y="236"/>
      <point x="403" y="118"/>
      <point x="464" y="0" type="curve"/>
      <point x="527" y="0"/>
      <point x="462" y="0"/>
      <point x="525" y="0" type="curve"/>
      <point x="465" y="118"/>
      <point x="404" y="236"/>
      <point x="342" y="354" type="curve"/>
      <point x="280" y="354"/>
      <point x="344" y="354"/>
    </contour>
    <contour>
      <point x="194" y="0" type="curve"/>
      <point x="194" y="241"/>
      <point x="194" y="481"/>
      <point x="194" y="722" type="curve"/>
      <point x="136" y="722"/>
      <point x="194" y="722"/>
      <point x="136" y="722" type="curve"/>
      <point x="136" y="481"/>
      <point x="136" y="241"/>
      <point x="136" y="0" type="curve"/>
      <point x="194" y="0"/>
      <point x="136" y="0"/>
    </contour>
    <contour>
      <point x="167" y="328" type="curve"/>
      <point x="208" y="328"/>
      <point x="249" y="328"/>
      <point x="291" y="328" type="curve"/>
      <point x="406" y="328"/>
      <point x="465" y="408"/>
      <point x="465" y="532" type="curve"/>
      <point x="465" y="649"/>
      <point x="404" y="722"/>
      <point x="290" y="722" type="curve"/>
      <point x="247" y="722"/>
      <point x="210" y="722"/>
      <point x="167" y="722" type="curve"/>
      <point x="167" y="675"/>
      <point x="167" y="722"/>
      <point x="167" y="675" type="curve"/>
      <point x="207" y="675"/>
      <point x="240" y="675"/>
      <point x="280" y="675" type="curve"/>
      <point x="365" y="675"/>
      <point x="407" y="617"/>
      <point x="407" y="527" type="curve"/>
      <point x="407" y="439"/>
      <point x="373" y="375"/>
      <point x="292" y="375" type="curve"/>
      <point x="250" y="375"/>
      <point x="208" y="375"/>
      <point x="167" y="375" type="curve"/>
      <point x="167" y="328"/>
      <point x="167" y="375"/>
    </contour>
  </outline>
</glyph>
<glyph name="V" format="1">
  <advance width="616"/>
  <unicode hex="0056"/>
  <outline>
    <contour>
      <point x="485" y="722" type="curve"/>
      <point x="442" y="722"/>
      <point x="405" y="722"/>
      <point x="361" y="722" type="curve"/>
      <point x="361" y="675"/>
      <point x="361" y="722"/>
      <point x="361" y="675" type="curve"/>
      <point x="491" y="675"/>
      <point x="355" y="675"/>
      <point x="485" y="675" type="curve"/>
      <point x="485" y="722"/>
      <point x="485" y="675"/>
    </contour>
    <contour>
      <point x="101" y="722" type="curve"/>
      <point x="61" y="722"/>
      <point x="27" y="722"/>
      <point x="-13" y="722" type="curve"/>
      <point x="-13" y="675"/>
      <point x="-13" y="722"/>
      <point x="-13" y="675" type="curve"/>
      <point x="107" y="675"/>
      <point x="-19" y="675"/>
      <point x="101" y="675" type="curve"/>
      <point x="101" y="722"/>
      <point x="101" y="675"/>
    </contour>
    <contour>
      <point x="488" y="675" type="curve"/>
      <point x="608" y="675"/>
      <point x="481" y="675"/>
      <point x="602" y="675" type="curve"/>
      <point x="602" y="722"/>
      <point x="602" y="675"/>
      <point x="602" y="722" type="curve"/>
      <point x="562" y="722"/>
      <point x="527" y="722"/>
      <point x="488" y="722" type="curve"/>
      <point x="488" y="675"/>
      <point x="488" y="722"/>
    </contour>
    <contour>
      <point x="104" y="675" type="curve"/>
      <point x="234" y="675"/>
      <point x="97" y="675"/>
      <point x="228" y="675" type="curve"/>
      <point x="228" y="722"/>
      <point x="228" y="675"/>
      <point x="228" y="722" type="curve"/>
      <point x="185" y="722"/>
      <point x="147" y="722"/>
      <point x="104" y="722" type="curve"/>
      <point x="104" y="675"/>
      <point x="104" y="722"/>
    </contour>
    <contour>
      <point x="467" y="722" type="curve"/>
      <point x="402" y="481"/>
      <point x="337" y="241"/>
      <point x="272" y="0" type="curve"/>
      <point x="333" y="0"/>
      <point x="268" y="0"/>
      <point x="329" y="0" type="curve"/>
      <point x="395" y="241"/>
      <point x="460" y="481"/>
      <point x="527" y="722" type="curve"/>
      <point x="467" y="722"/>
      <point x="527" y="722"/>
    </contour>
    <contour>
      <point x="62" y="722" type="curve"/>
      <point x="129" y="481"/>
      <point x="196" y="241"/>
      <point x="264" y="0" type="curve"/>
      <point x="324" y="0"/>
      <point x="260" y="0"/>
      <point x="321" y="0" type="curve"/>
      <point x="255" y="241"/>
      <point x="189" y="481"/>
      <point x="123" y="722" type="curve"/>
      <point x="62" y="722"/>
      <point x="123" y="722"/>
    </contour>
  </outline>
</glyph>
<glyph name="W" format="1">
  <advance width="762"/>
  <unicode hex="0057"/>
  <outline>
    <contour>
      <point x="114" y="675" type="curve"/>
      <point x="231" y="675"/>
      <point x="107" y="675"/>
      <point x="225" y="675" type="curve"/>
      <point x="225" y="722"/>
      <point x="225" y="675"/>
      <point x="225" y="722" type="curve"/>
      <point x="186" y="722"/>
      <point x="152" y="722"/>
      <point x="114" y="722" type="curve"/>
      <point x="114" y="675"/>
      <point x="114" y="722"/>
    </contour>
    <contour>
      <point x="111" y="722" type="curve"/>
      <point x="71" y="722"/>
      <point x="37" y="722"/>
      <point x="-3" y="722" type="curve"/>
      <point x="-3" y="675"/>
      <point x="-3" y="722"/>
      <point x="-3" y="675" type="curve"/>
      <point x="117" y="675"/>
      <point x="-9" y="675"/>
      <point x="111" y="675" type="curve"/>
      <point x="111" y="722"/>
      <point x="111" y="675"/>
    </contour>
    <contour>
      <point x="636" y="722" type="curve"/>
      <point x="597" y="722"/>
      <point x="564" y="722"/>
      <point x="525" y="722" type="curve"/>
      <point x="525" y="675"/>
      <point x="525" y="722"/>
      <point x="525" y="675" type="curve"/>
      <point x="642" y="675"/>
      <point x="519" y="675"/>
      <point x="636" y="675" type="curve"/>
      <point x="636" y="722"/>
      <point x="636" y="675"/>
    </contour>
    <contour>
      <point x="637" y="675" type="curve"/>
      <point x="757" y="675"/>
      <point x="631" y="675"/>
      <point x="750" y="675" type="curve"/>
      <point x="750" y="722"/>
      <point x="750" y="675"/>
      <point x="750" y="722" type="curve"/>
      <point x="711" y="722"/>
      <point x="677" y="722"/>
      <point x="637" y="722" type="curve"/>
      <point x="637" y="675"/>
      <point x="637" y="722"/>
    </contour>
    <contour>
      <point x="257" y="0" type="curve"/>
      <point x="305" y="241"/>
      <point x="352" y="481"/>
      <point x="400" y="722" type="curve"/>
      <point x="350" y="722"/>
      <point x="401" y="722"/>
      <point x="350" y="722" type="curve"/>
      <point x="305" y="481"/>
      <point x="259" y="242"/>
      <point x="213" y="0" type="curve"/>
      <point x="259" y="0"/>
      <point x="211" y="0"/>
    </contour>
    <contour>
      <point x="356" y="722" type="curve"/>
      <point x="400" y="481"/>
      <point x="442" y="241"/>
      <point x="486" y="0" type="curve"/>
      <point x="531" y="0"/>
      <point x="482" y="0"/>
      <point x="528" y="0" type="curve"/>
      <point x="487" y="242"/>
      <point x="446" y="481"/>
      <point x="406" y="722" type="curve"/>
      <point x="355" y="722"/>
      <point x="406" y="722"/>
    </contour>
    <contour>
      <point x="76" y="722" type="curve"/>
      <point x="119" y="481"/>
      <point x="163" y="241"/>
      <point x="207" y="0" type="curve"/>
      <point x="253" y="0"/>
      <point x="208" y="0"/>
      <point x="254" y="0" type="curve"/>
      <point x="212" y="241"/>
      <point x="170" y="481"/>
      <point x="128" y="722" type="curve"/>
      <point x="76" y="722"/>
      <point x="128" y="722"/>
    </contour>
    <contour>
      <point x="619" y="722" type="curve"/>
      <point x="576" y="481"/>
      <point x="532" y="241"/>
      <point x="489" y="0" type="curve"/>
      <point x="535" y="0"/>
      <point x="490" y="0"/>
      <point x="536" y="0" type="curve"/>
      <point x="581" y="241"/>
      <point x="626" y="481"/>
      <point x="672" y="722" type="curve"/>
      <point x="619" y="722"/>
      <point x="672" y="722"/>
    </contour>
  </outline>
</glyph>
<glyph name="X" format="1">
  <advance width="581"/>
  <unicode hex="0058"/>
  <outline>
    <contour>
      <point x="122" y="0" type="curve"/>
      <point x="163" y="0"/>
      <point x="116" y="0"/>
      <point x="238" y="0" type="curve"/>
      <point x="238" y="47"/>
      <point x="238" y="0"/>
      <point x="238" y="47" type="curve"/>
      <point x="116" y="47"/>
      <point x="245" y="47"/>
      <point x="122" y="47" type="curve"/>
      <point x="122" y="0"/>
      <point x="122" y="47"/>
    </contour>
    <contour>
      <point x="117" y="47" type="curve"/>
      <point x="-3" y="47"/>
      <point x="123" y="47"/>
      <point x="3" y="47" type="curve"/>
      <point x="3" y="0"/>
      <point x="3" y="47"/>
      <point x="3" y="0" type="curve"/>
      <point x="43" y="0"/>
      <point x="77" y="0"/>
      <point x="117" y="0" type="curve"/>
      <point x="117" y="47"/>
      <point x="117" y="0"/>
    </contour>
    <contour>
      <point x="461" y="0" type="curve"/>
      <point x="501" y="0"/>
      <point x="535" y="0"/>
      <point x="575" y="0" type="curve"/>
      <point x="575" y="47"/>
      <point x="575" y="0"/>
      <point x="575" y="47" type="curve"/>
      <point x="455" y="47"/>
      <point x="581" y="47"/>
      <point x="461" y="47" type="curve"/>
      <point x="461" y="0"/>
      <point x="461" y="47"/>
    </contour>
    <contour>
      <point x="456" y="47" type="curve"/>
      <point x="333" y="47"/>
      <point x="462" y="47"/>
      <point x="339" y="47" type="curve"/>
      <point x="339" y="0"/>
      <point x="339" y="47"/>
      <point x="339" y="0" type="curve"/>
      <point x="380" y="0"/>
      <point x="415" y="0"/>
      <point x="456" y="0" type="curve"/>
      <point x="456" y="47"/>
      <point x="456" y="0"/>
    </contour>
    <contour>
      <point x="444" y="675" type="curve"/>
      <point x="564" y="675"/>
      <point x="438" y="675"/>
      <point x="558" y="675" type="curve"/>
      <point x="558" y="722"/>
      <point x="558" y="675"/>
      <point x="558" y="722" type="curve"/>
      <point x="518" y="722"/>
      <point x="484" y="722"/>
      <point x="444" y="722" type="curve"/>
      <point x="444" y="675"/>
      <point x="444" y="722"/>
    </contour>
    <contour>
      <point x="449" y="722" type="curve"/>
      <point x="407" y="722"/>
      <point x="371" y="722"/>
      <point x="329" y="722" type="curve"/>
      <point x="329" y="675"/>
      <point x="329" y="722"/>
      <point x="329" y="675" type="curve"/>
      <point x="455" y="675"/>
      <point x="323" y="675"/>
      <point x="449" y="675" type="curve"/>
      <point x="449" y="722"/>
      <point x="449" y="675"/>
    </contour>
    <contour>
      <point x="136" y="722" type="curve"/>
      <point x="97" y="722"/>
      <point x="63" y="722"/>
      <point x="23" y="722" type="curve"/>
      <point x="23" y="675"/>
      <point x="23" y="722"/>
      <point x="23" y="675" type="curve"/>
      <point x="143" y="675"/>
      <point x="17" y="675"/>
      <point x="136" y="675" type="curve"/>
      <point x="136" y="722"/>
      <point x="136" y="675"/>
    </contour>
    <contour>
      <point x="132" y="675" type="curve"/>
      <point x="258" y="675"/>
      <point x="126" y="675"/>
      <point x="251" y="675" type="curve"/>
      <point x="251" y="722"/>
      <point x="251" y="675"/>
      <point x="251" y="722" type="curve"/>
      <point x="210" y="722"/>
      <point x="174" y="722"/>
      <point x="132" y="722" type="curve"/>
      <point x="132" y="675"/>
      <point x="132" y="722"/>
    </contour>
    <contour>
      <point x="430" y="722" type="curve"/>
      <point x="311" y="481"/>
      <point x="192" y="241"/>
      <point x="73" y="0" type="curve"/>
      <point x="135" y="0"/>
      <point x="73" y="0"/>
      <point x="135" y="0" type="curve"/>
      <point x="253" y="241"/>
      <point x="370" y="481"/>
      <point x="489" y="722" type="curve"/>
      <point x="430" y="722"/>
      <point x="489" y="722"/>
    </contour>
    <contour>
      <point x="94" y="722" type="curve"/>
      <point x="211" y="481"/>
      <point x="328" y="241"/>
      <point x="445" y="0" type="curve"/>
      <point x="506" y="0"/>
      <point x="445" y="0"/>
      <point x="506" y="0" type="curve"/>
      <point x="389" y="241"/>
      <point x="271" y="481"/>
      <point x="153" y="722" type="curve"/>
      <point x="94" y="722"/>
      <point x="153" y="722"/>
    </contour>
  </outline>
</glyph>
<glyph name="Y" format="1">
  <advance width="558"/>
  <unicode hex="0059"/>
  <outline>
    <contour>
      <point x="269" y="812" type="move" name="top"/>
    </contour>
    <contour>
      <point x="266" y="47" type="curve"/>
      <point x="140" y="47"/>
      <point x="272" y="47"/>
      <point x="146" y="47" type="curve"/>
      <point x="146" y="0"/>
      <point x="146" y="47"/>
      <point x="146" y="0" type="curve"/>
      <point x="188" y="0"/>
      <point x="224" y="0"/>
      <point x="266" y="0" type="curve"/>
      <point x="266" y="47"/>
      <point x="266" y="0"/>
    </contour>
    <contour>
      <point x="266" y="0" type="curve"/>
      <point x="307" y="0"/>
      <point x="343" y="0"/>
      <point x="385" y="0" type="curve"/>
      <point x="385" y="47"/>
      <point x="385" y="0"/>
      <point x="385" y="47" type="curve"/>
      <point x="259" y="47"/>
      <point x="391" y="47"/>
      <point x="266" y="47" type="curve"/>
      <point x="266" y="0"/>
      <point x="266" y="47"/>
    </contour>
    <contour>
      <point x="428" y="722" type="curve"/>
      <point x="388" y="722"/>
      <point x="353" y="722"/>
      <point x="312" y="722" type="curve"/>
      <point x="312" y="675"/>
      <point x="312" y="722"/>
      <point x="312" y="675" type="curve"/>
      <point x="435" y="675"/>
      <point x="306" y="675"/>
      <point x="428" y="675" type="curve"/>
      <point x="428" y="722"/>
      <point x="428" y="675"/>
    </contour>
    <contour>
      <point x="106" y="722" type="curve"/>
      <point x="68" y="722"/>
      <point x="36" y="722"/>
      <point x="-2" y="722" type="curve"/>
      <point x="-2" y="675"/>
      <point x="-2" y="722"/>
      <point x="-2" y="675" type="curve"/>
      <point x="113" y="675"/>
      <point x="-9" y="675"/>
      <point x="106" y="675" type="curve"/>
      <point x="106" y="722"/>
      <point x="106" y="675"/>
    </contour>
    <contour>
      <point x="112" y="675" type="curve"/>
      <point x="235" y="675"/>
      <point x="106" y="675"/>
      <point x="228" y="675" type="curve"/>
      <point x="228" y="722"/>
      <point x="228" y="675"/>
      <point x="228" y="722" type="curve"/>
      <point x="188" y="722"/>
      <point x="153" y="722"/>
      <point x="112" y="722" type="curve"/>
      <point x="112" y="675"/>
      <point x="112" y="722"/>
    </contour>
    <contour>
      <point x="434" y="675" type="curve"/>
      <point x="551" y="675"/>
      <point x="427" y="675"/>
      <point x="544" y="675" type="curve"/>
      <point x="544" y="722"/>
      <point x="544" y="675"/>
      <point x="544" y="722" type="curve"/>
      <point x="506" y="722"/>
      <point x="473" y="722"/>
      <point x="434" y="722" type="curve"/>
      <point x="434" y="675"/>
      <point x="434" y="722"/>
    </contour>
    <contour>
      <point x="67" y="722" type="curve"/>
      <point x="124" y="594"/>
      <point x="179" y="466"/>
      <point x="234" y="337" type="curve"/>
      <point x="294" y="337"/>
      <point x="228" y="337"/>
      <point x="288" y="337" type="curve"/>
      <point x="234" y="466"/>
      <point x="182" y="593"/>
      <point x="128" y="722" type="curve"/>
      <point x="67" y="722"/>
      <point x="128" y="722"/>
    </contour>
    <contour>
      <point x="412" y="722" type="curve"/>
      <point x="355" y="593"/>
      <point x="299" y="466"/>
      <point x="241" y="337" type="curve"/>
      <point x="300" y="337"/>
      <point x="237" y="337"/>
      <point x="297" y="337" type="curve"/>
      <point x="356" y="466"/>
      <point x="414" y="594"/>
      <point x="473" y="722" type="curve"/>
      <point x="412" y="722"/>
      <point x="473" y="722"/>
    </contour>
    <contour>
      <point x="297" y="0" type="curve"/>
      <point x="297" y="115"/>
      <point x="297" y="228"/>
      <point x="297" y="343" type="curve"/>
      <point x="234" y="343"/>
      <point x="297" y="343"/>
      <point x="234" y="343" type="curve"/>
      <point x="234" y="228"/>
      <point x="234" y="115"/>
      <point x="234" y="0" type="curve"/>
      <point x="297" y="0"/>
      <point x="234" y="0"/>
    </contour>
  </outline>
</glyph>
<glyph name="bracketleft" format="1">
  <advance width="250"/>
  <unicode hex="005B"/>
  <outline>
    <contour>
      <point x="210" y="770" type="curve"/>
      <point x="174" y="770"/>
      <point x="138" y="770"/>
      <point x="101" y="770" type="curve"/>
      <point x="95" y="770"/>
      <point x="83" y="770"/>
      <point x="77" y="770" type="curve"/>
      <point x="77" y="764"/>
      <point x="77" y="757"/>
      <point x="77" y="751" type="curve"/>
      <point x="77" y="466"/>
      <point x="77" y="182"/>
      <point x="77" y="-103" type="curve"/>
      <point x="77" y="-109"/>
      <point x="77" y="-113"/>
      <point x="77" y="-121" type="curve"/>
      <point x="83" y="-121"/>
      <point x="94" y="-121"/>
      <point x="100" y="-121" type="curve"/>
      <point x="137" y="-121"/>
      <point x="173" y="-121"/>
      <point x="210" y="-121" type="curve"/>
      <point x="210" y="-69"/>
      <point x="210" y="-121"/>
      <point x="210" y="-69" type="curve"/>
      <point x="173" y="-69"/>
      <point x="137" y="-69"/>
      <point x="100" y="-69" type="curve"/>
      <point x="135" y="-69"/>
      <point x="100" y="-69"/>
      <point x="135" y="-69" type="curve"/>
      <point x="135" y="-103"/>
      <point x="135" y="-69"/>
      <point x="135" y="-103" type="curve"/>
      <point x="135" y="182"/>
      <point x="135" y="466"/>
      <point x="135" y="751" type="curve"/>
      <point x="135" y="719"/>
      <point x="135" y="751"/>
      <point x="135" y="719" type="curve"/>
      <point x="101" y="719"/>
      <point x="135" y="719"/>
      <point x="101" y="719" type="curve"/>
      <point x="138" y="719"/>
      <point x="174" y="719"/>
      <point x="210" y="719" type="curve"/>
      <point x="210" y="770"/>
      <point x="210" y="719"/>
    </contour>
  </outline>
</glyph>
<glyph name="backslash" format="1">
  <advance width="413"/>
  <unicode hex="005C"/>
  <outline>
    <contour>
      <point x="377" y="-68" type="curve"/>
      <point x="284" y="236"/>
      <point x="190" y="540"/>
      <point x="97" y="844" type="curve"/>
      <point x="36" y="844"/>
      <point x="97" y="844"/>
      <point x="36" y="844" type="curve"/>
      <point x="130" y="540"/>
      <point x="223" y="236"/>
      <point x="317" y="-68" type="curve"/>
      <point x="377" y="-68"/>
      <point x="317" y="-68"/>
    </contour>
  </outline>
</glyph>
<glyph name="asciicircum" format="1">
  <advance width="437"/>
  <unicode hex="005E"/>
  <outline>
    <contour>
      <point x="122" y="462" type="curve"/>
      <point x="164" y="573"/>
      <point x="206" y="683"/>
      <point x="247" y="794" type="curve"/>
      <point x="189" y="794"/>
      <point x="247" y="794"/>
      <point x="189" y="794" type="curve"/>
      <point x="147" y="683"/>
      <point x="106" y="573"/>
      <point x="65" y="462" type="curve"/>
      <point x="122" y="462"/>
      <point x="65" y="462"/>
    </contour>
    <contour>
      <point x="373" y="462" type="curve"/>
      <point x="332" y="570"/>
      <point x="288" y="686"/>
      <point x="247" y="794" type="curve"/>
      <point x="189" y="794"/>
      <point x="247" y="794"/>
      <point x="189" y="794" type="curve"/>
      <point x="230" y="686"/>
      <point x="274" y="570"/>
      <point x="315" y="462" type="curve"/>
      <point x="373" y="462"/>
      <point x="315" y="462"/>
    </contour>
  </outline>
</glyph>
<glyph name="underscore" format="1">
  <advance width="487"/>
  <unicode hex="005F"/>
  <outline>
    <contour>
      <point x="-1" y="-202" type="curve"/>
      <point x="162" y="-202"/>
      <point x="325" y="-202"/>
      <point x="487" y="-202" type="curve"/>
      <point x="487" y="-155"/>
      <point x="487" y="-202"/>
      <point x="487" y="-155" type="curve"/>
      <point x="325" y="-155"/>
      <point x="162" y="-155"/>
      <point x="-1" y="-155" type="curve"/>
      <point x="-1" y="-202"/>
      <point x="-1" y="-155"/>
    </contour>
  </outline>
</glyph>
<glyph name="grave" format="1">
  <advance width="340"/>
  <unicode hex="0060"/>
  <outline>
    <contour>
      <point x="169" y="590" type="move" name="_top"/>
    </contour>
    <contour>
      <point x="198" y="590" type="line"/>
      <point x="127" y="756" type="line"/>
      <point x="56" y="756" type="line"/>
      <point x="143" y="590" type="line"/>
    </contour>
  </outline>
</glyph>
<glyph name="b" format="1">
  <advance width="519"/>
  <unicode hex="0062"/>
  <outline>
    <contour>
      <point x="133" y="800" type="curve"/>
      <point x="91" y="800"/>
      <point x="56" y="800"/>
      <point x="14" y="800" type="curve"/>
      <point x="14" y="753"/>
      <point x="14" y="800"/>
      <point x="14" y="753" type="curve"/>
      <point x="140" y="753"/>
      <point x="8" y="753"/>
      <point x="133" y="753" type="curve"/>
      <point x="133" y="800"/>
      <point x="133" y="753"/>
    </contour>
    <contour>
      <point x="147" y="389" type="curve"/>
      <point x="165" y="431"/>
      <point x="213" y="490"/>
      <point x="279" y="490" type="curve"/>
      <point x="376" y="490"/>
      <point x="405" y="384"/>
      <point x="405" y="267" type="curve"/>
      <point x="405" y="154"/>
      <point x="371" y="43"/>
      <point x="280" y="43" type="curve"/>
      <point x="224" y="43"/>
      <point x="178" y="87"/>
      <point x="151" y="144" type="curve"/>
      <point x="118" y="121"/>
      <point x="153" y="141"/>
      <point x="121" y="117" type="curve"/>
      <point x="155" y="48"/>
      <point x="206" y="-5"/>
      <point x="284" y="-5" type="curve"/>
      <point x="413" y="-5"/>
      <point x="463" y="119"/>
      <point x="463" y="269" type="curve"/>
      <point x="463" y="415"/>
      <point x="415" y="538"/>
      <point x="285" y="538" type="curve"/>
      <point x="201" y="538"/>
      <point x="145" y="475"/>
      <point x="122" y="420" type="curve"/>
      <point x="147" y="394"/>
      <point x="122" y="415"/>
    </contour>
    <contour>
      <point x="160" y="0" type="curve"/>
      <point x="160" y="267"/>
      <point x="160" y="533"/>
      <point x="160" y="800" type="curve"/>
      <point x="103" y="800"/>
      <point x="160" y="800"/>
      <point x="103" y="800" type="curve"/>
      <point x="103" y="533"/>
      <point x="103" y="267"/>
      <point x="103" y="0" type="curve"/>
      <point x="160" y="0"/>
      <point x="103" y="0"/>
    </contour>
    <contour>
      <point x="133" y="47" type="curve"/>
      <point x="8" y="47"/>
      <point x="140" y="47"/>
      <point x="14" y="47" type="curve"/>
      <point x="14" y="0"/>
      <point x="14" y="47"/>
      <point x="14" y="0" type="curve"/>
      <point x="56" y="0"/>
      <point x="92" y="0"/>
      <point x="133" y="0" type="curve"/>
      <point x="133" y="47"/>
      <point x="133" y="0"/>
    </contour>
  </outline>
</glyph>
<glyph name="l" format="1">
  <advance width="274"/>
  <unicode hex="006C"/>
  <outline>
    <contour>
      <point x="137" y="886" type="move" name="top"/>
    </contour>
    <contour>
      <point x="153" y="-57" type="move" name="bottom"/>
    </contour>
    <contour>
      <point x="137" y="47" type="curve"/>
      <point x="11" y="47"/>
      <point x="137" y="47"/>
      <point x="11" y="47" type="curve"/>
      <point x="11" y="0"/>
      <point x="11" y="47"/>
      <point x="11" y="0" type="curve"/>
      <point x="54" y="0"/>
      <point x="95" y="0"/>
      <point x="137" y="0" type="curve"/>
      <point x="137" y="47"/>
      <point x="137" y="0"/>
    </contour>
    <contour>
      <point x="139" y="800" type="curve"/>
      <point x="96" y="800"/>
      <point x="55" y="800"/>
      <point x="12" y="800" type="curve"/>
      <point x="12" y="753"/>
      <point x="12" y="800"/>
      <point x="12" y="753" type="curve"/>
      <point x="139" y="753"/>
      <point x="12" y="753"/>
      <point x="139" y="753" type="curve"/>
      <point x="139" y="800"/>
      <point x="139" y="753"/>
    </contour>
    <contour>
      <point x="137" y="0" type="curve"/>
      <point x="180" y="0"/>
      <point x="221" y="0"/>
      <point x="264" y="0" type="curve"/>
      <point x="264" y="47"/>
      <point x="264" y="0"/>
      <point x="264" y="47" type="curve"/>
      <point x="137" y="47"/>
      <point x="264" y="47"/>
      <point x="137" y="47" type="curve"/>
      <point x="137" y="0"/>
      <point x="137" y="47"/>
    </contour>
    <contour>
      <point x="165" y="0" type="curve"/>
      <point x="165" y="267"/>
      <point x="165" y="533"/>
      <point x="165" y="800" type="curve"/>
      <point x="108" y="800"/>
      <point x="165" y="800"/>
      <point x="108" y="800" type="curve"/>
      <point x="108" y="533"/>
      <point x="108" y="267"/>
      <point x="108" y="0" type="curve"/>
      <point x="165" y="0"/>
      <point x="108" y="0"/>
    </contour>
  </outline>
</glyph>
<glyph name="m" format="1">
  <advance width="765"/>
  <unicode hex="006D"/>
  <outline>
    <contour>
      <point x="395" y="0" type="curve"/>
      <point x="498" y="0"/>
      <point x="396" y="0"/>
      <point x="499" y="0" type="curve"/>
      <point x="499" y="47"/>
      <point x="499" y="0"/>
      <point x="499" y="47" type="curve"/>
      <point x="396" y="47"/>
      <point x="498" y="47"/>
      <point x="395" y="47" type="curve"/>
      <point x="395" y="0"/>
      <point x="395" y="47"/>
    </contour>
    <contour>
      <point x="633" y="0" type="curve"/>
      <point x="674" y="0"/>
      <point x="710" y="0"/>
      <point x="752" y="0" type="curve"/>
      <point x="752" y="47"/>
      <point x="752" y="0"/>
      <point x="752" y="47" type="curve"/>
      <point x="626" y="47"/>
      <point x="758" y="47"/>
      <point x="633" y="47" type="curve"/>
      <point x="633" y="0"/>
      <point x="633" y="47"/>
    </contour>
    <contour>
      <point x="158" y="47" type="curve"/>
      <point x="32" y="47"/>
      <point x="164" y="47"/>
      <point x="39" y="47" type="curve"/>
      <point x="38" y="0"/>
      <point x="39" y="47"/>
      <point x="38" y="0" type="curve"/>
      <point x="80" y="0"/>
      <point x="116" y="0"/>
      <point x="158" y="0" type="curve"/>
      <point x="158" y="47"/>
      <point x="158" y="0"/>
    </contour>
    <contour>
      <point x="158" y="0" type="curve"/>
      <point x="195" y="0"/>
      <point x="144" y="0"/>
      <point x="255" y="0" type="curve"/>
      <point x="255" y="47"/>
      <point x="255" y="0"/>
      <point x="255" y="47" type="curve"/>
      <point x="144" y="47"/>
      <point x="269" y="47"/>
      <point x="158" y="47" type="curve"/>
      <point x="158" y="0"/>
      <point x="158" y="47"/>
    </contour>
    <contour>
      <point x="158" y="533" type="curve"/>
      <point x="116" y="533"/>
      <point x="80" y="533"/>
      <point x="39" y="533" type="curve"/>
      <point x="38" y="486"/>
      <point x="39" y="533"/>
      <point x="38" y="486" type="curve"/>
      <point x="164" y="486"/>
      <point x="32" y="486"/>
      <point x="158" y="486" type="curve"/>
      <point x="158" y="533"/>
      <point x="158" y="486"/>
    </contour>
    <contour>
      <point x="410" y="331" type="curve"/>
      <point x="431" y="408"/>
      <point x="460" y="490"/>
      <point x="526" y="490" type="curve"/>
      <point x="605" y="490"/>
      <point x="603" y="423"/>
      <point x="603" y="332" type="curve"/>
      <point x="603" y="221"/>
      <point x="603" y="111"/>
      <point x="603" y="0" type="curve"/>
      <point x="661" y="0"/>
      <point x="603" y="0"/>
      <point x="661" y="0" type="curve"/>
      <point x="661" y="112"/>
      <point x="661" y="224"/>
      <point x="661" y="337" type="curve"/>
      <point x="661" y="456"/>
      <point x="651" y="538"/>
      <point x="544" y="538" type="curve"/>
      <point x="455" y="538"/>
      <point x="411" y="454"/>
      <point x="392" y="357" type="curve"/>
      <point x="412" y="331"/>
      <point x="390" y="356"/>
    </contour>
    <contour>
      <point x="174" y="331" type="curve"/>
      <point x="191" y="406"/>
      <point x="220" y="491"/>
      <point x="289" y="491" type="curve"/>
      <point x="367" y="491"/>
      <point x="366" y="423"/>
      <point x="366" y="332" type="curve"/>
      <point x="366" y="221"/>
      <point x="366" y="111"/>
      <point x="366" y="0" type="curve"/>
      <point x="424" y="0"/>
      <point x="366" y="0"/>
      <point x="424" y="0" type="curve"/>
      <point x="424" y="112"/>
      <point x="424" y="224"/>
      <point x="424" y="337" type="curve"/>
      <point x="424" y="456"/>
      <point x="414" y="539"/>
      <point x="307" y="539" type="curve"/>
      <point x="216" y="539"/>
      <point x="175" y="455"/>
      <point x="155" y="357" type="curve"/>
      <point x="175" y="331"/>
      <point x="153" y="356"/>
    </contour>
    <contour>
      <point x="186" y="0" type="curve"/>
      <point x="186" y="178"/>
      <point x="186" y="355"/>
      <point x="186" y="533" type="curve"/>
      <point x="129" y="533"/>
      <point x="186" y="533"/>
      <point x="129" y="533" type="curve"/>
      <point x="129" y="355"/>
      <point x="129" y="178"/>
      <point x="129" y="0" type="curve"/>
      <point x="186" y="0"/>
      <point x="129" y="0"/>
    </contour>
  </outline>
</glyph>
<glyph name="p" format="1">
  <advance width="517"/>
  <unicode hex="0070"/>
  <outline>
    <contour>
      <point x="125" y="-253" type="curve"/>
      <point x="0" y="-253"/>
      <point x="132" y="-253"/>
      <point x="6" y="-253" type="curve"/>
      <point x="6" y="-300"/>
      <point x="6" y="-253"/>
      <point x="6" y="-300" type="curve"/>
      <point x="48" y="-300"/>
      <point x="83" y="-300"/>
      <point x="125" y="-300" type="curve"/>
      <point x="125" y="-253"/>
      <point x="125" y="-300"/>
    </contour>
    <contour>
      <point x="125" y="-300" type="curve"/>
      <point x="165" y="-300"/>
      <point x="198" y="-300"/>
      <point x="237" y="-300" type="curve"/>
      <point x="237" y="-253"/>
      <point x="237" y="-300"/>
      <point x="237" y="-253" type="curve"/>
      <point x="119" y="-253"/>
      <point x="244" y="-253"/>
      <point x="125" y="-253" type="curve"/>
      <point x="125" y="-300"/>
      <point x="125" y="-253"/>
    </contour>
    <contour>
      <point x="126" y="533" type="curve"/>
      <point x="84" y="533"/>
      <point x="49" y="533"/>
      <point x="7" y="533" type="curve"/>
      <point x="7" y="486"/>
      <point x="7" y="533"/>
      <point x="7" y="486" type="curve"/>
      <point x="133" y="486"/>
      <point x="1" y="486"/>
      <point x="126" y="486" type="curve"/>
      <point x="126" y="533"/>
      <point x="126" y="486"/>
    </contour>
    <contour>
      <point x="141" y="374" type="curve"/>
      <point x="158" y="426"/>
      <point x="210" y="491"/>
      <point x="274" y="491" type="curve"/>
      <point x="379" y="491"/>
      <point x="404" y="388"/>
      <point x="404" y="272" type="curve"/>
      <point x="405" y="150"/>
      <point x="378" y="42"/>
      <point x="274" y="42" type="curve"/>
      <point x="213" y="42"/>
      <point x="174" y="82"/>
      <point x="144" y="133" type="curve"/>
      <point x="118" y="108"/>
      <point x="144" y="133"/>
      <point x="118" y="108" type="curve"/>
      <point x="157" y="39"/>
      <point x="206" y="-5"/>
      <point x="283" y="-5" type="curve"/>
      <point x="424" y="-5"/>
      <point x="461" y="125"/>
      <point x="461" y="275" type="curve"/>
      <point x="461" y="416"/>
      <point x="420" y="538"/>
      <point x="285" y="538" type="curve"/>
      <point x="204" y="538"/>
      <point x="147" y="475"/>
      <point x="122" y="416" type="curve"/>
      <point x="143" y="376"/>
      <point x="120" y="414"/>
    </contour>
    <contour>
      <point x="154" y="-300" type="curve"/>
      <point x="154" y="-22"/>
      <point x="154" y="255"/>
      <point x="154" y="533" type="curve"/>
      <point x="96" y="533"/>
      <point x="154" y="533"/>
      <point x="96" y="533" type="curve"/>
      <point x="96" y="255"/>
      <point x="96" y="-22"/>
      <point x="96" y="-300" type="curve"/>
      <point x="154" y="-300"/>
      <point x="96" y="-300"/>
    </contour>
  </outline>
</glyph>
<glyph name="q" format="1">
  <advance width="519"/>
  <unicode hex="0071"/>
  <outline>
    <contour>
      <point x="391" y="486" type="curve"/>
      <point x="509" y="486"/>
      <point x="385" y="486"/>
      <point x="503" y="486" type="curve"/>
      <point x="503" y="533"/>
      <point x="503" y="486"/>
      <point x="503" y="533" type="curve"/>
      <point x="464" y="533"/>
      <point x="430" y="533"/>
      <point x="391" y="533" type="curve"/>
      <point x="391" y="486"/>
      <point x="391" y="533"/>
    </contour>
    <contour>
      <point x="391" y="-253" type="curve"/>
      <point x="265" y="-253"/>
      <point x="397" y="-253"/>
      <point x="272" y="-253" type="curve"/>
      <point x="272" y="-300"/>
      <point x="272" y="-253"/>
      <point x="272" y="-300" type="curve"/>
      <point x="313" y="-300"/>
      <point x="349" y="-300"/>
      <point x="391" y="-300" type="curve"/>
      <point x="391" y="-253"/>
      <point x="391" y="-300"/>
    </contour>
    <contour>
      <point x="391" y="-300" type="curve"/>
      <point x="430" y="-300"/>
      <point x="463" y="-300"/>
      <point x="503" y="-300" type="curve"/>
      <point x="503" y="-253"/>
      <point x="503" y="-300"/>
      <point x="503" y="-253" type="curve"/>
      <point x="384" y="-253"/>
      <point x="509" y="-253"/>
      <point x="391" y="-253" type="curve"/>
      <point x="391" y="-300"/>
      <point x="391" y="-253"/>
    </contour>
    <contour>
      <point x="395" y="423" type="curve"/>
      <point x="363" y="496"/>
      <point x="299" y="538"/>
      <point x="232" y="538" type="curve"/>
      <point x="95" y="538"/>
      <point x="55" y="410"/>
      <point x="55" y="264" type="curve"/>
      <point x="56" y="119"/>
      <point x="100" y="-6"/>
      <point x="236" y="-6" type="curve"/>
      <point x="308" y="-6"/>
      <point x="366" y="54"/>
      <point x="394" y="122" type="curve"/>
      <point x="372" y="148"/>
      <point x="395" y="125"/>
      <point x="373" y="152" type="curve"/>
      <point x="350" y="93"/>
      <point x="301" y="41"/>
      <point x="243" y="41" type="curve"/>
      <point x="140" y="41"/>
      <point x="114" y="148"/>
      <point x="114" y="267" type="curve"/>
      <point x="114" y="383"/>
      <point x="139" y="490"/>
      <point x="240" y="490" type="curve"/>
      <point x="294" y="490"/>
      <point x="344" y="457"/>
      <point x="376" y="392" type="curve"/>
      <point x="392" y="420"/>
      <point x="378" y="395"/>
    </contour>
    <contour>
      <point x="420" y="-300" type="curve"/>
      <point x="420" y="-22"/>
      <point x="420" y="255"/>
      <point x="420" y="533" type="curve"/>
      <point x="360" y="533"/>
      <point x="420" y="533"/>
      <point x="360" y="533" type="curve"/>
      <point x="360" y="255"/>
      <point x="360" y="-22"/>
      <point x="360" y="-300" type="curve"/>
      <point x="420" y="-300"/>
      <point x="360" y="-300"/>
    </contour>
  </outline>
</glyph>
<glyph name="x" format="1">
  <advance width="531"/>
  <unicode hex="0078"/>
  <outline>
    <contour>
      <point x="114" y="47" type="curve"/>
      <point x="8" y="47"/>
      <point x="118" y="47"/>
      <point x="12" y="47" type="curve"/>
      <point x="12" y="0"/>
      <point x="12" y="47"/>
      <point x="12" y="0" type="curve"/>
      <point x="47" y="0"/>
      <point x="79" y="0"/>
      <point x="114" y="0" type="curve"/>
      <point x="114" y="47"/>
      <point x="114" y="0"/>
    </contour>
    <contour>
      <point x="424" y="47" type="curve"/>
      <point x="304" y="47"/>
      <point x="431" y="47"/>
      <point x="311" y="47" type="curve"/>
      <point x="311" y="0"/>
      <point x="311" y="47"/>
      <point x="311" y="0" type="curve"/>
      <point x="351" y="0"/>
      <point x="384" y="0"/>
      <point x="424" y="0" type="curve"/>
      <point x="424" y="47"/>
      <point x="424" y="0"/>
    </contour>
    <contour>
      <point x="418" y="0" type="curve"/>
      <point x="454" y="0"/>
      <point x="489" y="0"/>
      <point x="524" y="0" type="curve"/>
      <point x="524" y="47"/>
      <point x="524" y="0"/>
      <point x="524" y="47" type="curve"/>
      <point x="418" y="47"/>
      <point x="525" y="47"/>
      <point x="418" y="47" type="curve"/>
      <point x="418" y="0"/>
      <point x="418" y="47"/>
    </contour>
    <contour>
      <point x="108" y="0" type="curve"/>
      <point x="148" y="0"/>
      <point x="100" y="0"/>
      <point x="221" y="0" type="curve"/>
      <point x="221" y="47"/>
      <point x="221" y="0"/>
      <point x="221" y="47" type="curve"/>
      <point x="100" y="47"/>
      <point x="229" y="47"/>
      <point x="108" y="47" type="curve"/>
      <point x="108" y="0"/>
      <point x="108" y="47"/>
    </contour>
    <contour>
      <point x="406" y="486" type="curve"/>
      <point x="515" y="486"/>
      <point x="407" y="486"/>
      <point x="516" y="486" type="curve"/>
      <point x="516" y="533"/>
      <point x="516" y="486"/>
      <point x="516" y="533" type="curve"/>
      <point x="479" y="533"/>
      <point x="442" y="533"/>
      <point x="406" y="533" type="curve"/>
      <point x="406" y="486"/>
      <point x="406" y="533"/>
    </contour>
    <contour>
      <point x="138" y="533" type="curve"/>
      <point x="101" y="533"/>
      <point x="65" y="533"/>
      <point x="28" y="533" type="curve"/>
      <point x="28" y="486"/>
      <point x="28" y="533"/>
      <point x="28" y="486" type="curve"/>
      <point x="140" y="486"/>
      <point x="26" y="486"/>
      <point x="138" y="486" type="curve"/>
      <point x="138" y="533"/>
      <point x="138" y="486"/>
    </contour>
    <contour>
      <point x="129" y="486" type="curve"/>
      <point x="245" y="486"/>
      <point x="113" y="486"/>
      <point x="228" y="486" type="curve"/>
      <point x="228" y="533"/>
      <point x="228" y="486"/>
      <point x="228" y="533" type="curve"/>
      <point x="190" y="533"/>
      <point x="168" y="533"/>
      <point x="129" y="533" type="curve"/>
      <point x="129" y="486"/>
      <point x="129" y="533"/>
    </contour>
    <contour>
      <point x="415" y="533" type="curve"/>
      <point x="375" y="533"/>
      <point x="352" y="533"/>
      <point x="313" y="533" type="curve"/>
      <point x="313" y="486"/>
      <point x="313" y="533"/>
      <point x="313" y="486" type="curve"/>
      <point x="431" y="486"/>
      <point x="296" y="486"/>
      <point x="415" y="486" type="curve"/>
      <point x="415" y="533"/>
      <point x="415" y="486"/>
    </contour>
    <contour>
      <point x="453" y="12" type="curve"/>
      <point x="383" y="140"/>
      <point x="217" y="405"/>
      <point x="147" y="533" type="curve"/>
      <point x="104" y="533"/>
      <point x="140" y="519"/>
      <point x="97" y="519" type="curve"/>
      <point x="166" y="391"/>
      <point x="330" y="128"/>
      <point x="399" y="0" type="curve"/>
      <point x="446" y="0"/>
      <point x="406" y="12"/>
    </contour>
    <contour>
      <point x="396" y="533" type="curve"/>
      <point x="325" y="405"/>
      <point x="152" y="142"/>
      <point x="82" y="14" type="curve"/>
      <point x="127" y="14"/>
      <point x="89" y="0"/>
      <point x="134" y="0" type="curve"/>
      <point x="204" y="128"/>
      <point x="377" y="393"/>
      <point x="447" y="521" type="curve"/>
      <point x="403" y="521"/>
      <point x="440" y="533"/>
    </contour>
  </outline>
</glyph>
<glyph name="asciitilde" format="1">
  <advance width="549"/>
  <unicode hex="007E"/>
  <outline>
    <contour>
      <point x="424" y="354" type="curve"/>
      <point x="413" y="312"/>
      <point x="404" y="261"/>
      <point x="362" y="261" type="curve"/>
      <point x="331" y="261"/>
      <point x="314" y="277"/>
      <point x="294" y="301" type="curve"/>
      <point x="264" y="336"/>
      <point x="239" y="359"/>
      <point x="194" y="359" type="curve"/>
      <point x="118" y="359"/>
      <point x="94" y="305"/>
      <point x="79" y="229" type="curve"/>
      <point x="106" y="221"/>
      <point x="99" y="222"/>
      <point x="126" y="214" type="curve"/>
      <point x="135" y="263"/>
      <point x="146" y="309"/>
      <point x="192" y="309" type="curve"/>
      <point x="220" y="309"/>
      <point x="235" y="294"/>
      <point x="253" y="272" type="curve"/>
      <point x="286" y="235"/>
      <point x="312" y="212"/>
      <point x="361" y="212" type="curve"/>
      <point x="434" y="212"/>
      <point x="453" y="270"/>
      <point x="471" y="341" type="curve"/>
      <point x="443" y="348"/>
      <point x="451" y="347"/>
    </contour>
  </outline>
</glyph>
<glyph name="exclamdown" format="1">
  <advance width="229"/>
  <unicode hex="00A1"/>
  <outline>
    <contour>
      <point x="86" y="297" type="line"/>
      <point x="80" y="-196" type="line"/>
      <point x="148" y="-197" type="line"/>
      <point x="144" y="296" type="line"/>
    </contour>
    <contour>
      <point x="81" y="500" type="curve"/>
      <point x="81" y="478"/>
      <point x="95" y="467"/>
      <point x="115" y="467" type="curve"/>
      <point x="135" y="467"/>
      <point x="148" y="479"/>
      <point x="148" y="499" type="curve"/>
      <point x="81" y="500"/>
      <point x="148" y="499"/>
      <point x="81" y="500" type="curve"/>
      <point x="81" y="521"/>
      <point x="95" y="532"/>
      <point x="115" y="532" type="curve"/>
      <point x="136" y="532"/>
      <point x="148" y="520"/>
      <point x="148" y="499" type="curve"/>
      <point x="81" y="500"/>
      <point x="148" y="499"/>
    </contour>
  </outline>
</glyph>
<glyph name="cent" format="1">
  <advance width="503"/>
  <unicode hex="00A2"/>
  <outline>
    <contour>
      <point x="293" y="-53" type="curve"/>
      <point x="293" y="-13"/>
      <point x="293" y="27"/>
      <point x="293" y="67" type="curve"/>
      <point x="234" y="67"/>
      <point x="293" y="67"/>
      <point x="234" y="67" type="curve"/>
      <point x="234" y="27"/>
      <point x="234" y="-13"/>
      <point x="234" y="-53" type="curve"/>
      <point x="293" y="-53"/>
      <point x="234" y="-53"/>
    </contour>
    <contour>
      <point x="249" y="778" type="curve"/>
      <point x="249" y="742"/>
      <point x="249" y="706"/>
      <point x="249" y="670" type="curve"/>
      <point x="307" y="670"/>
      <point x="249" y="670"/>
      <point x="307" y="670" type="curve"/>
      <point x="307" y="706"/>
      <point x="307" y="742"/>
      <point x="307" y="778" type="curve"/>
      <point x="249" y="778"/>
      <point x="307" y="778"/>
    </contour>
    <contour>
      <point x="446" y="605" type="curve"/>
      <point x="396" y="658"/>
      <point x="351" y="681"/>
      <point x="283" y="681" type="curve"/>
      <point x="122" y="681"/>
      <point x="55" y="544"/>
      <point x="55" y="365" type="curve"/>
      <point x="55" y="191"/>
      <point x="105" y="51"/>
      <point x="260" y="51" type="curve"/>
      <point x="340" y="51"/>
      <point x="392" y="84"/>
      <point x="445" y="148" type="curve"/>
      <point x="408" y="182"/>
      <point x="445" y="148"/>
      <point x="408" y="182" type="curve"/>
      <point x="367" y="134"/>
      <point x="329" y="100"/>
      <point x="266" y="100" type="curve"/>
      <point x="145" y="100"/>
      <point x="113" y="223"/>
      <point x="113" y="368" type="curve"/>
      <point x="113" y="513"/>
      <point x="157" y="632"/>
      <point x="278" y="632" type="curve"/>
      <point x="335" y="632"/>
      <point x="373" y="610"/>
      <point x="412" y="570" type="curve"/>
      <point x="446" y="605"/>
      <point x="412" y="570"/>
    </contour>
    <contour>
      <point x="399" y="605" type="curve"/>
      <point x="399" y="485"/>
      <point x="399" y="599"/>
      <point x="399" y="479" type="curve"/>
      <point x="446" y="479"/>
      <point x="399" y="479"/>
      <point x="446" y="479" type="curve"/>
      <point x="446" y="599"/>
      <point x="446" y="485"/>
      <point x="446" y="605" type="curve"/>
      <point x="399" y="605"/>
      <point x="446" y="605"/>
    </contour>
  </outline>
</glyph>
<glyph name="dieresis" format="1">
  <advance width="340"/>
  <unicode hex="00A8"/>
  <outline>
    <contour>
      <point x="136" y="641" type="move" name="_top"/>
    </contour>
    <contour>
      <point x="111" y="669" type="curve"/>
      <point x="111" y="691"/>
      <point x="97" y="702"/>
      <point x="77" y="702" type="curve"/>
      <point x="57" y="702"/>
      <point x="44" y="689"/>
      <point x="44" y="669" type="curve"/>
      <point x="111" y="669"/>
      <point x="44" y="669"/>
      <point x="111" y="669" type="curve"/>
      <point x="111" y="648"/>
      <point x="98" y="637"/>
      <point x="77" y="637" type="curve"/>
      <point x="57" y="637"/>
      <point x="44" y="648"/>
      <point x="44" y="669" type="curve"/>
      <point x="111" y="669"/>
      <point x="44" y="669"/>
    </contour>
    <contour>
      <point x="228" y="669" type="curve"/>
      <point x="228" y="691"/>
      <point x="214" y="702"/>
      <point x="194" y="702" type="curve"/>
      <point x="174" y="702"/>
      <point x="161" y="689"/>
      <point x="161" y="669" type="curve"/>
      <point x="228" y="669"/>
      <point x="161" y="669"/>
      <point x="228" y="669" type="curve"/>
      <point x="228" y="648"/>
      <point x="215" y="637"/>
      <point x="194" y="637" type="curve"/>
      <point x="174" y="637"/>
      <point x="161" y="648"/>
      <point x="161" y="669" type="curve"/>
      <point x="228" y="669"/>
      <point x="161" y="669"/>
    </contour>
  </outline>
</glyph>
<glyph name="copyright" format="1">
  <advance width="603"/>
  <unicode hex="00A9"/>
  <outline>
    <contour>
      <point x="110" y="320" type="curve"/>
      <point x="110" y="474"/>
      <point x="167" y="605"/>
      <point x="305" y="605" type="curve"/>
      <point x="440" y="605"/>
      <point x="494" y="473"/>
      <point x="494" y="319" type="curve"/>
      <point x="494" y="170"/>
      <point x="442" y="39"/>
      <point x="310" y="39" type="curve"/>
      <point x="174" y="39"/>
      <point x="110" y="167"/>
      <point x="110" y="320" type="curve"/>
      <point x="60" y="320"/>
      <point x="111" y="320"/>
      <point x="61" y="320" type="curve"/>
      <point x="61" y="143"/>
      <point x="144" y="-2"/>
      <point x="307" y="-2" type="curve"/>
      <point x="468" y="-2"/>
      <point x="543" y="145"/>
      <point x="543" y="321" type="curve"/>
      <point x="543" y="499"/>
      <point x="466" y="646"/>
      <point x="305" y="646" type="curve"/>
      <point x="142" y="646"/>
      <point x="61" y="499"/>
      <point x="61" y="320" type="curve"/>
      <point x="111" y="320"/>
      <point x="60" y="320"/>
    </contour>
    <contour>
      <point x="359" y="442" type="curve"/>
      <point x="359" y="423"/>
      <point x="359" y="399"/>
      <point x="359" y="377" type="curve"/>
      <point x="404" y="377"/>
      <point x="359" y="377"/>
      <point x="404" y="377" type="curve"/>
      <point x="404" y="406"/>
      <point x="404" y="437"/>
      <point x="404" y="463" type="curve"/>
      <point x="359" y="442"/>
      <point x="404" y="463"/>
    </contour>
    <contour>
      <point x="404" y="463" type="curve"/>
      <point x="376" y="490"/>
      <point x="348" y="501"/>
      <point x="310" y="501" type="curve"/>
      <point x="216" y="501"/>
      <point x="178" y="422"/>
      <point x="178" y="320" type="curve"/>
      <point x="178" y="220"/>
      <point x="210" y="144"/>
      <point x="299" y="144" type="curve"/>
      <point x="345" y="144"/>
      <point x="377" y="157"/>
      <point x="408" y="197" type="curve"/>
      <point x="377" y="221"/>
      <point x="408" y="197"/>
      <point x="377" y="221" type="curve"/>
      <point x="356" y="198"/>
      <point x="334" y="185"/>
      <point x="301" y="185" type="curve"/>
      <point x="238" y="185"/>
      <point x="225" y="248"/>
      <point x="225" y="322" type="curve"/>
      <point x="225" y="397"/>
      <point x="241" y="460"/>
      <point x="307" y="460" type="curve"/>
      <point x="330" y="460"/>
      <point x="344" y="454"/>
      <point x="359" y="442" type="curve"/>
      <point x="404" y="463"/>
      <point x="359" y="442"/>
    </contour>
  </outline>
</glyph>
<glyph name="ordfeminine" format="1">
  <advance width="375"/>
  <unicode hex="00AA"/>
  <outline>
    <contour>
      <point x="83" y="719" type="curve"/>
      <point x="83" y="684"/>
      <point x="83" y="695"/>
      <point x="83" y="660" type="curve"/>
      <point x="109" y="660"/>
      <point x="92" y="660"/>
      <point x="119" y="660" type="curve"/>
      <point x="119" y="695"/>
      <point x="119" y="684"/>
      <point x="119" y="719" type="curve"/>
      <point x="92" y="719"/>
      <point x="109" y="719"/>
    </contour>
    <contour>
      <point x="272" y="428" type="curve"/>
      <point x="272" y="517"/>
      <point x="272" y="587"/>
      <point x="272" y="676" type="curve"/>
      <point x="272" y="734"/>
      <point x="235" y="767"/>
      <point x="178" y="767" type="curve"/>
      <point x="135" y="767"/>
      <point x="108" y="748"/>
      <point x="83" y="719" type="curve"/>
      <point x="96" y="698"/>
      <point x="89" y="711"/>
      <point x="104" y="689" type="curve"/>
      <point x="120" y="709"/>
      <point x="139" y="730"/>
      <point x="172" y="730" type="curve"/>
      <point x="208" y="730"/>
      <point x="229" y="706"/>
      <point x="229" y="668" type="curve"/>
      <point x="229" y="581"/>
      <point x="229" y="515"/>
      <point x="229" y="428" type="curve"/>
      <point x="262" y="428"/>
      <point x="240" y="428"/>
    </contour>
    <contour>
      <point x="252" y="428" type="curve"/>
      <point x="271" y="428"/>
      <point x="286" y="428"/>
      <point x="306" y="428" type="curve"/>
      <point x="306" y="454"/>
      <point x="306" y="438"/>
      <point x="306" y="464" type="curve"/>
      <point x="271" y="464"/>
      <point x="287" y="464"/>
      <point x="252" y="464" type="curve"/>
      <point x="252" y="438"/>
      <point x="252" y="454"/>
    </contour>
    <contour>
      <point x="250" y="637" type="curve"/>
      <point x="217" y="631"/>
      <point x="195" y="628"/>
      <point x="163" y="622" type="curve"/>
      <point x="106" y="612"/>
      <point x="69" y="581"/>
      <point x="69" y="523" type="curve"/>
      <point x="69" y="465"/>
      <point x="100" y="427"/>
      <point x="158" y="427" type="curve"/>
      <point x="211" y="427"/>
      <point x="235" y="468"/>
      <point x="262" y="512" type="curve"/>
      <point x="245" y="526"/>
      <point x="256" y="518"/>
      <point x="240" y="532" type="curve"/>
      <point x="222" y="495"/>
      <point x="207" y="463"/>
      <point x="168" y="463" type="curve"/>
      <point x="130" y="463"/>
      <point x="111" y="488"/>
      <point x="111" y="525" type="curve"/>
      <point x="111" y="560"/>
      <point x="131" y="584"/>
      <point x="163" y="590" type="curve"/>
      <point x="196" y="596"/>
      <point x="218" y="600"/>
      <point x="251" y="606" type="curve"/>
      <point x="250" y="628"/>
      <point x="250" y="615"/>
    </contour>
  </outline>
</glyph>
<glyph name="logicalnot" format="1">
  <advance width="597"/>
  <unicode hex="00AC"/>
  <outline>
    <contour>
      <point x="98" y="285" type="curve"/>
      <point x="515" y="285" type="line"/>
      <point x="515" y="337"/>
      <point x="515" y="285"/>
      <point x="515" y="337" type="curve"/>
      <point x="98" y="337" type="line"/>
      <point x="98" y="285"/>
      <point x="98" y="337"/>
    </contour>
    <contour>
      <point x="515" y="149" type="curve"/>
      <point x="515" y="337" type="line"/>
      <point x="458" y="337"/>
      <point x="516" y="337"/>
      <point x="458" y="337" type="curve"/>
      <point x="458" y="149" type="line"/>
      <point x="516" y="149"/>
      <point x="458" y="149"/>
    </contour>
  </outline>
</glyph>
<glyph name="macron" format="1">
  <advance width="273"/>
  <unicode hex="00AF"/>
  <outline>
    <contour>
      <point x="106" y="635" type="move" name="_top"/>
    </contour>
    <contour>
      <point x="185" y="681" type="curve"/>
      <point x="132" y="681"/>
      <point x="78" y="681"/>
      <point x="25" y="681" type="curve"/>
      <point x="25" y="635"/>
      <point x="25" y="681"/>
      <point x="25" y="635" type="curve"/>
      <point x="78" y="635"/>
      <point x="132" y="635"/>
      <point x="185" y="635" type="curve"/>
      <point x="185" y="681"/>
      <point x="185" y="635"/>
    </contour>
  </outline>
</glyph>
<glyph name="plusminus" format="1">
  <advance width="628"/>
  <unicode hex="00B1"/>
  <outline>
    <contour>
      <point x="68" y="28" type="line"/>
      <point x="561" y="28" type="line"/>
      <point x="561" y="80" type="line"/>
      <point x="68" y="80" type="line"/>
    </contour>
    <contour>
      <point x="68" y="285" type="curve"/>
      <point x="561" y="285" type="line"/>
      <point x="561" y="337"/>
      <point x="561" y="285"/>
      <point x="561" y="337" type="curve"/>
      <point x="68" y="337" type="line"/>
      <point x="68" y="285"/>
      <point x="68" y="337"/>
    </contour>
    <contour>
      <point x="342" y="29" type="curve"/>
      <point x="342" y="585" type="line"/>
      <point x="284" y="585"/>
      <point x="344" y="585"/>
      <point x="287" y="585" type="curve"/>
      <point x="287" y="29" type="line"/>
      <point x="344" y="29"/>
      <point x="284" y="29"/>
    </contour>
  </outline>
</glyph>
<glyph name="acute" format="1">
  <advance width="252"/>
  <unicode hex="00B4"/>
  <outline>
    <contour>
      <point x="48" y="591" type="move" name="_top"/>
    </contour>
    <contour>
      <point x="74" y="590" type="line"/>
      <point x="161" y="756" type="line"/>
      <point x="89" y="756" type="line"/>
      <point x="18" y="590" type="line"/>
    </contour>
  </outline>
</glyph>
<glyph name="periodcentered" format="1">
  <advance width="219"/>
  <unicode hex="00B7"/>
  <outline>
    <contour>
      <point x="143" y="440" type="curve"/>
      <point x="143" y="461"/>
      <point x="129" y="473"/>
      <point x="109" y="473" type="curve"/>
      <point x="88" y="473"/>
      <point x="76" y="460"/>
      <point x="76" y="440" type="curve"/>
      <point x="143" y="440"/>
      <point x="76" y="440"/>
      <point x="143" y="440" type="curve"/>
      <point x="143" y="418"/>
      <point x="129" y="408"/>
      <point x="109" y="408" type="curve"/>
      <point x="88" y="408"/>
      <point x="76" y="419"/>
      <point x="76" y="440" type="curve"/>
      <point x="143" y="440"/>
      <point x="76" y="440"/>
    </contour>
  </outline>
</glyph>
<glyph name="guillemotright" format="1">
  <advance width="494"/>
  <unicode hex="00BB"/>
  <outline>
    <contour>
      <point x="253" y="425" type="curve"/>
      <point x="265" y="415"/>
      <point x="416" y="318"/>
      <point x="429" y="308" type="curve"/>
      <point x="429" y="256"/>
      <point x="429" y="302"/>
      <point x="429" y="250" type="curve"/>
      <point x="416" y="260"/>
      <point x="265" y="361"/>
      <point x="253" y="371" type="curve"/>
      <point x="253" y="422"/>
      <point x="253" y="374"/>
    </contour>
    <contour>
      <point x="252" y="188" type="curve"/>
      <point x="264" y="198"/>
      <point x="416" y="298"/>
      <point x="429" y="308" type="curve"/>
      <point x="429" y="256"/>
      <point x="429" y="302"/>
      <point x="429" y="250" type="curve"/>
      <point x="416" y="241"/>
      <point x="264" y="144"/>
      <point x="252" y="135" type="curve"/>
      <point x="252" y="185"/>
      <point x="252" y="137"/>
    </contour>
    <contour>
      <point x="87" y="425" type="curve"/>
      <point x="99" y="415"/>
      <point x="251" y="318"/>
      <point x="263" y="308" type="curve"/>
      <point x="263" y="256"/>
      <point x="263" y="302"/>
      <point x="263" y="250" type="curve"/>
      <point x="251" y="260"/>
      <point x="99" y="361"/>
      <point x="87" y="371" type="curve"/>
      <point x="87" y="422"/>
      <point x="87" y="374"/>
    </contour>
    <contour>
      <point x="87" y="188" type="curve"/>
      <point x="98" y="198"/>
      <point x="251" y="298"/>
      <point x="263" y="308" type="curve"/>
      <point x="263" y="256"/>
      <point x="263" y="302"/>
      <point x="263" y="250" type="curve"/>
      <point x="251" y="241"/>
      <point x="98" y="144"/>
      <point x="87" y="135" type="curve"/>
      <point x="87" y="185"/>
      <point x="87" y="137"/>
    </contour>
  </outline>
</glyph>
<glyph name="onehalf" format="1">
  <advance width="767"/>
  <unicode hex="00BD"/>
  <outline>
    <contour>
      <point x="256" y="-77" type="line"/>
      <point x="561" y="743" type="line"/>
      <point x="504" y="743" type="line"/>
      <point x="200" y="-77" type="line"/>
    </contour>
    <contour>
      <point x="132" y="336" type="curve"/>
      <point x="169" y="336"/>
      <point x="191" y="336"/>
      <point x="228" y="336" type="curve"/>
      <point x="228" y="377"/>
      <point x="228" y="336"/>
      <point x="228" y="377" type="curve"/>
      <point x="207" y="377"/>
      <point x="202" y="377"/>
      <point x="182" y="377" type="curve"/>
      <point x="132" y="336"/>
      <point x="182" y="377"/>
    </contour>
    <contour>
      <point x="182" y="377" type="curve"/>
      <point x="145" y="377"/>
      <point x="122" y="377"/>
      <point x="84" y="377" type="curve"/>
      <point x="84" y="336"/>
      <point x="84" y="377"/>
      <point x="84" y="336" type="curve"/>
      <point x="105" y="336"/>
      <point x="111" y="336"/>
      <point x="132" y="336" type="curve"/>
      <point x="182" y="377"/>
      <point x="132" y="336"/>
    </contour>
    <contour>
      <point x="70" y="612" type="line"/>
      <point x="180" y="740" type="line"/>
      <point x="132" y="747" type="line"/>
      <point x="39" y="642" type="line"/>
    </contour>
    <contour>
      <point x="182" y="377" type="curve"/>
      <point x="182" y="747" type="line"/>
      <point x="132" y="747" type="line"/>
      <point x="132" y="336" type="line"/>
      <point x="182" y="377"/>
      <point x="132" y="336"/>
    </contour>
    <contour>
      <point x="727" y="-74" type="curve"/>
      <point x="727" y="-35"/>
      <point x="727" y="-17"/>
      <point x="727" y="23" type="curve"/>
      <point x="682" y="23"/>
      <point x="733" y="23"/>
      <point x="688" y="23" type="curve"/>
      <point x="688" y="-3"/>
      <point x="688" y="-7"/>
      <point x="688" y="-34" type="curve"/>
      <point x="733" y="-74"/>
      <point x="682" y="-34"/>
    </contour>
    <contour>
      <point x="479" y="-74" type="curve"/>
      <point x="561" y="-74"/>
      <point x="650" y="-74"/>
      <point x="727" y="-74" type="curve"/>
      <point x="682" y="-34"/>
      <point x="733" y="-74"/>
      <point x="688" y="-34" type="curve"/>
      <point x="620" y="-34"/>
      <point x="547" y="-34"/>
      <point x="479" y="-34" type="curve"/>
      <point x="479" y="-74"/>
      <point x="479" y="-34"/>
    </contour>
    <contour>
      <point x="538" y="236" type="curve"/>
      <point x="551" y="273"/>
      <point x="566" y="304"/>
      <point x="606" y="304" type="curve"/>
      <point x="649" y="304"/>
      <point x="667" y="267"/>
      <point x="667" y="219" type="curve"/>
      <point x="667" y="174"/>
      <point x="645" y="147"/>
      <point x="616" y="112" type="curve"/>
      <point x="571" y="63"/>
      <point x="525" y="15"/>
      <point x="479" y="-34" type="curve"/>
      <point x="487" y="-74"/>
      <point x="479" y="-34"/>
      <point x="487" y="-74" type="curve"/>
      <point x="540" y="-23"/>
      <point x="599" y="28"/>
      <point x="648" y="80" type="curve"/>
      <point x="686" y="125"/>
      <point x="714" y="161"/>
      <point x="714" y="221" type="curve"/>
      <point x="714" y="294"/>
      <point x="676" y="345"/>
      <point x="608" y="345" type="curve"/>
      <point x="552" y="345"/>
      <point x="518" y="314"/>
      <point x="500" y="251" type="curve"/>
      <point x="538" y="236"/>
      <point x="500" y="251"/>
    </contour>
  </outline>
</glyph>
<glyph name="AE" format="1">
  <advance width="760"/>
  <unicode hex="00C6"/>
  <outline>
    <contour>
      <point x="91" y="47" type="curve"/>
      <point x="-19" y="47"/>
      <point x="96" y="47"/>
      <point x="-13" y="47" type="curve"/>
      <point x="-13" y="0"/>
      <point x="-13" y="47"/>
      <point x="-13" y="0" type="curve"/>
      <point x="24" y="0"/>
      <point x="54" y="0"/>
      <point x="90" y="0" type="curve"/>
      <point x="91" y="47"/>
      <point x="90" y="0"/>
    </contour>
    <contour>
      <point x="91" y="0" type="curve"/>
      <point x="133" y="0"/>
      <point x="80" y="0"/>
      <point x="208" y="0" type="curve"/>
      <point x="208" y="47"/>
      <point x="208" y="0"/>
      <point x="208" y="47" type="curve"/>
      <point x="80" y="47"/>
      <point x="219" y="47"/>
      <point x="91" y="47" type="curve"/>
      <point x="91" y="0"/>
      <point x="91" y="47"/>
    </contour>
    <contour>
      <point x="398" y="277" type="curve"/>
      <point x="319" y="277"/>
      <point x="278" y="277"/>
      <point x="199" y="277" type="curve"/>
      <point x="175" y="227"/>
      <point x="199" y="277"/>
      <point x="175" y="227" type="curve"/>
      <point x="268" y="227"/>
      <point x="324" y="227"/>
      <point x="416" y="227" type="curve"/>
      <point x="398" y="277"/>
      <point x="416" y="227"/>
    </contour>
    <contour>
      <point x="114" y="0" type="curve"/>
      <point x="438" y="722" type="line"/>
      <point x="385" y="722"/>
      <point x="438" y="722"/>
      <point x="385" y="722" type="curve"/>
      <point x="50" y="0" type="line"/>
      <point x="114" y="0"/>
      <point x="50" y="0"/>
    </contour>
    <contour>
      <point x="715" y="23" type="curve"/>
      <point x="715" y="143"/>
      <point x="715" y="16"/>
      <point x="715" y="136" type="curve"/>
      <point x="667" y="136"/>
      <point x="715" y="136"/>
      <point x="667" y="136" type="curve"/>
      <point x="667" y="16"/>
      <point x="667" y="143"/>
      <point x="667" y="23" type="curve"/>
      <point x="715" y="23"/>
      <point x="667" y="23"/>
    </contour>
    <contour>
      <point x="643" y="699" type="curve"/>
      <point x="643" y="579"/>
      <point x="643" y="706"/>
      <point x="643" y="586" type="curve"/>
      <point x="690" y="586"/>
      <point x="643" y="586"/>
      <point x="690" y="586" type="curve"/>
      <point x="690" y="706"/>
      <point x="690" y="579"/>
      <point x="690" y="699" type="curve"/>
      <point x="643" y="699"/>
      <point x="690" y="699"/>
    </contour>
    <contour>
      <point x="409" y="47" type="curve"/>
      <point x="275" y="47"/>
      <point x="423" y="47"/>
      <point x="290" y="47" type="curve"/>
      <point x="290" y="0"/>
      <point x="290" y="47"/>
      <point x="290" y="0" type="curve"/>
      <point x="334" y="0"/>
      <point x="365" y="0"/>
      <point x="409" y="0" type="curve"/>
      <point x="409" y="47"/>
      <point x="409" y="0"/>
    </contour>
    <contour>
      <point x="409" y="722" type="curve"/>
      <point x="365" y="722"/>
      <point x="334" y="722"/>
      <point x="290" y="722" type="curve"/>
      <point x="290" y="675"/>
      <point x="290" y="722"/>
      <point x="290" y="675" type="curve"/>
      <point x="423" y="675"/>
      <point x="275" y="675"/>
      <point x="409" y="675" type="curve"/>
      <point x="409" y="722"/>
      <point x="409" y="675"/>
    </contour>
    <contour>
      <point x="411" y="350" type="curve"/>
      <point x="489" y="350"/>
      <point x="567" y="350"/>
      <point x="646" y="350" type="curve"/>
      <point x="646" y="397"/>
      <point x="646" y="350"/>
      <point x="646" y="397" type="curve"/>
      <point x="567" y="397"/>
      <point x="489" y="397"/>
      <point x="411" y="397" type="curve"/>
      <point x="411" y="350"/>
      <point x="411" y="397"/>
    </contour>
    <contour>
      <point x="401" y="675" type="curve"/>
      <point x="497" y="675"/>
      <point x="593" y="675"/>
      <point x="690" y="675" type="curve"/>
      <point x="690" y="722"/>
      <point x="690" y="675"/>
      <point x="690" y="722" type="curve"/>
      <point x="593" y="722"/>
      <point x="497" y="722"/>
      <point x="401" y="722" type="curve"/>
      <point x="401" y="675"/>
      <point x="401" y="722"/>
    </contour>
    <contour>
      <point x="437" y="0" type="curve"/>
      <point x="437" y="722" type="line"/>
      <point x="380" y="722"/>
      <point x="437" y="722"/>
      <point x="380" y="722" type="curve"/>
      <point x="380" y="481"/>
      <point x="380" y="241"/>
      <point x="380" y="0" type="curve"/>
      <point x="437" y="0"/>
      <point x="380" y="0"/>
    </contour>
    <contour>
      <point x="401" y="0" type="curve"/>
      <point x="505" y="0"/>
      <point x="610" y="0"/>
      <point x="715" y="0" type="curve"/>
      <point x="715" y="47"/>
      <point x="715" y="0"/>
      <point x="715" y="47" type="curve"/>
      <point x="610" y="47"/>
      <point x="505" y="47"/>
      <point x="401" y="47" type="curve"/>
      <point x="401" y="0"/>
      <point x="401" y="47"/>
    </contour>
  </outline>
</glyph>
<glyph name="Ecircumflex" format="1">
  <advance width="517"/>
  <unicode hex="00CA"/>
  <outline>
    <contour>
      <point x="472" y="23" type="curve"/>
      <point x="472" y="143"/>
      <point x="472" y="16"/>
      <point x="472" y="136" type="curve"/>
      <point x="424" y="136"/>
      <point x="472" y="136"/>
      <point x="424" y="136" type="curve"/>
      <point x="424" y="16"/>
      <point x="424" y="143"/>
      <point x="424" y="23" type="curve"/>
      <point x="472" y="23"/>
      <point x="424" y="23"/>
    </contour>
    <contour>
      <point x="400" y="699" type="curve"/>
      <point x="400" y="579"/>
      <point x="400" y="706"/>
      <point x="400" y="586" type="curve"/>
      <point x="447" y="586"/>
      <point x="400" y="586"/>
      <point x="447" y="586" type="curve"/>
      <point x="447" y="706"/>
      <point x="447" y="579"/>
      <point x="447" y="699" type="curve"/>
      <point x="400" y="699"/>
      <point x="447" y="699"/>
    </contour>
    <contour>
      <point x="166" y="47" type="curve"/>
      <point x="32" y="47"/>
      <point x="180" y="47"/>
      <point x="47" y="47" type="curve"/>
      <point x="47" y="0"/>
      <point x="47" y="47"/>
      <point x="47" y="0" type="curve"/>
      <point x="91" y="0"/>
      <point x="121" y="0"/>
      <point x="166" y="0" type="curve"/>
      <point x="166" y="47"/>
      <point x="166" y="0"/>
    </contour>
    <contour>
      <point x="166" y="722" type="curve"/>
      <point x="121" y="722"/>
      <point x="91" y="722"/>
      <point x="47" y="722" type="curve"/>
      <point x="47" y="675"/>
      <point x="47" y="722"/>
      <point x="47" y="675" type="curve"/>
      <point x="180" y="675"/>
      <point x="32" y="675"/>
      <point x="166" y="675" type="curve"/>
      <point x="166" y="722"/>
      <point x="166" y="675"/>
    </contour>
    <contour>
      <point x="168" y="350" type="curve"/>
      <point x="246" y="350"/>
      <point x="324" y="350"/>
      <point x="402" y="350" type="curve"/>
      <point x="402" y="397"/>
      <point x="402" y="350"/>
      <point x="402" y="397" type="curve"/>
      <point x="324" y="397"/>
      <point x="246" y="397"/>
      <point x="168" y="397" type="curve"/>
      <point x="168" y="350"/>
      <point x="168" y="397"/>
    </contour>
    <contour>
      <point x="157" y="675" type="curve"/>
      <point x="254" y="675"/>
      <point x="350" y="675"/>
      <point x="447" y="675" type="curve"/>
      <point x="447" y="722"/>
      <point x="447" y="675"/>
      <point x="447" y="722" type="curve"/>
      <point x="350" y="722"/>
      <point x="254" y="722"/>
      <point x="157" y="722" type="curve"/>
      <point x="157" y="675"/>
      <point x="157" y="722"/>
    </contour>
    <contour>
      <point x="194" y="0" type="curve"/>
      <point x="194" y="722" type="line"/>
      <point x="137" y="722"/>
      <point x="194" y="722"/>
      <point x="137" y="722" type="curve"/>
      <point x="137" y="481"/>
      <point x="137" y="241"/>
      <point x="137" y="0" type="curve"/>
      <point x="194" y="0"/>
      <point x="137" y="0"/>
    </contour>
    <contour>
      <point x="157" y="0" type="curve"/>
      <point x="262" y="0"/>
      <point x="367" y="0"/>
      <point x="472" y="0" type="curve"/>
      <point x="472" y="47"/>
      <point x="472" y="0"/>
      <point x="472" y="47" type="curve"/>
      <point x="367" y="47"/>
      <point x="262" y="47"/>
      <point x="157" y="47" type="curve"/>
      <point x="157" y="0"/>
      <point x="157" y="47"/>
    </contour>
    <contour>
      <point x="203" y="812" type="line"/>
      <point x="290" y="978" type="line"/>
      <point x="219" y="978" type="line"/>
      <point x="147" y="812" type="line"/>
    </contour>
    <contour>
      <point x="384" y="812" type="line"/>
      <point x="313" y="978" type="line"/>
      <point x="241" y="978" type="line"/>
      <point x="329" y="812" type="line"/>
    </contour>
  </outline>
</glyph>
<glyph name="Ograve" format="1">
  <advance width="593"/>
  <unicode hex="00D2"/>
  <outline>
    <contour>
      <point x="120" y="360" type="curve"/>
      <point x="120" y="529"/>
      <point x="147" y="678"/>
      <point x="295" y="678" type="curve"/>
      <point x="441" y="678"/>
      <point x="474" y="532"/>
      <point x="474" y="363" type="curve"/>
      <point x="474" y="195"/>
      <point x="445" y="44"/>
      <point x="298" y="44" type="curve"/>
      <point x="151" y="44"/>
      <point x="120" y="190"/>
      <point x="120" y="360" type="curve"/>
      <point x="61" y="360"/>
      <point x="120" y="360"/>
      <point x="61" y="360" type="curve"/>
      <point x="61" y="159"/>
      <point x="118" y="-5"/>
      <point x="296" y="-5" type="curve"/>
      <point x="475" y="-5"/>
      <point x="532" y="161"/>
      <point x="532" y="363" type="curve"/>
      <point x="532" y="563"/>
      <point x="476" y="727"/>
      <point x="298" y="727" type="curve"/>
      <point x="119" y="727"/>
      <point x="61" y="561"/>
      <point x="61" y="360" type="curve"/>
      <point x="120" y="360"/>
      <point x="61" y="360"/>
    </contour>
    <contour>
      <point x="326" y="813" type="line"/>
      <point x="255" y="979" type="line"/>
      <point x="183" y="979" type="line"/>
      <point x="270" y="813" type="line"/>
    </contour>
  </outline>
</glyph>
<glyph name="Ocircumflex" format="1">
  <advance width="593"/>
  <unicode hex="00D4"/>
  <outline>
    <contour>
      <point x="120" y="360" type="curve"/>
      <point x="120" y="529"/>
      <point x="147" y="678"/>
      <point x="295" y="678" type="curve"/>
      <point x="441" y="678"/>
      <point x="474" y="532"/>
      <point x="474" y="363" type="curve"/>
      <point x="474" y="195"/>
      <point x="445" y="44"/>
      <point x="298" y="44" type="curve"/>
      <point x="151" y="44"/>
      <point x="120" y="190"/>
      <point x="120" y="360" type="curve"/>
      <point x="61" y="360"/>
      <point x="120" y="360"/>
      <point x="61" y="360" type="curve"/>
      <point x="61" y="159"/>
      <point x="118" y="-5"/>
      <point x="296" y="-5" type="curve"/>
      <point x="475" y="-5"/>
      <point x="532" y="161"/>
      <point x="532" y="363" type="curve"/>
      <point x="532" y="563"/>
      <point x="476" y="727"/>
      <point x="298" y="727" type="curve"/>
      <point x="119" y="727"/>
      <point x="61" y="561"/>
      <point x="61" y="360" type="curve"/>
      <point x="120" y="360"/>
      <point x="61" y="360"/>
    </contour>
    <contour>
      <point x="233" y="812" type="line"/>
      <point x="321" y="978" type="line"/>
      <point x="249" y="978" type="line"/>
      <point x="178" y="812" type="line"/>
    </contour>
    <contour>
      <point x="415" y="812" type="line"/>
      <point x="343" y="978" type="line"/>
      <point x="272" y="978" type="line"/>
      <point x="359" y="812" type="line"/>
    </contour>
  </outline>
</glyph>
<glyph name="Odieresis" format="1">
  <advance width="593"/>
  <unicode hex="00D6"/>
  <outline>
    <contour>
      <point x="120" y="360" type="curve"/>
      <point x="120" y="529"/>
      <point x="147" y="678"/>
      <point x="295" y="678" type="curve"/>
      <point x="441" y="678"/>
      <point x="474" y="532"/>
      <point x="474" y="363" type="curve"/>
      <point x="474" y="195"/>
      <point x="445" y="44"/>
      <point x="298" y="44" type="curve"/>
      <point x="151" y="44"/>
      <point x="120" y="190"/>
      <point x="120" y="360" type="curve"/>
      <point x="61" y="360"/>
      <point x="120" y="360"/>
      <point x="61" y="360" type="curve"/>
      <point x="61" y="159"/>
      <point x="118" y="-5"/>
      <point x="296" y="-5" type="curve"/>
      <point x="475" y="-5"/>
      <point x="532" y="161"/>
      <point x="532" y="363" type="curve"/>
      <point x="532" y="563"/>
      <point x="476" y="727"/>
      <point x="298" y="727" type="curve"/>
      <point x="119" y="727"/>
      <point x="61" y="561"/>
      <point x="61" y="360" type="curve"/>
      <point x="120" y="360"/>
      <point x="61" y="360"/>
    </contour>
    <contour>
      <point x="272" y="841" type="curve"/>
      <point x="272" y="862"/>
      <point x="257" y="873"/>
      <point x="237" y="873" type="curve"/>
      <point x="217" y="873"/>
      <point x="205" y="861"/>
      <point x="205" y="841" type="curve"/>
      <point x="272" y="841"/>
      <point x="205" y="841"/>
      <point x="272" y="841" type="curve"/>
      <point x="272" y="819"/>
      <point x="258" y="808"/>
      <point x="237" y="808" type="curve"/>
      <point x="217" y="808"/>
      <point x="205" y="820"/>
      <point x="205" y="841" type="curve"/>
      <point x="272" y="841"/>
      <point x="205" y="841"/>
    </contour>
    <contour>
      <point x="388" y="841" type="curve"/>
      <point x="388" y="862"/>
      <point x="374" y="873"/>
      <point x="354" y="873" type="curve"/>
      <point x="334" y="873"/>
      <point x="321" y="861"/>
      <point x="321" y="841" type="curve"/>
      <point x="388" y="841"/>
      <point x="321" y="841"/>
      <point x="388" y="841" type="curve"/>
      <point x="388" y="819"/>
      <point x="375" y="808"/>
      <point x="354" y="808" type="curve"/>
      <point x="334" y="808"/>
      <point x="321" y="820"/>
      <point x="321" y="841" type="curve"/>
      <point x="388" y="841"/>
      <point x="321" y="841"/>
    </contour>
  </outline>
</glyph>
<glyph name="multiply" format="1">
  <advance width="543"/>
  <unicode hex="00D7"/>
  <outline>
    <contour>
      <point x="105" y="105" type="line"/>
      <point x="473" y="479" type="line"/>
      <point x="438" y="514" type="line"/>
      <point x="70" y="140" type="line"/>
    </contour>
    <contour>
      <point x="473" y="139" type="line"/>
      <point x="105" y="513" type="line"/>
      <point x="70" y="478" type="line"/>
      <point x="438" y="104" type="line"/>
    </contour>
  </outline>
</glyph>
<glyph name="Uacute" format="1">
  <advance width="653"/>
  <unicode hex="00DA"/>
  <outline>
    <contour>
      <point x="506" y="675" type="curve"/>
      <point x="631" y="675"/>
      <point x="499" y="675"/>
      <point x="624" y="675" type="curve"/>
      <point x="624" y="722"/>
      <point x="624" y="675"/>
      <point x="624" y="722" type="curve"/>
      <point x="583" y="722"/>
      <point x="547" y="722"/>
      <point x="506" y="722" type="curve"/>
      <point x="506" y="675"/>
      <point x="506" y="722"/>
    </contour>
    <contour>
      <point x="506" y="722" type="curve"/>
      <point x="464" y="722"/>
      <point x="428" y="722"/>
      <point x="387" y="722" type="curve"/>
      <point x="387" y="675"/>
      <point x="387" y="722"/>
      <point x="387" y="675" type="curve"/>
      <point x="512" y="675"/>
      <point x="381" y="675"/>
      <point x="506" y="675" type="curve"/>
      <point x="506" y="722"/>
      <point x="506" y="675"/>
    </contour>
    <contour>
      <point x="148" y="722" type="curve"/>
      <point x="107" y="722"/>
      <point x="71" y="722"/>
      <point x="30" y="722" type="curve"/>
      <point x="30" y="675"/>
      <point x="30" y="722"/>
      <point x="30" y="675" type="curve"/>
      <point x="155" y="675"/>
      <point x="24" y="675"/>
      <point x="148" y="675" type="curve"/>
      <point x="148" y="722"/>
      <point x="148" y="675"/>
    </contour>
    <contour>
      <point x="148" y="675" type="curve"/>
      <point x="273" y="675"/>
      <point x="142" y="675"/>
      <point x="267" y="675" type="curve"/>
      <point x="267" y="722"/>
      <point x="267" y="675"/>
      <point x="267" y="722" type="curve"/>
      <point x="226" y="722"/>
      <point x="190" y="722"/>
      <point x="148" y="722" type="curve"/>
      <point x="148" y="675"/>
      <point x="148" y="722"/>
    </contour>
    <contour>
      <point x="120" y="708" type="curve"/>
      <point x="120" y="563"/>
      <point x="119" y="417"/>
      <point x="120" y="272" type="curve"/>
      <point x="120" y="103"/>
      <point x="171" y="-5"/>
      <point x="326" y="-5" type="curve"/>
      <point x="479" y="-5"/>
      <point x="533" y="102"/>
      <point x="533" y="269" type="curve"/>
      <point x="533" y="416"/>
      <point x="533" y="562"/>
      <point x="533" y="708" type="curve"/>
      <point x="480" y="708"/>
      <point x="532" y="708"/>
      <point x="479" y="708" type="curve"/>
      <point x="479" y="559"/>
      <point x="479" y="411"/>
      <point x="479" y="262" type="curve"/>
      <point x="479" y="135"/>
      <point x="442" y="47"/>
      <point x="330" y="47" type="curve"/>
      <point x="206" y="47"/>
      <point x="173" y="142"/>
      <point x="173" y="281" type="curve"/>
      <point x="173" y="423"/>
      <point x="173" y="566"/>
      <point x="173" y="708" type="curve"/>
      <point x="120" y="708"/>
      <point x="172" y="708"/>
    </contour>
    <contour>
      <point x="355" y="812" type="line"/>
      <point x="443" y="978" type="line"/>
      <point x="371" y="978" type="line"/>
      <point x="300" y="812" type="line"/>
    </contour>
  </outline>
</glyph>
<glyph name="Udieresis" format="1">
  <advance width="653"/>
  <unicode hex="00DC"/>
  <outline>
    <contour>
      <point x="506" y="675" type="curve"/>
      <point x="631" y="675"/>
      <point x="499" y="675"/>
      <point x="624" y="675" type="curve"/>
      <point x="624" y="722"/>
      <point x="624" y="675"/>
      <point x="624" y="722" type="curve"/>
      <point x="583" y="722"/>
      <point x="547" y="722"/>
      <point x="506" y="722" type="curve"/>
      <point x="506" y="675"/>
      <point x="506" y="722"/>
    </contour>
    <contour>
      <point x="506" y="722" type="curve"/>
      <point x="464" y="722"/>
      <point x="428" y="722"/>
      <point x="387" y="722" type="curve"/>
      <point x="387" y="675"/>
      <point x="387" y="722"/>
      <point x="387" y="675" type="curve"/>
      <point x="512" y="675"/>
      <point x="381" y="675"/>
      <point x="506" y="675" type="curve"/>
      <point x="506" y="722"/>
      <point x="506" y="675"/>
    </contour>
    <contour>
      <point x="148" y="722" type="curve"/>
      <point x="107" y="722"/>
      <point x="71" y="722"/>
      <point x="30" y="722" type="curve"/>
      <point x="30" y="675"/>
      <point x="30" y="722"/>
      <point x="30" y="675" type="curve"/>
      <point x="155" y="675"/>
      <point x="24" y="675"/>
      <point x="148" y="675" type="curve"/>
      <point x="148" y="722"/>
      <point x="148" y="675"/>
    </contour>
    <contour>
      <point x="148" y="675" type="curve"/>
      <point x="273" y="675"/>
      <point x="142" y="675"/>
      <point x="267" y="675" type="curve"/>
      <point x="267" y="722"/>
      <point x="267" y="675"/>
      <point x="267" y="722" type="curve"/>
      <point x="226" y="722"/>
      <point x="190" y="722"/>
      <point x="148" y="722" type="curve"/>
      <point x="148" y="675"/>
      <point x="148" y="722"/>
    </contour>
    <contour>
      <point x="120" y="708" type="curve"/>
      <point x="120" y="563"/>
      <point x="119" y="417"/>
      <point x="120" y="272" type="curve"/>
      <point x="120" y="103"/>
      <point x="171" y="-5"/>
      <point x="326" y="-5" type="curve"/>
      <point x="479" y="-5"/>
      <point x="533" y="102"/>
      <point x="533" y="269" type="curve"/>
      <point x="533" y="416"/>
      <point x="533" y="562"/>
      <point x="533" y="708" type="curve"/>
      <point x="480" y="708"/>
      <point x="532" y="708"/>
      <point x="479" y="708" type="curve"/>
      <point x="479" y="559"/>
      <point x="479" y="411"/>
      <point x="479" y="262" type="curve"/>
      <point x="479" y="135"/>
      <point x="442" y="47"/>
      <point x="330" y="47" type="curve"/>
      <point x="206" y="47"/>
      <point x="173" y="142"/>
      <point x="173" y="281" type="curve"/>
      <point x="173" y="423"/>
      <point x="173" y="566"/>
      <point x="173" y="708" type="curve"/>
      <point x="120" y="708"/>
      <point x="172" y="708"/>
    </contour>
    <contour>
      <point x="304" y="841" type="curve"/>
      <point x="304" y="862"/>
      <point x="290" y="873"/>
      <point x="270" y="873" type="curve"/>
      <point x="250" y="873"/>
      <point x="237" y="861"/>
      <point x="237" y="841" type="curve"/>
      <point x="304" y="841"/>
      <point x="237" y="841"/>
      <point x="304" y="841" type="curve"/>
      <point x="304" y="819"/>
      <point x="290" y="808"/>
      <point x="270" y="808" type="curve"/>
      <point x="249" y="808"/>
      <point x="237" y="820"/>
      <point x="237" y="841" type="curve"/>
      <point x="304" y="841"/>
      <point x="237" y="841"/>
    </contour>
    <contour>
      <point x="421" y="841" type="curve"/>
      <point x="421" y="862"/>
      <point x="407" y="873"/>
      <point x="387" y="873" type="curve"/>
      <point x="367" y="873"/>
      <point x="354" y="861"/>
      <point x="354" y="841" type="curve"/>
      <point x="421" y="841"/>
      <point x="354" y="841"/>
      <point x="421" y="841" type="curve"/>
      <point x="421" y="819"/>
      <point x="407" y="808"/>
      <point x="387" y="808" type="curve"/>
      <point x="366" y="808"/>
      <point x="354" y="820"/>
      <point x="354" y="841" type="curve"/>
      <point x="421" y="841"/>
      <point x="354" y="841"/>
    </contour>
  </outline>
</glyph>
<glyph name="ae" format="1">
  <advance width="693"/>
  <unicode hex="00E6"/>
  <outline>
    <contour>
      <point x="74" y="463" type="curve"/>
      <point x="74" y="345"/>
      <point x="74" y="485"/>
      <point x="74" y="367" type="curve"/>
      <point x="121" y="367"/>
      <point x="74" y="367"/>
      <point x="121" y="367" type="curve"/>
      <point x="121" y="485"/>
      <point x="121" y="345"/>
      <point x="121" y="463" type="curve"/>
      <point x="74" y="463"/>
      <point x="121" y="463"/>
    </contour>
    <contour>
      <point x="364" y="281" type="curve"/>
      <point x="364" y="382"/>
      <point x="364" y="283"/>
      <point x="364" y="384" type="curve"/>
      <point x="364" y="486"/>
      <point x="317" y="537"/>
      <point x="223" y="537" type="curve"/>
      <point x="153" y="537"/>
      <point x="107" y="502"/>
      <point x="74" y="463" type="curve"/>
      <point x="98" y="423"/>
      <point x="74" y="463"/>
      <point x="98" y="423" type="curve"/>
      <point x="122" y="455"/>
      <point x="158" y="490"/>
      <point x="216" y="490" type="curve"/>
      <point x="281" y="490"/>
      <point x="307" y="446"/>
      <point x="307" y="370" type="curve"/>
      <point x="307" y="273"/>
      <point x="307" y="378"/>
      <point x="307" y="281" type="curve"/>
      <point x="364" y="281"/>
      <point x="306" y="281"/>
    </contour>
    <contour>
      <point x="337" y="305" type="curve"/>
      <point x="277" y="305"/>
      <point x="248" y="306"/>
      <point x="191" y="296" type="curve"/>
      <point x="105" y="279"/>
      <point x="56" y="236"/>
      <point x="56" y="148" type="curve"/>
      <point x="56" y="57"/>
      <point x="91" y="-5"/>
      <point x="179" y="-5" type="curve"/>
      <point x="275" y="-5"/>
      <point x="318" y="65"/>
      <point x="359" y="147" type="curve"/>
      <point x="330" y="173"/>
      <point x="354" y="147"/>
      <point x="325" y="173" type="curve"/>
      <point x="291" y="104"/>
      <point x="261" y="42"/>
      <point x="190" y="42" type="curve"/>
      <point x="129" y="42"/>
      <point x="112" y="86"/>
      <point x="112" y="149" type="curve"/>
      <point x="112" y="208"/>
      <point x="145" y="242"/>
      <point x="195" y="252" type="curve"/>
      <point x="252" y="262"/>
      <point x="282" y="260"/>
      <point x="339" y="260" type="curve"/>
      <point x="336" y="300"/>
      <point x="339" y="265"/>
    </contour>
    <contour>
      <point x="335" y="260" type="curve"/>
      <point x="428" y="260"/>
      <point x="522" y="260"/>
      <point x="615" y="260" type="curve"/>
      <point x="636" y="260"/>
      <point x="615" y="260"/>
      <point x="636" y="260" type="curve"/>
      <point x="636" y="275"/>
      <point x="636" y="260"/>
      <point x="636" y="275" type="curve"/>
      <point x="636" y="284"/>
      <point x="636" y="292"/>
      <point x="636" y="300" type="curve"/>
      <point x="636" y="437"/>
      <point x="597" y="538"/>
      <point x="477" y="538" type="curve"/>
      <point x="346" y="538"/>
      <point x="305" y="429"/>
      <point x="305" y="280" type="curve"/>
      <point x="305" y="117"/>
      <point x="349" y="-5"/>
      <point x="490" y="-5" type="curve"/>
      <point x="551" y="-5"/>
      <point x="589" y="25"/>
      <point x="629" y="75" type="curve"/>
      <point x="592" y="107"/>
      <point x="629" y="75"/>
      <point x="592" y="107" type="curve"/>
      <point x="565" y="70"/>
      <point x="533" y="44"/>
      <point x="490" y="44" type="curve"/>
      <point x="384" y="44"/>
      <point x="363" y="150"/>
      <point x="363" y="280" type="curve"/>
      <point x="363" y="395"/>
      <point x="379" y="490"/>
      <point x="473" y="490" type="curve"/>
      <point x="561" y="490"/>
      <point x="581" y="408"/>
      <point x="581" y="304" type="curve"/>
      <point x="581" y="294"/>
      <point x="581" y="285"/>
      <point x="581" y="275" type="curve"/>
      <point x="586" y="281"/>
      <point x="592" y="286"/>
      <point x="597" y="292" type="curve"/>
      <point x="603" y="297"/>
      <point x="610" y="299"/>
      <point x="615" y="305" type="curve"/>
      <point x="522" y="305"/>
      <point x="428" y="305"/>
      <point x="335" y="305" type="curve"/>
      <point x="335" y="258"/>
      <point x="335" y="307"/>
    </contour>
  </outline>
</glyph>
<glyph name="icircumflex" format="1">
  <advance width="277"/>
  <unicode hex="00EE"/>
  <outline>
    <contour>
      <point x="153" y="47" type="curve"/>
      <point x="27" y="47"/>
      <point x="159" y="47"/>
      <point x="34" y="47" type="curve"/>
      <point x="33" y="0"/>
      <point x="34" y="47"/>
      <point x="33" y="0" type="curve"/>
      <point x="76" y="0"/>
      <point x="111" y="0"/>
      <point x="153" y="0" type="curve"/>
      <point x="153" y="47"/>
      <point x="153" y="0"/>
    </contour>
    <contour>
      <point x="153" y="0" type="curve"/>
      <point x="192" y="0"/>
      <point x="225" y="0"/>
      <point x="265" y="0" type="curve"/>
      <point x="265" y="47"/>
      <point x="265" y="0"/>
      <point x="265" y="47" type="curve"/>
      <point x="146" y="47"/>
      <point x="271" y="47"/>
      <point x="153" y="47" type="curve"/>
      <point x="153" y="0"/>
      <point x="153" y="47"/>
    </contour>
    <contour>
      <point x="153" y="533" type="curve"/>
      <point x="111" y="533"/>
      <point x="76" y="533"/>
      <point x="34" y="533" type="curve"/>
      <point x="33" y="486"/>
      <point x="34" y="533"/>
      <point x="33" y="486" type="curve"/>
      <point x="159" y="486"/>
      <point x="27" y="486"/>
      <point x="153" y="486" type="curve"/>
      <point x="153" y="533"/>
      <point x="153" y="486"/>
    </contour>
    <contour>
      <point x="183" y="0" type="curve"/>
      <point x="183" y="178"/>
      <point x="183" y="355"/>
      <point x="183" y="533" type="curve"/>
      <point x="122" y="533"/>
      <point x="183" y="533"/>
      <point x="122" y="533" type="curve"/>
      <point x="122" y="355"/>
      <point x="122" y="178"/>
      <point x="122" y="0" type="curve"/>
      <point x="183" y="0"/>
      <point x="122" y="0"/>
    </contour>
    <contour>
      <point x="89" y="654" type="line"/>
      <point x="176" y="820" type="line"/>
      <point x="104" y="820" type="line"/>
      <point x="33" y="654" type="line"/>
    </contour>
    <contour>
      <point x="270" y="654" type="line"/>
      <point x="199" y="820" type="line"/>
      <point x="127" y="820" type="line"/>
      <point x="215" y="654" type="line"/>
    </contour>
  </outline>
</glyph>
<glyph name="oacute" format="1">
  <advance width="478"/>
  <unicode hex="00F3"/>
  <outline>
    <contour>
      <point x="111" y="267" type="curve"/>
      <point x="111" y="389"/>
      <point x="135" y="490"/>
      <point x="236" y="490" type="curve"/>
      <point x="341" y="490"/>
      <point x="364" y="388"/>
      <point x="364" y="266" type="curve"/>
      <point x="364" y="143"/>
      <point x="341" y="43"/>
      <point x="241" y="43" type="curve"/>
      <point x="131" y="44"/>
      <point x="111" y="145"/>
      <point x="111" y="267" type="curve"/>
      <point x="94" y="267"/>
      <point x="74" y="267"/>
      <point x="56" y="267" type="curve"/>
      <point x="56" y="114"/>
      <point x="101" y="-5"/>
      <point x="238" y="-5" type="curve"/>
      <point x="376" y="-5"/>
      <point x="422" y="112"/>
      <point x="422" y="266" type="curve"/>
      <point x="422" y="420"/>
      <point x="377" y="538"/>
      <point x="239" y="538" type="curve"/>
      <point x="102" y="538"/>
      <point x="56" y="420"/>
      <point x="56" y="267" type="curve"/>
      <point x="74" y="267"/>
      <point x="94" y="267"/>
    </contour>
    <contour>
      <point x="263" y="653" type="line"/>
      <point x="350" y="819" type="line"/>
      <point x="278" y="819" type="line"/>
      <point x="207" y="653" type="line"/>
    </contour>
  </outline>
</glyph>
<glyph name="aogonek" format="1">
  <advance width="458"/>
  <unicode hex="0105"/>
  <outline>
    <contour>
      <point x="75" y="463" type="curve"/>
      <point x="75" y="345"/>
      <point x="75" y="470"/>
      <point x="75" y="353" type="curve"/>
      <point x="122" y="353"/>
      <point x="75" y="353"/>
      <point x="122" y="353" type="curve"/>
      <point x="122" y="470"/>
      <point x="122" y="345"/>
      <point x="122" y="463" type="curve"/>
      <point x="75" y="463"/>
      <point x="122" y="463"/>
    </contour>
    <contour>
      <point x="366" y="0" type="curve"/>
      <point x="366" y="128"/>
      <point x="366" y="256"/>
      <point x="366" y="384" type="curve"/>
      <point x="366" y="486"/>
      <point x="318" y="538"/>
      <point x="225" y="538" type="curve"/>
      <point x="155" y="538"/>
      <point x="108" y="502"/>
      <point x="75" y="463" type="curve"/>
      <point x="102" y="425"/>
      <point x="75" y="463"/>
      <point x="102" y="425" type="curve"/>
      <point x="124" y="452"/>
      <point x="163" y="490"/>
      <point x="217" y="490" type="curve"/>
      <point x="282" y="490"/>
      <point x="308" y="448"/>
      <point x="308" y="374" type="curve"/>
      <point x="308" y="249"/>
      <point x="308" y="125"/>
      <point x="308" y="0" type="curve"/>
      <point x="366" y="0"/>
      <point x="308" y="0"/>
    </contour>
    <contour>
      <point x="338" y="0" type="curve"/>
      <point x="377" y="0"/>
      <point x="411" y="0"/>
      <point x="449" y="0" type="curve"/>
      <point x="449" y="47"/>
      <point x="449" y="0"/>
      <point x="449" y="47" type="curve"/>
      <point x="332" y="47"/>
      <point x="456" y="47"/>
      <point x="338" y="47" type="curve"/>
      <point x="338" y="0"/>
      <point x="338" y="47"/>
    </contour>
    <contour>
      <point x="334" y="329" type="curve"/>
      <point x="279" y="319"/>
      <point x="250" y="315"/>
      <point x="194" y="304" type="curve"/>
      <point x="108" y="288"/>
      <point x="57" y="238"/>
      <point x="57" y="148" type="curve"/>
      <point x="57" y="57"/>
      <point x="92" y="-5"/>
      <point x="180" y="-5" type="curve"/>
      <point x="276" y="-5"/>
      <point x="314" y="74"/>
      <point x="353" y="152" type="curve"/>
      <point x="322" y="179"/>
      <point x="353" y="152"/>
      <point x="322" y="179" type="curve"/>
      <point x="298" y="110"/>
      <point x="263" y="42"/>
      <point x="193" y="42" type="curve"/>
      <point x="131" y="42"/>
      <point x="113" y="87"/>
      <point x="113" y="151" type="curve"/>
      <point x="113" y="211"/>
      <point x="144" y="251"/>
      <point x="194" y="262" type="curve"/>
      <point x="253" y="273"/>
      <point x="279" y="278"/>
      <point x="338" y="288" type="curve"/>
      <point x="334" y="329"/>
      <point x="338" y="288"/>
    </contour>
    <contour>
      <point x="348" y="33" type="curve"/>
      <point x="296" y="6"/>
      <point x="258" y="-28"/>
      <point x="258" y="-86" type="curve"/>
      <point x="258" y="-144"/>
      <point x="287" y="-190"/>
      <point x="342" y="-190" type="curve"/>
      <point x="370" y="-190"/>
      <point x="390" y="-176"/>
      <point x="411" y="-158" type="curve"/>
      <point x="389" y="-129"/>
      <point x="405" y="-152"/>
      <point x="383" y="-124" type="curve"/>
      <point x="371" y="-134"/>
      <point x="360" y="-143"/>
      <point x="345" y="-143" type="curve"/>
      <point x="318" y="-143"/>
      <point x="306" y="-116"/>
      <point x="306" y="-86" type="curve"/>
      <point x="306" y="-46"/>
      <point x="333" y="-20"/>
      <point x="369" y="1" type="curve"/>
      <point x="352" y="26"/>
      <point x="365" y="8"/>
    </contour>
  </outline>
</glyph>
<glyph name="Ccaron" format="1">
  <advance width="543"/>
  <unicode hex="010C"/>
  <outline>
    <contour>
      <point x="436" y="655" type="curve"/>
      <point x="436" y="535"/>
      <point x="436" y="655"/>
      <point x="436" y="535" type="curve"/>
      <point x="484" y="535"/>
      <point x="436" y="535"/>
      <point x="484" y="535" type="curve"/>
      <point x="484" y="655"/>
      <point x="484" y="535"/>
      <point x="484" y="655" type="curve"/>
      <point x="436" y="655"/>
      <point x="484" y="655"/>
    </contour>
    <contour>
      <point x="484" y="655" type="curve"/>
      <point x="436" y="695"/>
      <point x="379" y="727"/>
      <point x="310" y="727" type="curve"/>
      <point x="121" y="727"/>
      <point x="61" y="562"/>
      <point x="61" y="344" type="curve"/>
      <point x="61" y="146"/>
      <point x="119" y="-5"/>
      <point x="295" y="-5" type="curve"/>
      <point x="386" y="-5"/>
      <point x="441" y="33"/>
      <point x="497" y="97" type="curve"/>
      <point x="462" y="132"/>
      <point x="496" y="97"/>
      <point x="461" y="132" type="curve"/>
      <point x="415" y="80"/>
      <point x="371" y="46"/>
      <point x="298" y="46" type="curve"/>
      <point x="154" y="46"/>
      <point x="119" y="179"/>
      <point x="119" y="346" type="curve"/>
      <point x="119" y="529"/>
      <point x="155" y="677"/>
      <point x="308" y="677" type="curve"/>
      <point x="365" y="677"/>
      <point x="413" y="651"/>
      <point x="452" y="618" type="curve"/>
      <point x="484" y="655"/>
      <point x="452" y="618"/>
    </contour>
    <contour>
      <point x="370" y="979" type="line"/>
      <point x="282" y="813" type="line"/>
      <point x="354" y="813" type="line"/>
      <point x="425" y="979" type="line"/>
    </contour>
    <contour>
      <point x="188" y="979" type="line"/>
      <point x="260" y="813" type="line"/>
      <point x="331" y="813" type="line"/>
      <point x="244" y="979" type="line"/>
    </contour>
  </outline>
</glyph>
<glyph name="Dcaron" format="1">
  <advance width="613"/>
  <unicode hex="010E"/>
  <outline>
    <contour>
      <point x="166" y="47" type="curve"/>
      <point x="33" y="47"/>
      <point x="181" y="47"/>
      <point x="47" y="47" type="curve"/>
      <point x="47" y="0"/>
      <point x="47" y="47"/>
      <point x="47" y="0" type="curve"/>
      <point x="92" y="0"/>
      <point x="122" y="0"/>
      <point x="166" y="0" type="curve"/>
      <point x="166" y="47"/>
      <point x="166" y="0"/>
    </contour>
    <contour>
      <point x="166" y="722" type="curve"/>
      <point x="122" y="722"/>
      <point x="92" y="722"/>
      <point x="47" y="722" type="curve"/>
      <point x="47" y="675"/>
      <point x="47" y="722"/>
      <point x="47" y="675" type="curve"/>
      <point x="181" y="675"/>
      <point x="33" y="675"/>
      <point x="166" y="675" type="curve"/>
      <point x="166" y="722"/>
      <point x="166" y="675"/>
    </contour>
    <contour>
      <point x="136" y="722" type="curve"/>
      <point x="136" y="481"/>
      <point x="136" y="241"/>
      <point x="136" y="0" type="curve"/>
      <point x="194" y="0"/>
      <point x="136" y="0"/>
      <point x="194" y="0" type="curve"/>
      <point x="194" y="241"/>
      <point x="194" y="481"/>
      <point x="194" y="722" type="curve"/>
      <point x="136" y="722"/>
      <point x="194" y="722"/>
    </contour>
    <contour>
      <point x="166" y="0" type="curve"/>
      <point x="212" y="0"/>
      <point x="246" y="0"/>
      <point x="292" y="0" type="curve"/>
      <point x="482" y="0"/>
      <point x="554" y="148"/>
      <point x="554" y="355" type="curve"/>
      <point x="554" y="570"/>
      <point x="480" y="722"/>
      <point x="285" y="722" type="curve"/>
      <point x="242" y="722"/>
      <point x="209" y="722"/>
      <point x="166" y="722" type="curve"/>
      <point x="166" y="685"/>
      <point x="166" y="712"/>
      <point x="166" y="675" type="curve"/>
      <point x="209" y="675"/>
      <point x="240" y="675"/>
      <point x="283" y="675" type="curve"/>
      <point x="446" y="675"/>
      <point x="497" y="538"/>
      <point x="497" y="354" type="curve"/>
      <point x="497" y="180"/>
      <point x="451" y="47"/>
      <point x="297" y="47" type="curve"/>
      <point x="250" y="47"/>
      <point x="214" y="47"/>
      <point x="166" y="47" type="curve"/>
      <point x="166" y="10"/>
      <point x="166" y="37"/>
    </contour>
    <contour>
      <point x="330" y="978" type="line"/>
      <point x="243" y="812" type="line"/>
      <point x="314" y="812" type="line"/>
      <point x="386" y="978" type="line"/>
    </contour>
    <contour>
      <point x="149" y="978" type="line"/>
      <point x="220" y="812" type="line"/>
      <point x="292" y="812" type="line"/>
      <point x="204" y="978" type="line"/>
    </contour>
  </outline>
</glyph>
<glyph name="Dcroat" format="1">
  <advance width="613"/>
  <unicode hex="0110"/>
  <outline>
    <contour>
      <point x="167" y="47" type="curve"/>
      <point x="33" y="47"/>
      <point x="181" y="47"/>
      <point x="48" y="47" type="curve"/>
      <point x="48" y="0"/>
      <point x="48" y="47"/>
      <point x="48" y="0" type="curve"/>
      <point x="92" y="0"/>
      <point x="122" y="0"/>
      <point x="167" y="0" type="curve"/>
      <point x="167" y="47"/>
      <point x="167" y="0"/>
    </contour>
    <contour>
      <point x="167" y="722" type="curve"/>
      <point x="122" y="722"/>
      <point x="92" y="722"/>
      <point x="48" y="722" type="curve"/>
      <point x="48" y="675"/>
      <point x="48" y="722"/>
      <point x="48" y="675" type="curve"/>
      <point x="181" y="675"/>
      <point x="33" y="675"/>
      <point x="167" y="675" type="curve"/>
      <point x="167" y="722"/>
      <point x="167" y="675"/>
    </contour>
    <contour>
      <point x="137" y="722" type="curve"/>
      <point x="137" y="481"/>
      <point x="137" y="241"/>
      <point x="137" y="0" type="curve"/>
      <point x="194" y="0"/>
      <point x="137" y="0"/>
      <point x="194" y="0" type="curve"/>
      <point x="194" y="241"/>
      <point x="194" y="481"/>
      <point x="194" y="722" type="curve"/>
      <point x="137" y="722"/>
      <point x="194" y="722"/>
    </contour>
    <contour>
      <point x="167" y="0" type="curve"/>
      <point x="212" y="0"/>
      <point x="246" y="0"/>
      <point x="292" y="0" type="curve"/>
      <point x="482" y="0"/>
      <point x="555" y="148"/>
      <point x="555" y="355" type="curve"/>
      <point x="555" y="570"/>
      <point x="480" y="722"/>
      <point x="285" y="722" type="curve"/>
      <point x="243" y="722"/>
      <point x="210" y="722"/>
      <point x="167" y="722" type="curve"/>
      <point x="167" y="685"/>
      <point x="167" y="712"/>
      <point x="167" y="675" type="curve"/>
      <point x="209" y="675"/>
      <point x="240" y="675"/>
      <point x="283" y="675" type="curve"/>
      <point x="446" y="675"/>
      <point x="497" y="538"/>
      <point x="497" y="354" type="curve"/>
      <point x="497" y="180"/>
      <point x="451" y="47"/>
      <point x="297" y="47" type="curve"/>
      <point x="250" y="47"/>
      <point x="214" y="47"/>
      <point x="167" y="47" type="curve"/>
      <point x="167" y="10"/>
      <point x="167" y="37"/>
    </contour>
    <contour>
      <point x="71" y="372" type="curve"/>
      <point x="147" y="372"/>
      <point x="224" y="372"/>
      <point x="299" y="372" type="curve"/>
      <point x="299" y="424"/>
      <point x="299" y="372"/>
      <point x="299" y="424" type="curve"/>
      <point x="224" y="424"/>
      <point x="147" y="424"/>
      <point x="71" y="424" type="curve"/>
      <point x="71" y="372"/>
      <point x="71" y="424"/>
    </contour>
  </outline>
</glyph>
<glyph name="eogonek" format="1">
  <advance width="446"/>
  <unicode hex="0119"/>
  <outline>
    <contour>
      <point x="88" y="260" type="curve"/>
      <point x="181" y="260"/>
      <point x="275" y="260"/>
      <point x="368" y="260" type="curve"/>
      <point x="389" y="260"/>
      <point x="368" y="260"/>
      <point x="389" y="260" type="curve"/>
      <point x="389" y="275"/>
      <point x="389" y="260"/>
      <point x="389" y="275" type="curve"/>
      <point x="389" y="284"/>
      <point x="389" y="292"/>
      <point x="389" y="300" type="curve"/>
      <point x="389" y="437"/>
      <point x="350" y="538"/>
      <point x="230" y="538" type="curve"/>
      <point x="99" y="538"/>
      <point x="59" y="429"/>
      <point x="59" y="280" type="curve"/>
      <point x="59" y="117"/>
      <point x="102" y="-5"/>
      <point x="243" y="-5" type="curve"/>
      <point x="304" y="-5"/>
      <point x="343" y="25"/>
      <point x="383" y="75" type="curve"/>
      <point x="346" y="107"/>
      <point x="383" y="75"/>
      <point x="346" y="107" type="curve"/>
      <point x="318" y="70"/>
      <point x="287" y="44"/>
      <point x="243" y="44" type="curve"/>
      <point x="137" y="44"/>
      <point x="117" y="150"/>
      <point x="117" y="280" type="curve"/>
      <point x="117" y="395"/>
      <point x="132" y="490"/>
      <point x="227" y="490" type="curve"/>
      <point x="314" y="490"/>
      <point x="334" y="408"/>
      <point x="334" y="304" type="curve"/>
      <point x="334" y="294"/>
      <point x="334" y="285"/>
      <point x="334" y="275" type="curve"/>
      <point x="340" y="281"/>
      <point x="346" y="286"/>
      <point x="351" y="292" type="curve"/>
      <point x="356" y="297"/>
      <point x="363" y="299"/>
      <point x="368" y="305" type="curve"/>
      <point x="275" y="305"/>
      <point x="181" y="305"/>
      <point x="88" y="305" type="curve"/>
      <point x="88" y="258"/>
      <point x="88" y="307"/>
    </contour>
    <contour>
      <point x="247" y="33" type="curve"/>
      <point x="195" y="5"/>
      <point x="157" y="-29"/>
      <point x="157" y="-86" type="curve"/>
      <point x="157" y="-145"/>
      <point x="186" y="-191"/>
      <point x="242" y="-191" type="curve"/>
      <point x="270" y="-191"/>
      <point x="289" y="-177"/>
      <point x="311" y="-159" type="curve"/>
      <point x="289" y="-130"/>
      <point x="304" y="-153"/>
      <point x="282" y="-124" type="curve"/>
      <point x="271" y="-135"/>
      <point x="260" y="-144"/>
      <point x="245" y="-144" type="curve"/>
      <point x="217" y="-144"/>
      <point x="206" y="-117"/>
      <point x="206" y="-86" type="curve"/>
      <point x="206" y="-46"/>
      <point x="233" y="-21"/>
      <point x="268" y="0" type="curve"/>
      <point x="252" y="25"/>
      <point x="264" y="7"/>
    </contour>
  </outline>
</glyph>
<glyph name="Imacron" format="1">
  <advance width="318"/>
  <unicode hex="012A"/>
  <outline>
    <contour>
      <point x="159" y="722" type="curve"/>
      <point x="115" y="722"/>
      <point x="84" y="722"/>
      <point x="40" y="722" type="curve"/>
      <point x="40" y="675"/>
      <point x="40" y="722"/>
      <point x="40" y="675" type="curve"/>
      <point x="173" y="675"/>
      <point x="25" y="675"/>
      <point x="159" y="675" type="curve"/>
      <point x="159" y="722"/>
      <point x="159" y="675"/>
    </contour>
    <contour>
      <point x="159" y="675" type="curve"/>
      <point x="293" y="675"/>
      <point x="145" y="675"/>
      <point x="279" y="675" type="curve"/>
      <point x="279" y="722"/>
      <point x="279" y="675"/>
      <point x="279" y="722" type="curve"/>
      <point x="234" y="722"/>
      <point x="203" y="722"/>
      <point x="159" y="722" type="curve"/>
      <point x="159" y="675"/>
      <point x="159" y="722"/>
    </contour>
    <contour>
      <point x="159" y="0" type="curve"/>
      <point x="203" y="0"/>
      <point x="234" y="0"/>
      <point x="279" y="0" type="curve"/>
      <point x="279" y="47"/>
      <point x="279" y="0"/>
      <point x="279" y="47" type="curve"/>
      <point x="145" y="47"/>
      <point x="293" y="47"/>
      <point x="159" y="47" type="curve"/>
      <point x="159" y="0"/>
      <point x="159" y="47"/>
    </contour>
    <contour>
      <point x="159" y="47" type="curve"/>
      <point x="25" y="47"/>
      <point x="173" y="47"/>
      <point x="40" y="47" type="curve"/>
      <point x="40" y="0"/>
      <point x="40" y="47"/>
      <point x="40" y="0" type="curve"/>
      <point x="84" y="0"/>
      <point x="115" y="0"/>
      <point x="159" y="0" type="curve"/>
      <point x="159" y="47"/>
      <point x="159" y="0"/>
    </contour>
    <contour>
      <point x="187" y="0" type="curve"/>
      <point x="187" y="241"/>
      <point x="187" y="481"/>
      <point x="187" y="722" type="curve"/>
      <point x="130" y="722"/>
      <point x="187" y="722"/>
      <point x="130" y="722" type="curve"/>
      <point x="130" y="481"/>
      <point x="130" y="241"/>
      <point x="130" y="0" type="curve"/>
      <point x="187" y="0"/>
      <point x="130" y="0"/>
    </contour>
    <contour>
      <point x="239" y="858" type="curve"/>
      <point x="186" y="858"/>
      <point x="132" y="858"/>
      <point x="79" y="858" type="curve"/>
      <point x="79" y="812"/>
      <point x="79" y="858"/>
      <point x="79" y="812" type="curve"/>
      <point x="132" y="812"/>
      <point x="186" y="812"/>
      <point x="239" y="812" type="curve"/>
      <point x="239" y="858"/>
      <point x="239" y="812"/>
    </contour>
  </outline>
</glyph>
<glyph name="Idotaccent" format="1">
  <advance width="318"/>
  <unicode hex="0130"/>
  <outline>
    <contour>
      <point x="159" y="722" type="curve"/>
      <point x="115" y="722"/>
      <point x="84" y="722"/>
      <point x="40" y="722" type="curve"/>
      <point x="40" y="675"/>
      <point x="40" y="722"/>
      <point x="40" y="675" type="curve"/>
      <point x="173" y="675"/>
      <point x="25" y="675"/>
      <point x="159" y="675" type="curve"/>
      <point x="159" y="722"/>
      <point x="159" y="675"/>
    </contour>
    <contour>
      <point x="159" y="675" type="curve"/>
      <point x="293" y="675"/>
      <point x="145" y="675"/>
      <point x="279" y="675" type="curve"/>
      <point x="279" y="722"/>
      <point x="279" y="675"/>
      <point x="279" y="722" type="curve"/>
      <point x="234" y="722"/>
      <point x="203" y="722"/>
      <point x="159" y="722" type="curve"/>
      <point x="159" y="675"/>
      <point x="159" y="722"/>
    </contour>
    <contour>
      <point x="159" y="0" type="curve"/>
      <point x="203" y="0"/>
      <point x="234" y="0"/>
      <point x="279" y="0" type="curve"/>
      <point x="279" y="47"/>
      <point x="279" y="0"/>
      <point x="279" y="47" type="curve"/>
      <point x="145" y="47"/>
      <point x="293" y="47"/>
      <point x="159" y="47" type="curve"/>
      <point x="159" y="0"/>
      <point x="159" y="47"/>
    </contour>
    <contour>
      <point x="159" y="47" type="curve"/>
      <point x="25" y="47"/>
      <point x="173" y="47"/>
      <point x="40" y="47" type="curve"/>
      <point x="40" y="0"/>
      <point x="40" y="47"/>
      <point x="40" y="0" type="curve"/>
      <point x="84" y="0"/>
      <point x="115" y="0"/>
      <point x="159" y="0" type="curve"/>
      <point x="159" y="47"/>
      <point x="159" y="0"/>
    </contour>
    <contour>
      <point x="187" y="0" type="curve"/>
      <point x="187" y="241"/>
      <point x="187" y="481"/>
      <point x="187" y="722" type="curve"/>
      <point x="130" y="722"/>
      <point x="187" y="722"/>
      <point x="130" y="722" type="curve"/>
      <point x="130" y="481"/>
      <point x="130" y="241"/>
      <point x="130" y="0" type="curve"/>
      <point x="187" y="0"/>
      <point x="130" y="0"/>
    </contour>
    <contour>
      <point x="194" y="840" type="curve"/>
      <point x="194" y="861"/>
      <point x="180" y="872"/>
      <point x="160" y="872" type="curve"/>
      <point x="139" y="872"/>
      <point x="127" y="860"/>
      <point x="127" y="840" type="curve"/>
      <point x="194" y="840"/>
      <point x="127" y="840"/>
      <point x="194" y="840" type="curve"/>
      <point x="194" y="818"/>
      <point x="180" y="808"/>
      <point x="160" y="808" type="curve"/>
      <point x="139" y="808"/>
      <point x="127" y="819"/>
      <point x="127" y="840" type="curve"/>
      <point x="194" y="840"/>
      <point x="127" y="840"/>
    </contour>
  </outline>
</glyph>
<glyph name="dotlessi" format="1">
  <advance width="287"/>
  <unicode hex="0131"/>
  <outline>
    <contour>
      <point x="157" y="654" type="move" name="top"/>
    </contour>
    <contour>
      <point x="158" y="47" type="curve"/>
      <point x="32" y="47"/>
      <point x="164" y="47"/>
      <point x="39" y="47" type="curve"/>
      <point x="39" y="0"/>
      <point x="39" y="47"/>
      <point x="39" y="0" type="curve"/>
      <point x="80" y="0"/>
      <point x="116" y="0"/>
      <point x="158" y="0" type="curve"/>
      <point x="158" y="47"/>
      <point x="158" y="0"/>
    </contour>
    <contour>
      <point x="158" y="0" type="curve"/>
      <point x="197" y="0"/>
      <point x="230" y="0"/>
      <point x="270" y="0" type="curve"/>
      <point x="270" y="47"/>
      <point x="270" y="0"/>
      <point x="270" y="47" type="curve"/>
      <point x="151" y="47"/>
      <point x="276" y="47"/>
      <point x="158" y="47" type="curve"/>
      <point x="158" y="0"/>
      <point x="158" y="47"/>
    </contour>
    <contour>
      <point x="158" y="533" type="curve"/>
      <point x="116" y="533"/>
      <point x="80" y="533"/>
      <point x="39" y="533" type="curve"/>
      <point x="39" y="486"/>
      <point x="39" y="533"/>
      <point x="39" y="486" type="curve"/>
      <point x="164" y="486"/>
      <point x="32" y="486"/>
      <point x="158" y="486" type="curve"/>
      <point x="158" y="533"/>
      <point x="158" y="486"/>
    </contour>
    <contour>
      <point x="188" y="0" type="curve"/>
      <point x="188" y="178"/>
      <point x="188" y="355"/>
      <point x="188" y="533" type="curve"/>
      <point x="127" y="533"/>
      <point x="188" y="533"/>
      <point x="127" y="533" type="curve"/>
      <point x="127" y="355"/>
      <point x="127" y="178"/>
      <point x="127" y="0" type="curve"/>
      <point x="188" y="0"/>
      <point x="127" y="0"/>
    </contour>
  </outline>
</glyph>
<glyph name="Kcommaaccent" format="1">
  <advance width="568"/>
  <unicode hex="0136"/>
  <outline>
    <contour>
      <point x="431" y="722" type="curve"/>
      <point x="386" y="722"/>
      <point x="368" y="722"/>
      <point x="324" y="722" type="curve"/>
      <point x="324" y="675"/>
      <point x="324" y="722"/>
      <point x="324" y="675" type="curve"/>
      <point x="457" y="675"/>
      <point x="297" y="675"/>
      <point x="431" y="675" type="curve"/>
      <point x="431" y="722"/>
      <point x="431" y="675"/>
    </contour>
    <contour>
      <point x="441" y="0" type="curve"/>
      <point x="491" y="0"/>
      <point x="503" y="0"/>
      <point x="553" y="0" type="curve"/>
      <point x="553" y="47"/>
      <point x="553" y="0"/>
      <point x="553" y="47" type="curve"/>
      <point x="403" y="47"/>
      <point x="591" y="47"/>
      <point x="441" y="47" type="curve"/>
      <point x="441" y="0"/>
      <point x="441" y="47"/>
    </contour>
    <contour>
      <point x="422" y="675" type="curve"/>
      <point x="556" y="675"/>
      <point x="401" y="675"/>
      <point x="534" y="675" type="curve"/>
      <point x="534" y="722"/>
      <point x="534" y="675"/>
      <point x="534" y="722" type="curve"/>
      <point x="490" y="722"/>
      <point x="467" y="722"/>
      <point x="422" y="722" type="curve"/>
      <point x="422" y="675"/>
      <point x="422" y="722"/>
    </contour>
    <contour>
      <point x="157" y="722" type="curve"/>
      <point x="113" y="722"/>
      <point x="83" y="722"/>
      <point x="39" y="722" type="curve"/>
      <point x="39" y="675"/>
      <point x="39" y="722"/>
      <point x="39" y="675" type="curve"/>
      <point x="172" y="675"/>
      <point x="25" y="675"/>
      <point x="157" y="675" type="curve"/>
      <point x="157" y="722"/>
      <point x="157" y="675"/>
    </contour>
    <contour>
      <point x="157" y="675" type="curve"/>
      <point x="291" y="675"/>
      <point x="126" y="675"/>
      <point x="259" y="675" type="curve"/>
      <point x="259" y="722"/>
      <point x="259" y="675"/>
      <point x="259" y="722" type="curve"/>
      <point x="215" y="722"/>
      <point x="202" y="722"/>
      <point x="157" y="722" type="curve"/>
      <point x="157" y="675"/>
      <point x="157" y="722"/>
    </contour>
    <contour>
      <point x="157" y="0" type="curve"/>
      <point x="203" y="0"/>
      <point x="125" y="0"/>
      <point x="263" y="0" type="curve"/>
      <point x="263" y="47"/>
      <point x="263" y="0"/>
      <point x="263" y="47" type="curve"/>
      <point x="125" y="47"/>
      <point x="295" y="47"/>
      <point x="157" y="47" type="curve"/>
      <point x="157" y="0"/>
      <point x="157" y="47"/>
    </contour>
    <contour>
      <point x="157" y="47" type="curve"/>
      <point x="25" y="47"/>
      <point x="172" y="47"/>
      <point x="39" y="47" type="curve"/>
      <point x="39" y="0"/>
      <point x="39" y="47"/>
      <point x="39" y="0" type="curve"/>
      <point x="83" y="0"/>
      <point x="113" y="0"/>
      <point x="157" y="0" type="curve"/>
      <point x="157" y="47"/>
      <point x="157" y="0"/>
    </contour>
    <contour>
      <point x="419" y="722" type="curve"/>
      <point x="172" y="380" type="line"/>
      <point x="239" y="380"/>
      <point x="169" y="380"/>
      <point x="236" y="380" type="curve"/>
      <point x="472" y="704" type="line"/>
      <point x="415" y="704"/>
      <point x="475" y="722"/>
    </contour>
    <contour>
      <point x="186" y="0" type="curve"/>
      <point x="186" y="722" type="line"/>
      <point x="129" y="722"/>
      <point x="186" y="722"/>
      <point x="129" y="722" type="curve"/>
      <point x="129" y="481"/>
      <point x="129" y="241"/>
      <point x="129" y="0" type="curve"/>
      <point x="186" y="0"/>
      <point x="129" y="0"/>
    </contour>
    <contour>
      <point x="493" y="15" type="curve"/>
      <point x="236" y="380" type="line"/>
      <point x="169" y="380"/>
      <point x="239" y="380"/>
      <point x="172" y="380" type="curve"/>
      <point x="435" y="0" type="line"/>
      <point x="496" y="0"/>
      <point x="431" y="15"/>
    </contour>
    <contour>
      <point x="255" y="-262" type="line"/>
      <point x="300" y="-245"/>
      <point x="332" y="-206"/>
      <point x="332" y="-142" type="curve"/>
      <point x="332" y="-102"/>
      <point x="320" y="-77"/>
      <point x="294" y="-77" type="curve"/>
      <point x="272" y="-77"/>
      <point x="259" y="-89"/>
      <point x="259" y="-110" type="curve"/>
      <point x="259" y="-128"/>
      <point x="268" y="-141"/>
      <point x="287" y="-145" type="curve"/>
      <point x="287" y="-167"/>
      <point x="279" y="-208"/>
      <point x="244" y="-228" type="curve"/>
    </contour>
  </outline>
</glyph>
<glyph name="lacute" format="1">
  <advance width="274"/>
  <unicode hex="013A"/>
  <outline>
    <contour>
      <point x="137" y="47" type="curve"/>
      <point x="11" y="47"/>
      <point x="137" y="47"/>
      <point x="11" y="47" type="curve"/>
      <point x="11" y="0"/>
      <point x="11" y="47"/>
      <point x="11" y="0" type="curve"/>
      <point x="54" y="0"/>
      <point x="95" y="0"/>
      <point x="137" y="0" type="curve"/>
      <point x="137" y="47"/>
      <point x="137" y="0"/>
    </contour>
    <contour>
      <point x="139" y="800" type="curve"/>
      <point x="96" y="800"/>
      <point x="55" y="800"/>
      <point x="12" y="800" type="curve"/>
      <point x="12" y="753"/>
      <point x="12" y="800"/>
      <point x="12" y="753" type="curve"/>
      <point x="139" y="753"/>
      <point x="12" y="753"/>
      <point x="139" y="753" type="curve"/>
      <point x="139" y="800"/>
      <point x="139" y="753"/>
    </contour>
    <contour>
      <point x="137" y="0" type="curve"/>
      <point x="180" y="0"/>
      <point x="221" y="0"/>
      <point x="264" y="0" type="curve"/>
      <point x="264" y="47"/>
      <point x="264" y="0"/>
      <point x="264" y="47" type="curve"/>
      <point x="137" y="47"/>
      <point x="264" y="47"/>
      <point x="137" y="47" type="curve"/>
      <point x="137" y="0"/>
      <point x="137" y="47"/>
    </contour>
    <contour>
      <point x="165" y="0" type="curve"/>
      <point x="165" y="267"/>
      <point x="165" y="533"/>
      <point x="165" y="800" type="curve"/>
      <point x="108" y="800"/>
      <point x="165" y="800"/>
      <point x="108" y="800" type="curve"/>
      <point x="108" y="533"/>
      <point x="108" y="267"/>
      <point x="108" y="0" type="curve"/>
      <point x="165" y="0"/>
      <point x="108" y="0"/>
    </contour>
    <contour>
      <point x="163" y="886" type="line"/>
      <point x="251" y="1052" type="line"/>
      <point x="179" y="1052" type="line"/>
      <point x="108" y="886" type="line"/>
    </contour>
  </outline>
</glyph>
<glyph name="Lcommaaccent" format="1">
  <advance width="493"/>
  <unicode hex="013B"/>
  <outline>
    <contour>
      <point x="460" y="23" type="curve"/>
      <point x="460" y="143"/>
      <point x="460" y="16"/>
      <point x="460" y="136" type="curve"/>
      <point x="412" y="136"/>
      <point x="460" y="136"/>
      <point x="412" y="136" type="curve"/>
      <point x="412" y="16"/>
      <point x="412" y="143"/>
      <point x="412" y="23" type="curve"/>
      <point x="460" y="23"/>
      <point x="412" y="23"/>
    </contour>
    <contour>
      <point x="158" y="47" type="curve"/>
      <point x="25" y="47"/>
      <point x="172" y="47"/>
      <point x="39" y="47" type="curve"/>
      <point x="39" y="0"/>
      <point x="39" y="47"/>
      <point x="39" y="0" type="curve"/>
      <point x="83" y="0"/>
      <point x="114" y="0"/>
      <point x="158" y="0" type="curve"/>
      <point x="158" y="47"/>
      <point x="158" y="0"/>
    </contour>
    <contour>
      <point x="158" y="722" type="curve"/>
      <point x="114" y="722"/>
      <point x="83" y="722"/>
      <point x="39" y="722" type="curve"/>
      <point x="39" y="675"/>
      <point x="39" y="722"/>
      <point x="39" y="675" type="curve"/>
      <point x="172" y="675"/>
      <point x="24" y="675"/>
      <point x="158" y="675" type="curve"/>
      <point x="158" y="722"/>
      <point x="158" y="675"/>
    </contour>
    <contour>
      <point x="158" y="675" type="curve"/>
      <point x="291" y="675"/>
      <point x="144" y="675"/>
      <point x="277" y="675" type="curve"/>
      <point x="277" y="722"/>
      <point x="277" y="675"/>
      <point x="277" y="722" type="curve"/>
      <point x="233" y="722"/>
      <point x="202" y="722"/>
      <point x="158" y="722" type="curve"/>
      <point x="158" y="675"/>
      <point x="158" y="722"/>
    </contour>
    <contour>
      <point x="188" y="0" type="curve"/>
      <point x="188" y="241"/>
      <point x="188" y="481"/>
      <point x="188" y="722" type="curve"/>
      <point x="130" y="722"/>
      <point x="188" y="722"/>
      <point x="130" y="722" type="curve"/>
      <point x="130" y="481"/>
      <point x="130" y="241"/>
      <point x="130" y="0" type="curve"/>
      <point x="188" y="0"/>
      <point x="130" y="0"/>
    </contour>
    <contour>
      <point x="158" y="0" type="curve"/>
      <point x="259" y="0"/>
      <point x="359" y="0"/>
      <point x="460" y="0" type="curve"/>
      <point x="460" y="47"/>
      <point x="460" y="0"/>
      <point x="460" y="47" type="curve"/>
      <point x="359" y="47"/>
      <point x="259" y="47"/>
      <point x="158" y="47" type="curve"/>
      <point x="158" y="0"/>
      <point x="158" y="47"/>
    </contour>
    <contour>
      <point x="233" y="-260" type="line"/>
      <point x="278" y="-243"/>
      <point x="309" y="-204"/>
      <point x="309" y="-140" type="curve"/>
      <point x="309" y="-100"/>
      <point x="298" y="-75"/>
      <point x="271" y="-75" type="curve"/>
      <point x="250" y="-75"/>
      <point x="236" y="-87"/>
      <point x="236" y="-109" type="curve"/>
      <point x="236" y="-126"/>
      <point x="245" y="-139"/>
      <point x="264" y="-143" type="curve"/>
      <point x="264" y="-166"/>
      <point x="256" y="-206"/>
      <point x="222" y="-226" type="curve"/>
    </contour>
  </outline>
</glyph>
<glyph name="lcommaaccent" format="1">
  <advance width="274"/>
  <unicode hex="013C"/>
  <outline>
    <contour>
      <point x="137" y="47" type="curve"/>
      <point x="11" y="47"/>
      <point x="137" y="47"/>
      <point x="11" y="47" type="curve"/>
      <point x="11" y="0"/>
      <point x="11" y="47"/>
      <point x="11" y="0" type="curve"/>
      <point x="54" y="0"/>
      <point x="95" y="0"/>
      <point x="137" y="0" type="curve"/>
      <point x="137" y="47"/>
      <point x="137" y="0"/>
    </contour>
    <contour>
      <point x="139" y="800" type="curve"/>
      <point x="96" y="800"/>
      <point x="55" y="800"/>
      <point x="12" y="800" type="curve"/>
      <point x="12" y="753"/>
      <point x="12" y="800"/>
      <point x="12" y="753" type="curve"/>
      <point x="139" y="753"/>
      <point x="12" y="753"/>
      <point x="139" y="753" type="curve"/>
      <point x="139" y="800"/>
      <point x="139" y="753"/>
    </contour>
    <contour>
      <point x="137" y="0" type="curve"/>
      <point x="180" y="0"/>
      <point x="221" y="0"/>
      <point x="264" y="0" type="curve"/>
      <point x="264" y="47"/>
      <point x="264" y="0"/>
      <point x="264" y="47" type="curve"/>
      <point x="137" y="47"/>
      <point x="264" y="47"/>
      <point x="137" y="47" type="curve"/>
      <point x="137" y="0"/>
      <point x="137" y="47"/>
    </contour>
    <contour>
      <point x="165" y="0" type="curve"/>
      <point x="165" y="267"/>
      <point x="165" y="533"/>
      <point x="165" y="800" type="curve"/>
      <point x="108" y="800"/>
      <point x="165" y="800"/>
      <point x="108" y="800" type="curve"/>
      <point x="108" y="533"/>
      <point x="108" y="267"/>
      <point x="108" y="0" type="curve"/>
      <point x="165" y="0"/>
      <point x="108" y="0"/>
    </contour>
    <contour>
      <point x="89" y="-262" type="line"/>
      <point x="133" y="-244"/>
      <point x="165" y="-205"/>
      <point x="165" y="-141" type="curve"/>
      <point x="165" y="-102"/>
      <point x="153" y="-77"/>
      <point x="127" y="-77" type="curve"/>
      <point x="106" y="-77"/>
      <point x="92" y="-88"/>
      <point x="92" y="-110" type="curve"/>
      <point x="92" y="-128"/>
      <point x="101" y="-141"/>
      <point x="120" y="-144" type="curve"/>
      <point x="120" y="-167"/>
      <point x="112" y="-208"/>
      <point x="77" y="-227" type="curve"/>
    </contour>
  </outline>
</glyph>
<glyph name="lcaron" format="1">
  <advance width="295"/>
  <unicode hex="013E"/>
  <outline>
    <contour>
      <point x="137" y="47" type="curve"/>
      <point x="11" y="47"/>
      <point x="137" y="47"/>
      <point x="11" y="47" type="curve"/>
      <point x="11" y="0"/>
      <point x="11" y="47"/>
      <point x="11" y="0" type="curve"/>
      <point x="54" y="0"/>
      <point x="95" y="0"/>
      <point x="137" y="0" type="curve"/>
      <point x="137" y="47"/>
      <point x="137" y="0"/>
    </contour>
    <contour>
      <point x="139" y="800" type="curve"/>
      <point x="96" y="800"/>
      <point x="55" y="800"/>
      <point x="12" y="800" type="curve"/>
      <point x="12" y="753"/>
      <point x="12" y="800"/>
      <point x="12" y="753" type="curve"/>
      <point x="139" y="753"/>
      <point x="12" y="753"/>
      <point x="139" y="753" type="curve"/>
      <point x="139" y="800"/>
      <point x="139" y="753"/>
    </contour>
    <contour>
      <point x="137" y="0" type="curve"/>
      <point x="180" y="0"/>
      <point x="221" y="0"/>
      <point x="264" y="0" type="curve"/>
      <point x="264" y="47"/>
      <point x="264" y="0"/>
      <point x="264" y="47" type="curve"/>
      <point x="137" y="47"/>
      <point x="264" y="47"/>
      <point x="137" y="47" type="curve"/>
      <point x="137" y="0"/>
      <point x="137" y="47"/>
    </contour>
    <contour>
      <point x="165" y="0" type="curve"/>
      <point x="165" y="267"/>
      <point x="165" y="533"/>
      <point x="165" y="800" type="curve"/>
      <point x="108" y="800"/>
      <point x="165" y="800"/>
      <point x="108" y="800" type="curve"/>
      <point x="108" y="533"/>
      <point x="108" y="267"/>
      <point x="108" y="0" type="curve"/>
      <point x="165" y="0"/>
      <point x="108" y="0"/>
    </contour>
    <contour>
      <point x="296" y="643" type="line"/>
      <point x="341" y="660"/>
      <point x="373" y="700"/>
      <point x="373" y="764" type="curve"/>
      <point x="373" y="803"/>
      <point x="361" y="828"/>
      <point x="335" y="828" type="curve"/>
      <point x="313" y="828"/>
      <point x="300" y="817"/>
      <point x="300" y="795" type="curve"/>
      <point x="300" y="777"/>
      <point x="309" y="764"/>
      <point x="328" y="761" type="curve"/>
      <point x="328" y="738"/>
      <point x="320" y="697"/>
      <point x="285" y="677" type="curve"/>
    </contour>
  </outline>
</glyph>
<glyph name="lslash" format="1">
  <advance width="280"/>
  <unicode hex="0142"/>
  <outline>
    <contour>
      <point x="39" y="303" type="curve"/>
      <point x="108" y="361"/>
      <point x="178" y="420"/>
      <point x="246" y="478" type="curve"/>
      <point x="246" y="534"/>
      <point x="246" y="478"/>
      <point x="246" y="534" type="curve"/>
      <point x="178" y="476"/>
      <point x="108" y="418"/>
      <point x="39" y="360" type="curve"/>
      <point x="39" y="303"/>
      <point x="39" y="360"/>
    </contour>
    <contour>
      <point x="142" y="47" type="curve"/>
      <point x="16" y="47"/>
      <point x="142" y="47"/>
      <point x="16" y="47" type="curve"/>
      <point x="16" y="0"/>
      <point x="16" y="47"/>
      <point x="16" y="0" type="curve"/>
      <point x="58" y="0"/>
      <point x="100" y="0"/>
      <point x="142" y="0" type="curve"/>
      <point x="142" y="47"/>
      <point x="142" y="0"/>
    </contour>
    <contour>
      <point x="143" y="800" type="curve"/>
      <point x="101" y="800"/>
      <point x="59" y="800"/>
      <point x="17" y="800" type="curve"/>
      <point x="17" y="753"/>
      <point x="17" y="800"/>
      <point x="17" y="753" type="curve"/>
      <point x="143" y="753"/>
      <point x="17" y="753"/>
      <point x="143" y="753" type="curve"/>
      <point x="143" y="800"/>
      <point x="143" y="753"/>
    </contour>
    <contour>
      <point x="142" y="0" type="curve"/>
      <point x="185" y="0"/>
      <point x="226" y="0"/>
      <point x="269" y="0" type="curve"/>
      <point x="269" y="47"/>
      <point x="269" y="0"/>
      <point x="269" y="47" type="curve"/>
      <point x="142" y="47"/>
      <point x="269" y="47"/>
      <point x="142" y="47" type="curve"/>
      <point x="142" y="0"/>
      <point x="142" y="47"/>
    </contour>
    <contour>
      <point x="170" y="0" type="curve"/>
      <point x="170" y="267"/>
      <point x="170" y="533"/>
      <point x="170" y="800" type="curve"/>
      <point x="113" y="800"/>
      <point x="170" y="800"/>
      <point x="113" y="800" type="curve"/>
      <point x="113" y="533"/>
      <point x="113" y="267"/>
      <point x="113" y="0" type="curve"/>
      <point x="170" y="0"/>
      <point x="113" y="0"/>
    </contour>
  </outline>
</glyph>
<glyph name="Ncaron" format="1">
  <advance width="688"/>
  <unicode hex="0147"/>
  <outline>
    <contour>
      <point x="159" y="722" type="curve"/>
      <point x="114" y="722"/>
      <point x="84" y="722"/>
      <point x="40" y="722" type="curve"/>
      <point x="40" y="675"/>
      <point x="40" y="722"/>
      <point x="40" y="675" type="curve"/>
      <point x="173" y="675"/>
      <point x="26" y="675"/>
      <point x="159" y="675" type="curve"/>
      <point x="159" y="722"/>
      <point x="159" y="675"/>
    </contour>
    <contour>
      <point x="544" y="675" type="curve"/>
      <point x="676" y="675"/>
      <point x="530" y="675"/>
      <point x="662" y="675" type="curve"/>
      <point x="662" y="722"/>
      <point x="662" y="675"/>
      <point x="662" y="722" type="curve"/>
      <point x="618" y="722"/>
      <point x="588" y="722"/>
      <point x="544" y="722" type="curve"/>
      <point x="544" y="675"/>
      <point x="544" y="722"/>
    </contour>
    <contour>
      <point x="544" y="722" type="curve"/>
      <point x="501" y="722"/>
      <point x="471" y="722"/>
      <point x="428" y="722" type="curve"/>
      <point x="428" y="675"/>
      <point x="428" y="722"/>
      <point x="428" y="675" type="curve"/>
      <point x="559" y="675"/>
      <point x="413" y="675"/>
      <point x="544" y="675" type="curve"/>
      <point x="544" y="722"/>
      <point x="544" y="675"/>
    </contour>
    <contour>
      <point x="158" y="47" type="curve"/>
      <point x="25" y="47"/>
      <point x="172" y="47"/>
      <point x="40" y="47" type="curve"/>
      <point x="39" y="0"/>
      <point x="40" y="47"/>
      <point x="39" y="0" type="curve"/>
      <point x="83" y="0"/>
      <point x="113" y="0"/>
      <point x="158" y="0" type="curve"/>
      <point x="158" y="47"/>
      <point x="158" y="0"/>
    </contour>
    <contour>
      <point x="158" y="0" type="curve"/>
      <point x="201" y="0"/>
      <point x="143" y="0"/>
      <point x="274" y="0" type="curve"/>
      <point x="274" y="47"/>
      <point x="274" y="0"/>
      <point x="274" y="47" type="curve"/>
      <point x="143" y="47"/>
      <point x="288" y="47"/>
      <point x="158" y="47" type="curve"/>
      <point x="158" y="0"/>
      <point x="158" y="47"/>
    </contour>
    <contour>
      <point x="572" y="0" type="curve"/>
      <point x="445" y="241"/>
      <point x="317" y="481"/>
      <point x="190" y="722" type="curve"/>
      <point x="127" y="722"/>
      <point x="191" y="722"/>
      <point x="128" y="722" type="curve"/>
      <point x="255" y="481"/>
      <point x="383" y="241"/>
      <point x="510" y="0" type="curve"/>
      <point x="573" y="0"/>
      <point x="510" y="0"/>
    </contour>
    <contour>
      <point x="514" y="722" type="curve"/>
      <point x="514" y="481"/>
      <point x="514" y="241"/>
      <point x="514" y="0" type="curve"/>
      <point x="572" y="0"/>
      <point x="514" y="0"/>
      <point x="572" y="0" type="curve"/>
      <point x="572" y="241"/>
      <point x="572" y="481"/>
      <point x="572" y="722" type="curve"/>
      <point x="514" y="722"/>
      <point x="572" y="722"/>
    </contour>
    <contour>
      <point x="186" y="0" type="curve"/>
      <point x="186" y="241"/>
      <point x="186" y="481"/>
      <point x="186" y="722" type="curve"/>
      <point x="129" y="722"/>
      <point x="186" y="722"/>
      <point x="129" y="722" type="curve"/>
      <point x="129" y="481"/>
      <point x="129" y="241"/>
      <point x="129" y="0" type="curve"/>
      <point x="186" y="0"/>
      <point x="129" y="0"/>
    </contour>
    <contour>
      <point x="419" y="979" type="line"/>
      <point x="332" y="813" type="line"/>
      <point x="404" y="813" type="line"/>
      <point x="475" y="979" type="line"/>
    </contour>
    <contour>
      <point x="238" y="979" type="line"/>
      <point x="309" y="813" type="line"/>
      <point x="381" y="813" type="line"/>
      <point x="294" y="979" type="line"/>
    </contour>
  </outline>
</glyph>
<glyph name="Omacron" format="1">
  <advance width="593"/>
  <unicode hex="014C"/>
  <outline>
    <contour>
      <point x="120" y="360" type="curve"/>
      <point x="120" y="529"/>
      <point x="147" y="678"/>
      <point x="295" y="678" type="curve"/>
      <point x="441" y="678"/>
      <point x="474" y="532"/>
      <point x="474" y="363" type="curve"/>
      <point x="474" y="195"/>
      <point x="445" y="44"/>
      <point x="298" y="44" type="curve"/>
      <point x="151" y="44"/>
      <point x="120" y="190"/>
      <point x="120" y="360" type="curve"/>
      <point x="61" y="360"/>
      <point x="120" y="360"/>
      <point x="61" y="360" type="curve"/>
      <point x="61" y="159"/>
      <point x="118" y="-5"/>
      <point x="296" y="-5" type="curve"/>
      <point x="475" y="-5"/>
      <point x="532" y="161"/>
      <point x="532" y="363" type="curve"/>
      <point x="532" y="563"/>
      <point x="476" y="727"/>
      <point x="298" y="727" type="curve"/>
      <point x="119" y="727"/>
      <point x="61" y="561"/>
      <point x="61" y="360" type="curve"/>
      <point x="120" y="360"/>
      <point x="61" y="360"/>
    </contour>
    <contour>
      <point x="376" y="858" type="curve"/>
      <point x="322" y="858"/>
      <point x="268" y="858"/>
      <point x="215" y="858" type="curve"/>
      <point x="215" y="812"/>
      <point x="215" y="858"/>
      <point x="215" y="812" type="curve"/>
      <point x="268" y="812"/>
      <point x="322" y="812"/>
      <point x="376" y="812" type="curve"/>
      <point x="376" y="858"/>
      <point x="376" y="812"/>
    </contour>
  </outline>
</glyph>
<glyph name="ohungarumlaut" format="1">
  <advance width="479"/>
  <unicode hex="0151"/>
  <outline>
    <contour>
      <point x="111" y="267" type="curve"/>
      <point x="111" y="389"/>
      <point x="135" y="490"/>
      <point x="236" y="490" type="curve"/>
      <point x="341" y="490"/>
      <point x="364" y="388"/>
      <point x="364" y="266" type="curve"/>
      <point x="364" y="143"/>
      <point x="341" y="43"/>
      <point x="241" y="43" type="curve"/>
      <point x="131" y="44"/>
      <point x="111" y="145"/>
      <point x="111" y="267" type="curve"/>
      <point x="94" y="267"/>
      <point x="74" y="267"/>
      <point x="56" y="267" type="curve"/>
      <point x="56" y="114"/>
      <point x="101" y="-5"/>
      <point x="238" y="-5" type="curve"/>
      <point x="376" y="-5"/>
      <point x="422" y="112"/>
      <point x="422" y="266" type="curve"/>
      <point x="422" y="420"/>
      <point x="377" y="538"/>
      <point x="239" y="538" type="curve"/>
      <point x="102" y="538"/>
      <point x="56" y="420"/>
      <point x="56" y="267" type="curve"/>
      <point x="74" y="267"/>
      <point x="94" y="267"/>
    </contour>
    <contour>
      <point x="186" y="673" type="line"/>
      <point x="273" y="839" type="line"/>
      <point x="201" y="839" type="line"/>
      <point x="130" y="673" type="line"/>
    </contour>
    <contour>
      <point x="315" y="673" type="line"/>
      <point x="402" y="839" type="line"/>
      <point x="331" y="839" type="line"/>
      <point x="260" y="673" type="line"/>
    </contour>
  </outline>
</glyph>
<glyph name="oe" format="1">
  <advance width="753"/>
  <unicode hex="0153"/>
  <outline>
    <contour>
      <point x="111" y="267" type="curve"/>
      <point x="111" y="389"/>
      <point x="135" y="490"/>
      <point x="236" y="490" type="curve"/>
      <point x="341" y="490"/>
      <point x="364" y="388"/>
      <point x="364" y="266" type="curve"/>
      <point x="364" y="143"/>
      <point x="341" y="43"/>
      <point x="241" y="43" type="curve"/>
      <point x="131" y="44"/>
      <point x="111" y="145"/>
      <point x="111" y="267" type="curve"/>
      <point x="94" y="267"/>
      <point x="74" y="267"/>
      <point x="56" y="267" type="curve"/>
      <point x="56" y="114"/>
      <point x="101" y="-5"/>
      <point x="238" y="-5" type="curve"/>
      <point x="376" y="-5"/>
      <point x="422" y="112"/>
      <point x="422" y="266" type="curve"/>
      <point x="422" y="420"/>
      <point x="377" y="538"/>
      <point x="239" y="538" type="curve"/>
      <point x="102" y="538"/>
      <point x="56" y="420"/>
      <point x="56" y="267" type="curve"/>
      <point x="74" y="267"/>
      <point x="94" y="267"/>
    </contour>
    <contour>
      <point x="396" y="260" type="curve"/>
      <point x="489" y="260"/>
      <point x="583" y="260"/>
      <point x="676" y="260" type="curve"/>
      <point x="696" y="260"/>
      <point x="676" y="260"/>
      <point x="696" y="260" type="curve"/>
      <point x="696" y="275"/>
      <point x="696" y="260"/>
      <point x="696" y="275" type="curve"/>
      <point x="696" y="284"/>
      <point x="696" y="292"/>
      <point x="696" y="300" type="curve"/>
      <point x="696" y="437"/>
      <point x="657" y="538"/>
      <point x="537" y="538" type="curve"/>
      <point x="406" y="538"/>
      <point x="366" y="429"/>
      <point x="366" y="280" type="curve"/>
      <point x="366" y="117"/>
      <point x="409" y="-5"/>
      <point x="550" y="-5" type="curve"/>
      <point x="612" y="-5"/>
      <point x="650" y="25"/>
      <point x="690" y="75" type="curve"/>
      <point x="653" y="107"/>
      <point x="690" y="75"/>
      <point x="653" y="107" type="curve"/>
      <point x="625" y="70"/>
      <point x="594" y="44"/>
      <point x="550" y="44" type="curve"/>
      <point x="444" y="44"/>
      <point x="424" y="150"/>
      <point x="424" y="280" type="curve"/>
      <point x="424" y="395"/>
      <point x="440" y="490"/>
      <point x="534" y="490" type="curve"/>
      <point x="622" y="490"/>
      <point x="641" y="408"/>
      <point x="641" y="304" type="curve"/>
      <point x="641" y="294"/>
      <point x="641" y="285"/>
      <point x="641" y="275" type="curve"/>
      <point x="647" y="281"/>
      <point x="653" y="286"/>
      <point x="658" y="292" type="curve"/>
      <point x="663" y="297"/>
      <point x="670" y="299"/>
      <point x="676" y="305" type="curve"/>
      <point x="583" y="305"/>
      <point x="489" y="305"/>
      <point x="396" y="305" type="curve"/>
      <point x="396" y="258"/>
      <point x="396" y="307"/>
    </contour>
  </outline>
</glyph>
<glyph name="racute" format="1">
  <advance width="361"/>
  <unicode hex="0155"/>
  <outline>
    <contour>
      <point x="157" y="0" type="curve"/>
      <point x="196" y="0"/>
      <point x="230" y="0"/>
      <point x="269" y="0" type="curve"/>
      <point x="269" y="47"/>
      <point x="269" y="0"/>
      <point x="269" y="47" type="curve"/>
      <point x="151" y="47"/>
      <point x="276" y="47"/>
      <point x="157" y="47" type="curve"/>
      <point x="157" y="0"/>
      <point x="157" y="47"/>
    </contour>
    <contour>
      <point x="157" y="47" type="curve"/>
      <point x="32" y="47"/>
      <point x="163" y="47"/>
      <point x="38" y="47" type="curve"/>
      <point x="38" y="0"/>
      <point x="38" y="47"/>
      <point x="38" y="0" type="curve"/>
      <point x="79" y="0"/>
      <point x="115" y="0"/>
      <point x="157" y="0" type="curve"/>
      <point x="157" y="47"/>
      <point x="157" y="0"/>
    </contour>
    <contour>
      <point x="157" y="533" type="curve"/>
      <point x="115" y="533"/>
      <point x="79" y="533"/>
      <point x="38" y="533" type="curve"/>
      <point x="38" y="486"/>
      <point x="38" y="533"/>
      <point x="38" y="486" type="curve"/>
      <point x="163" y="486"/>
      <point x="31" y="486"/>
      <point x="157" y="486" type="curve"/>
      <point x="157" y="533"/>
      <point x="157" y="486"/>
    </contour>
    <contour>
      <point x="186" y="0" type="curve"/>
      <point x="186" y="178"/>
      <point x="186" y="355"/>
      <point x="186" y="533" type="curve"/>
      <point x="128" y="533"/>
      <point x="186" y="533"/>
      <point x="128" y="533" type="curve"/>
      <point x="128" y="355"/>
      <point x="128" y="178"/>
      <point x="128" y="0" type="curve"/>
      <point x="186" y="0"/>
      <point x="128" y="0"/>
    </contour>
    <contour>
      <point x="173" y="346" type="curve"/>
      <point x="193" y="440"/>
      <point x="261" y="490"/>
      <point x="335" y="490" type="curve"/>
      <point x="335" y="542"/>
      <point x="335" y="486"/>
      <point x="335" y="538" type="curve"/>
      <point x="247" y="538"/>
      <point x="175" y="473"/>
      <point x="150" y="378" type="curve"/>
      <point x="173" y="353"/>
      <point x="154" y="369"/>
    </contour>
    <contour>
      <point x="188" y="653" type="line"/>
      <point x="275" y="819" type="line"/>
      <point x="203" y="819" type="line"/>
      <point x="132" y="653" type="line"/>
    </contour>
  </outline>
</glyph>
<glyph name="Rcommaaccent" format="1">
  <advance width="611"/>
  <unicode hex="0156"/>
  <outline>
    <contour>
      <point x="486" y="0" type="curve"/>
      <point x="526" y="0"/>
      <point x="552" y="0"/>
      <point x="593" y="0" type="curve"/>
      <point x="593" y="47"/>
      <point x="593" y="0"/>
      <point x="593" y="47" type="curve"/>
      <point x="471" y="47"/>
      <point x="607" y="47"/>
      <point x="486" y="47" type="curve"/>
      <point x="486" y="0"/>
      <point x="486" y="47"/>
    </contour>
    <contour>
      <point x="164" y="722" type="curve"/>
      <point x="119" y="722"/>
      <point x="90" y="722"/>
      <point x="46" y="722" type="curve"/>
      <point x="46" y="675"/>
      <point x="46" y="722"/>
      <point x="46" y="675" type="curve"/>
      <point x="178" y="675"/>
      <point x="31" y="675"/>
      <point x="164" y="675" type="curve"/>
      <point x="164" y="722"/>
      <point x="164" y="675"/>
    </contour>
    <contour>
      <point x="164" y="47" type="curve"/>
      <point x="31" y="47"/>
      <point x="178" y="47"/>
      <point x="46" y="47" type="curve"/>
      <point x="46" y="0"/>
      <point x="46" y="47"/>
      <point x="46" y="0" type="curve"/>
      <point x="90" y="0"/>
      <point x="119" y="0"/>
      <point x="164" y="0" type="curve"/>
      <point x="164" y="47"/>
      <point x="164" y="0"/>
    </contour>
    <contour>
      <point x="164" y="0" type="curve"/>
      <point x="208" y="0"/>
      <point x="150" y="0"/>
      <point x="282" y="0" type="curve"/>
      <point x="282" y="47"/>
      <point x="282" y="0"/>
      <point x="282" y="47" type="curve"/>
      <point x="150" y="47"/>
      <point x="297" y="47"/>
      <point x="164" y="47" type="curve"/>
      <point x="164" y="0"/>
      <point x="164" y="47"/>
    </contour>
    <contour>
      <point x="281" y="354" type="curve"/>
      <point x="342" y="236"/>
      <point x="403" y="118"/>
      <point x="464" y="0" type="curve"/>
      <point x="527" y="0"/>
      <point x="462" y="0"/>
      <point x="525" y="0" type="curve"/>
      <point x="465" y="118"/>
      <point x="404" y="236"/>
      <point x="342" y="354" type="curve"/>
      <point x="280" y="354"/>
      <point x="344" y="354"/>
    </contour>
    <contour>
      <point x="194" y="0" type="curve"/>
      <point x="194" y="241"/>
      <point x="194" y="481"/>
      <point x="194" y="722" type="curve"/>
      <point x="136" y="722"/>
      <point x="194" y="722"/>
      <point x="136" y="722" type="curve"/>
      <point x="136" y="481"/>
      <point x="136" y="241"/>
      <point x="136" y="0" type="curve"/>
      <point x="194" y="0"/>
      <point x="136" y="0"/>
    </contour>
    <contour>
      <point x="167" y="328" type="curve"/>
      <point x="208" y="328"/>
      <point x="249" y="328"/>
      <point x="291" y="328" type="curve"/>
      <point x="406" y="328"/>
      <point x="465" y="408"/>
      <point x="465" y="532" type="curve"/>
      <point x="465" y="649"/>
      <point x="404" y="722"/>
      <point x="290" y="722" type="curve"/>
      <point x="247" y="722"/>
      <point x="210" y="722"/>
      <point x="167" y="722" type="curve"/>
      <point x="167" y="675"/>
      <point x="167" y="722"/>
      <point x="167" y="675" type="curve"/>
      <point x="207" y="675"/>
      <point x="240" y="675"/>
      <point x="280" y="675" type="curve"/>
      <point x="365" y="675"/>
      <point x="407" y="617"/>
      <point x="407" y="527" type="curve"/>
      <point x="407" y="439"/>
      <point x="373" y="375"/>
      <point x="292" y="375" type="curve"/>
      <point x="250" y="375"/>
      <point x="208" y="375"/>
      <point x="167" y="375" type="curve"/>
      <point x="167" y="328"/>
      <point x="167" y="375"/>
    </contour>
    <contour>
      <point x="271" y="-263" type="line"/>
      <point x="315" y="-245"/>
      <point x="347" y="-206"/>
      <point x="347" y="-142" type="curve"/>
      <point x="347" y="-103"/>
      <point x="335" y="-77"/>
      <point x="309" y="-77" type="curve"/>
      <point x="287" y="-77"/>
      <point x="274" y="-89"/>
      <point x="274" y="-111" type="curve"/>
      <point x="274" y="-129"/>
      <point x="283" y="-141"/>
      <point x="302" y="-145" type="curve"/>
      <point x="302" y="-168"/>
      <point x="294" y="-208"/>
      <point x="259" y="-228" type="curve"/>
    </contour>
  </outline>
</glyph>
<glyph name="Scedilla" format="1">
  <advance width="467"/>
  <unicode hex="015E"/>
  <outline>
    <contour>
      <point x="326" y="662" type="curve"/>
      <point x="326" y="542"/>
      <point x="326" y="663"/>
      <point x="326" y="543" type="curve"/>
      <point x="373" y="543"/>
      <point x="326" y="543"/>
      <point x="373" y="543" type="curve"/>
      <point x="373" y="663"/>
      <point x="373" y="542"/>
      <point x="373" y="662" type="curve"/>
      <point x="326" y="662"/>
      <point x="373" y="662"/>
    </contour>
    <contour>
      <point x="118" y="57" type="curve"/>
      <point x="118" y="177"/>
      <point x="118" y="59"/>
      <point x="118" y="179" type="curve"/>
      <point x="70" y="179"/>
      <point x="118" y="179"/>
      <point x="70" y="179" type="curve"/>
      <point x="70" y="59"/>
      <point x="70" y="177"/>
      <point x="70" y="57" type="curve"/>
      <point x="118" y="57"/>
      <point x="70" y="57"/>
    </contour>
    <contour>
      <point x="70" y="57" type="curve"/>
      <point x="109" y="21"/>
      <point x="158" y="-5"/>
      <point x="221" y="-5" type="curve"/>
      <point x="333" y="-5"/>
      <point x="403" y="63"/>
      <point x="403" y="176" type="curve"/>
      <point x="403" y="282"/>
      <point x="343" y="338"/>
      <point x="255" y="397" type="curve"/>
      <point x="187" y="441"/>
      <point x="137" y="483"/>
      <point x="137" y="556" type="curve"/>
      <point x="136" y="626"/>
      <point x="169" y="678"/>
      <point x="233" y="678" type="curve"/>
      <point x="280" y="678"/>
      <point x="322" y="649"/>
      <point x="346" y="625" type="curve"/>
      <point x="368" y="655"/>
      <point x="352" y="633"/>
      <point x="373" y="662" type="curve"/>
      <point x="334" y="700"/>
      <point x="293" y="723"/>
      <point x="234" y="723" type="curve"/>
      <point x="135" y="723"/>
      <point x="78" y="656"/>
      <point x="78" y="554" type="curve"/>
      <point x="78" y="457"/>
      <point x="136" y="407"/>
      <point x="218" y="353" type="curve"/>
      <point x="292" y="305"/>
      <point x="346" y="257"/>
      <point x="346" y="176" type="curve"/>
      <point x="346" y="103"/>
      <point x="296" y="44"/>
      <point x="224" y="44" type="curve"/>
      <point x="172" y="44"/>
      <point x="134" y="72"/>
      <point x="102" y="101" type="curve"/>
      <point x="76" y="65"/>
      <point x="96" y="92"/>
    </contour>
    <contour>
      <point x="204" y="34" type="curve"/>
      <point x="193" y="9"/>
      <point x="174" y="-38"/>
      <point x="164" y="-63" type="curve"/>
      <point x="204" y="-101"/>
      <point x="164" y="-63"/>
      <point x="204" y="-101" type="curve"/>
      <point x="215" y="-73"/>
      <point x="237" y="-25"/>
      <point x="248" y="1" type="curve"/>
      <point x="204" y="34"/>
      <point x="248" y="1"/>
    </contour>
    <contour>
      <point x="204" y="-101" type="curve"/>
      <point x="212" y="-93"/>
      <point x="218" y="-89"/>
      <point x="229" y="-89" type="curve"/>
      <point x="250" y="-89"/>
      <point x="256" y="-108"/>
      <point x="256" y="-133" type="curve"/>
      <point x="256" y="-160"/>
      <point x="243" y="-178"/>
      <point x="218" y="-178" type="curve"/>
      <point x="200" y="-178"/>
      <point x="185" y="-174"/>
      <point x="171" y="-161" type="curve"/>
      <point x="148" y="-196"/>
      <point x="171" y="-161"/>
      <point x="148" y="-196" type="curve"/>
      <point x="169" y="-213"/>
      <point x="189" y="-220"/>
      <point x="216" y="-220" type="curve"/>
      <point x="267" y="-220"/>
      <point x="298" y="-186"/>
      <point x="298" y="-133" type="curve"/>
      <point x="298" y="-81"/>
      <point x="274" y="-44"/>
      <point x="226" y="-44" type="curve"/>
      <point x="202" y="-44"/>
      <point x="185" y="-50"/>
      <point x="164" y="-63" type="curve"/>
      <point x="204" y="-101"/>
      <point x="164" y="-63"/>
    </contour>
  </outline>
</glyph>
<glyph name="Scaron" format="1">
  <advance width="467"/>
  <unicode hex="0160"/>
  <outline>
    <contour>
      <point x="326" y="662" type="curve"/>
      <point x="326" y="542"/>
      <point x="326" y="663"/>
      <point x="326" y="543" type="curve"/>
      <point x="373" y="543"/>
      <point x="326" y="543"/>
      <point x="373" y="543" type="curve"/>
      <point x="373" y="663"/>
      <point x="373" y="542"/>
      <point x="373" y="662" type="curve"/>
      <point x="326" y="662"/>
      <point x="373" y="662"/>
    </contour>
    <contour>
      <point x="118" y="57" type="curve"/>
      <point x="118" y="177"/>
      <point x="118" y="59"/>
      <point x="118" y="179" type="curve"/>
      <point x="70" y="179"/>
      <point x="118" y="179"/>
      <point x="70" y="179" type="curve"/>
      <point x="70" y="59"/>
      <point x="70" y="177"/>
      <point x="70" y="57" type="curve"/>
      <point x="118" y="57"/>
      <point x="70" y="57"/>
    </contour>
    <contour>
      <point x="70" y="57" type="curve"/>
      <point x="109" y="21"/>
      <point x="158" y="-5"/>
      <point x="221" y="-5" type="curve"/>
      <point x="333" y="-5"/>
      <point x="403" y="63"/>
      <point x="403" y="176" type="curve"/>
      <point x="403" y="282"/>
      <point x="343" y="338"/>
      <point x="255" y="397" type="curve"/>
      <point x="187" y="441"/>
      <point x="137" y="483"/>
      <point x="137" y="556" type="curve"/>
      <point x="136" y="626"/>
      <point x="169" y="678"/>
      <point x="233" y="678" type="curve"/>
      <point x="280" y="678"/>
      <point x="322" y="649"/>
      <point x="346" y="625" type="curve"/>
      <point x="368" y="655"/>
      <point x="352" y="633"/>
      <point x="373" y="662" type="curve"/>
      <point x="334" y="700"/>
      <point x="293" y="723"/>
      <point x="234" y="723" type="curve"/>
      <point x="135" y="723"/>
      <point x="78" y="656"/>
      <point x="78" y="554" type="curve"/>
      <point x="78" y="457"/>
      <point x="136" y="407"/>
      <point x="218" y="353" type="curve"/>
      <point x="292" y="305"/>
      <point x="346" y="257"/>
      <point x="346" y="176" type="curve"/>
      <point x="346" y="103"/>
      <point x="296" y="44"/>
      <point x="224" y="44" type="curve"/>
      <point x="172" y="44"/>
      <point x="134" y="72"/>
      <point x="102" y="101" type="curve"/>
      <point x="76" y="65"/>
      <point x="96" y="92"/>
    </contour>
    <contour>
      <point x="299" y="979" type="line"/>
      <point x="212" y="813" type="line"/>
      <point x="284" y="813" type="line"/>
      <point x="355" y="979" type="line"/>
    </contour>
    <contour>
      <point x="118" y="979" type="line"/>
      <point x="189" y="813" type="line"/>
      <point x="261" y="813" type="line"/>
      <point x="174" y="979" type="line"/>
    </contour>
  </outline>
</glyph>
<glyph name="scaron" format="1">
  <advance width="388"/>
  <unicode hex="0161"/>
  <outline>
    <contour>
      <point x="47" y="48" type="curve"/>
      <point x="93" y="16"/>
      <point x="141" y="-5"/>
      <point x="194" y="-5" type="curve"/>
      <point x="285" y="-5"/>
      <point x="334" y="52"/>
      <point x="334" y="140" type="curve"/>
      <point x="333" y="227"/>
      <point x="280" y="266"/>
      <point x="199" y="300" type="curve" smooth="yes"/>
      <point x="147" y="323"/>
      <point x="118" y="355"/>
      <point x="118" y="412" type="curve"/>
      <point x="118" y="455"/>
      <point x="141" y="490"/>
      <point x="186" y="490" type="curve"/>
      <point x="222" y="490"/>
      <point x="253" y="474"/>
      <point x="279" y="450" type="curve"/>
      <point x="300" y="484"/>
      <point x="284" y="459"/>
      <point x="305" y="492" type="curve"/>
      <point x="273" y="520"/>
      <point x="233" y="538"/>
      <point x="188" y="538" type="curve"/>
      <point x="111" y="538"/>
      <point x="65" y="487"/>
      <point x="65" y="412" type="curve"/>
      <point x="65" y="331"/>
      <point x="106" y="286"/>
      <point x="181" y="255" type="curve" smooth="yes"/>
      <point x="238" y="230"/>
      <point x="279" y="201"/>
      <point x="278" y="137" type="curve"/>
      <point x="278" y="84"/>
      <point x="250" y="44"/>
      <point x="200" y="44" type="curve"/>
      <point x="153" y="44"/>
      <point x="115" y="63"/>
      <point x="76" y="90" type="curve"/>
      <point x="47" y="48"/>
      <point x="76" y="90"/>
    </contour>
    <contour>
      <point x="258" y="492" type="curve"/>
      <point x="258" y="369"/>
      <point x="258" y="499"/>
      <point x="258" y="376" type="curve"/>
      <point x="305" y="376"/>
      <point x="258" y="376"/>
      <point x="305" y="376" type="curve"/>
      <point x="305" y="499"/>
      <point x="305" y="369"/>
      <point x="305" y="492" type="curve"/>
      <point x="268" y="492"/>
      <point x="295" y="492"/>
    </contour>
    <contour>
      <point x="95" y="48" type="curve"/>
      <point x="95" y="173"/>
      <point x="95" y="41"/>
      <point x="95" y="166" type="curve"/>
      <point x="47" y="166"/>
      <point x="95" y="166"/>
      <point x="47" y="166" type="curve"/>
      <point x="47" y="41"/>
      <point x="47" y="173"/>
      <point x="47" y="48" type="curve"/>
      <point x="95" y="48"/>
      <point x="47" y="48"/>
    </contour>
    <contour>
      <point x="256" y="820" type="line"/>
      <point x="168" y="654" type="line"/>
      <point x="240" y="654" type="line"/>
      <point x="311" y="820" type="line"/>
    </contour>
    <contour>
      <point x="74" y="820" type="line"/>
      <point x="146" y="654" type="line"/>
      <point x="217" y="654" type="line"/>
      <point x="130" y="820" type="line"/>
    </contour>
  </outline>
</glyph>
<glyph name="tcommaaccent" format="1">
  <advance width="319"/>
  <unicode hex="0163"/>
  <outline>
    <contour>
      <point x="18" y="486" type="curve"/>
      <point x="297" y="486" type="line"/>
      <point x="297" y="533"/>
      <point x="297" y="486"/>
      <point x="297" y="533" type="curve"/>
      <point x="18" y="533" type="line"/>
      <point x="18" y="486"/>
      <point x="18" y="533"/>
    </contour>
    <contour>
      <point x="271" y="68" type="curve"/>
      <point x="253" y="54"/>
      <point x="238" y="45"/>
      <point x="214" y="45" type="curve"/>
      <point x="165" y="45"/>
      <point x="157" y="91"/>
      <point x="157" y="153" type="curve"/>
      <point x="157" y="681" type="line"/>
      <point x="116" y="655"/>
      <point x="139" y="664"/>
      <point x="99" y="638" type="curve"/>
      <point x="99" y="151" type="line"/>
      <point x="99" y="57"/>
      <point x="125" y="-5"/>
      <point x="207" y="-5" type="curve"/>
      <point x="242" y="-5"/>
      <point x="267" y="6"/>
      <point x="296" y="26" type="curve"/>
      <point x="271" y="68"/>
      <point x="296" y="26"/>
    </contour>
    <contour>
      <point x="155" y="-260" type="line"/>
      <point x="200" y="-243"/>
      <point x="232" y="-204"/>
      <point x="232" y="-140" type="curve"/>
      <point x="232" y="-100"/>
      <point x="220" y="-75"/>
      <point x="194" y="-75" type="curve"/>
      <point x="172" y="-75"/>
      <point x="159" y="-87"/>
      <point x="159" y="-108" type="curve"/>
      <point x="159" y="-126"/>
      <point x="167" y="-139"/>
      <point x="186" y="-143" type="curve"/>
      <point x="186" y="-165"/>
      <point x="179" y="-206"/>
      <point x="144" y="-226" type="curve"/>
    </contour>
  </outline>
</glyph>
<glyph name="tcaron" format="1">
  <advance width="338"/>
  <unicode hex="0165"/>
  <outline>
    <contour>
      <point x="18" y="486" type="curve"/>
      <point x="297" y="486" type="line"/>
      <point x="297" y="533"/>
      <point x="297" y="486"/>
      <point x="297" y="533" type="curve"/>
      <point x="18" y="533" type="line"/>
      <point x="18" y="486"/>
      <point x="18" y="533"/>
    </contour>
    <contour>
      <point x="271" y="68" type="curve"/>
      <point x="253" y="54"/>
      <point x="238" y="45"/>
      <point x="214" y="45" type="curve"/>
      <point x="165" y="45"/>
      <point x="157" y="91"/>
      <point x="157" y="153" type="curve"/>
      <point x="157" y="681" type="line"/>
      <point x="116" y="655"/>
      <point x="139" y="664"/>
      <point x="99" y="638" type="curve"/>
      <point x="99" y="151" type="line"/>
      <point x="99" y="57"/>
      <point x="125" y="-5"/>
      <point x="207" y="-5" type="curve"/>
      <point x="242" y="-5"/>
      <point x="267" y="6"/>
      <point x="296" y="26" type="curve"/>
      <point x="271" y="68"/>
      <point x="296" y="26"/>
    </contour>
    <contour>
      <point x="301" y="651" type="line"/>
      <point x="345" y="668"/>
      <point x="377" y="707"/>
      <point x="377" y="771" type="curve"/>
      <point x="377" y="811"/>
      <point x="365" y="836"/>
      <point x="339" y="836" type="curve"/>
      <point x="317" y="836"/>
      <point x="304" y="825"/>
      <point x="304" y="803" type="curve"/>
      <point x="304" y="785"/>
      <point x="313" y="772"/>
      <point x="332" y="768" type="curve"/>
      <point x="332" y="746"/>
      <point x="324" y="705"/>
      <point x="289" y="685" type="curve"/>
    </contour>
  </outline>
</glyph>
